<?xml version="1.0" standalone="no"?>
<!DOCTYPE svg PUBLIC "-//W3C//DTD SVG 1.1//EN" "http://www.w3.org/Graphics/SVG/1.1/DTD/svg11.dtd" >
<svg xmlns="http://www.w3.org/2000/svg" xmlns:xlink="http://www.w3.org/1999/xlink" version="1.1">
<metadata>
Created by FontForge 20190801 at Mon Dec 19 17:18:52 2016
 By Jimmy Wärting
Copyright \(c\) 2016 by Zetafonts. All rights reserved.
</metadata>
<defs>
<font id="CocogoosePro-Thin" horiz-adv-x="430" >
  <font-face 
    font-family="Cocogoose Pro Thin"
    font-weight="100"
    font-stretch="normal"
    units-per-em="1920"
    panose-1="0 0 5 0 0 0 0 0 0 0"
    ascent="1536"
    descent="-384"
    x-height="1225"
    cap-height="1427"
    bbox="-323 -507 2670 1955"
    underline-thickness="96"
    underline-position="-192"
    unicode-range="U+000D-FB04"
  />
<missing-glyph horiz-adv-x="602" 
d="M540 56q-135 0 -246.5 66.5t-175.5 178t-64 240.5q0 135 66.5 247t178 176.5t241.5 64.5q136 0 247 -68t174.5 -180.5t63.5 -239.5q0 -114 -46.5 -209.5t-127.5 -162t-181 -96.5q-61 -17 -130 -17zM540 989q-126 0 -228 -61.5t-160 -164.5t-58 -222t59 -222.5t161.5 -165
t225.5 -61.5q121 0 223.5 60.5t163 163.5t60.5 225q0 106 -44.5 195t-119.5 149.5t-166 86.5q-56 17 -117 17zM394 918q69 27 146 27q76 0 144.5 -27.5t121.5 -76.5h-537q56 50 125 77zM917.5 404q-23.5 -65 -66.5 -120h-536l524 528q102 -126 102 -271q0 -72 -23.5 -137z
M163.5 395q-25.5 69 -25.5 146q0 142 90 256h534l-524 -526q-49 55 -74.5 124zM684 165q-69 -27 -144 -27t-143.5 27t-125.5 75h539q-57 -48 -126 -75z" />
    <glyph glyph-name="ff" unicode="ff" horiz-adv-x="1389" 
d="M75 1051q-28 0 -28 26v1q0 12 7.5 17.5t20.5 5.5h223v152q0 123 45.5 209.5t127.5 130.5t191 44q19 0 28 -15q4 -5 4 -14v-2q0 -7 -7 -16t-29 -9q-99 0 -167.5 -41.5t-103 -115.5t-34.5 -171v-152h632v152q0 123 45.5 209.5t127.5 130.5t191 44q19 0 28 -15q4 -5 4 -14
v-2q0 -7 -7 -16t-29 -9q-99 0 -167.5 -41.5t-103 -115.5t-34.5 -171v-152h274q28 0 28 -23v-1q0 -26 -28 -26h-274v-1019q0 -32 -27 -32h-1q-27 0 -27 32v1019h-632v-1019q0 -32 -27 -32h-1q-27 0 -27 32v1019h-223z" />
    <glyph glyph-name="ffi" unicode="ffi" horiz-adv-x="1848" 
d="M65 1051q-28 0 -28 26v1q0 12 7.5 17.5t20.5 5.5h223v152q0 123 45.5 209.5t127.5 130.5t191 44q20 0 26 -10.5t6 -18.5v-2q0 -7 -7 -16t-29 -9q-99 0 -167.5 -41.5t-103 -115.5t-34.5 -171v-152h660v152q0 123 45.5 209.5t127.5 130.5t191 44q20 0 26 -10.5t6 -18.5v-2
q0 -7 -7 -16t-29 -9q-99 0 -167.5 -41.5t-103 -115.5t-34.5 -171v-152h589q27 -2 27 -23v-1046q0 -32 -27 -32h-1q-14 0 -21 8.5t-7 23.5v1019h-560v-1019q0 -32 -27 -32h-1q-27 0 -27 32v1019h-660v-1019q0 -32 -27 -32h-1q-27 0 -27 32v1019h-223zM1620 1575h49
q19 0 19 -22v-44q0 -22 -19 -22h-48q-12 0 -16.5 5t-4.5 17v46q0 20 20 20z" />
    <glyph glyph-name="fi" unicode="fi" horiz-adv-x="1092" 
d="M39 1077v1q0 12 7.5 17.5t20.5 5.5h220v152q0 123 45.5 209.5t127.5 130.5t191 44q20 0 26 -10.5t6 -18.5v-2q0 -7 -7 -16t-29 -9q-99 0 -167.5 -41.5t-103 -115.5t-34.5 -171v-152h567q27 -2 27 -23v-1046q0 -32 -27 -32h-1q-14 0 -21 8.5t-7 23.5v1019h-538v-1019
q0 -32 -27 -32h-1q-27 0 -27 32v1019h-220q-28 0 -28 26zM882 1575h49q19 0 19 -22v-44q0 -22 -19 -22h-48q-12 0 -16.5 5t-4.5 17v46q0 20 20 20z" />
    <glyph glyph-name="f_f_j" unicode="ffj" horiz-adv-x="1839" 
d="M65 1051q-28 0 -28 26v1q0 12 7.5 17.5t20.5 5.5h223v152q0 123 45.5 209.5t127.5 130.5t191 44q20 0 26 -10.5t6 -18.5v-2q0 -7 -7 -16t-29 -9q-99 0 -167.5 -41.5t-103 -115.5t-34.5 -171v-152h662v152q0 123 45.5 209.5t127.5 130.5t191 44q20 0 26 -10.5t6 -18.5v-2
q0 -7 -7 -16t-29 -9q-99 0 -167.5 -41.5t-103 -115.5t-34.5 -171v-152h580q27 -2 27 -23v-1096q0 -91 -39.5 -178.5t-122 -145.5t-203.5 -58q-21 0 -27 9.5t-6 17.5v2q0 7 7.5 16t29.5 9q103 0 171.5 46.5t101.5 121.5t33 161v1068h-552v-1019q0 -32 -27 -32h-1
q-27 0 -27 32v1019h-662v-1019q0 -32 -27 -32h-1q-27 0 -27 32v1019h-223zM1613 1575h49q19 0 19 -22v-44q0 -22 -19 -22h-48q-12 0 -16.5 5t-4.5 17v46q0 20 20 20z" />
    <glyph glyph-name="f_j" unicode="fj" horiz-adv-x="1142" 
d="M342 1051v-1019q0 -32 -27 -32h-1q-27 0 -27 32v1019h-220q-28 0 -28 26v1q0 12 7.5 17.5t20.5 5.5h220v152q0 123 45.5 209.5t127.5 130.5t191 44q20 0 26 -10.5t6 -18.5v-2q0 -7 -7 -16t-29 -9q-99 0 -167.5 -41.5t-103 -115.5t-34.5 -171v-152h597q27 -2 27 -23v-1096
q0 -90 -39.5 -178t-122 -146t-203.5 -58q-21 0 -27 9.5t-6 17.5v2q0 7 7.5 16t29.5 9q103 0 171.5 46.5t101.5 121.5t33 161v1032v36h-569zM912 1575h49q19 0 19 -22v-44q0 -22 -19 -22h-48q-12 0 -16.5 5t-4.5 17v46q0 20 20 20z" />
    <glyph glyph-name=".notdef" horiz-adv-x="602" 
d="M540 56q-135 0 -246.5 66.5t-175.5 178t-64 240.5q0 135 66.5 247t178 176.5t241.5 64.5q136 0 247 -68t174.5 -180.5t63.5 -239.5q0 -114 -46.5 -209.5t-127.5 -162t-181 -96.5q-61 -17 -130 -17zM540 989q-126 0 -228 -61.5t-160 -164.5t-58 -222t59 -222.5t161.5 -165
t225.5 -61.5q121 0 223.5 60.5t163 163.5t60.5 225q0 106 -44.5 195t-119.5 149.5t-166 86.5q-56 17 -117 17zM394 918q69 27 146 27q76 0 144.5 -27.5t121.5 -76.5h-537q56 50 125 77zM917.5 404q-23.5 -65 -66.5 -120h-536l524 528q102 -126 102 -271q0 -72 -23.5 -137z
M163.5 395q-25.5 69 -25.5 146q0 142 90 256h534l-524 -526q-49 55 -74.5 124zM684 165q-69 -27 -144 -27t-143.5 27t-125.5 75h539q-57 -48 -126 -75z" />
    <glyph glyph-name=".null" horiz-adv-x="0" 
 />
    <glyph glyph-name=".null" horiz-adv-x="0" 
 />
    <glyph glyph-name="space" unicode=" " horiz-adv-x="601" 
 />
    <glyph glyph-name="nonmarkingreturn" unicode="&#xd;" horiz-adv-x="601" 
 />
    <glyph glyph-name="F" unicode="F" horiz-adv-x="1181" 
d="M184 1427h935q25 0 25 -27v-1q0 -28 -25 -28h-908v-655h736q26 0 26 -27v-1q0 -28 -26 -28h-736v-632q0 -28 -26 -28h-1q-27 0 -27 28v1372q0 27 27 27z" />
    <glyph glyph-name="H" unicode="H" horiz-adv-x="1465" 
d="M208 683v-651q0 -32 -26 -32h-1q-27 0 -27 32v1363q0 32 27 32h1q26 0 26 -32v-658h1033v658q0 32 27 32h1q26 0 26 -32v-1363q0 -32 -26 -32h-1q-27 0 -27 32v651h-1033z" />
    <glyph glyph-name="I" unicode="I" 
d="M161 1418q7 9 20 9h1q26 0 26 -32v-1362q0 -33 -26 -33h-1q-14 0 -20.5 9t-6.5 24v1362q0 14 7 23z" />
    <glyph glyph-name="J" unicode="J" 
d="M198.5 1419q6.5 9 20.5 9h2q12 0 18.5 -10t6.5 -23v-1475q0 -83 -43 -154.5t-117 -114t-163 -42.5q-69 0 -127 21t-99 62q-20 20 -20 33q0 9 8 17l2 2q5 5 13 5q12 0 23 -11q70 -74 197 -74q79 0 141 38t96.5 98t34.5 124v1471q0 15 6.5 24z" />
    <glyph glyph-name="K" unicode="K" horiz-adv-x="1356" 
d="M1246 42q6 -7 6 -15q0 -11 -8.5 -19t-19.5 -8h-1q-16 0 -30 18l-653 776l-332 -353v-409q0 -32 -26 -32h-1q-27 0 -27 32v1362q0 32 27 32h1q26 0 26 -32v-879l833 893q18 19 30 19h2q11 0 19 -8.5t8 -19.5t-7 -18l-515 -546z" />
    <glyph glyph-name="L" unicode="L" horiz-adv-x="1112" 
d="M184 1427h1q26 0 26 -32v-1339h823q34 0 34 -26v-1q0 -14 -9.5 -21.5t-24.5 -7.5h-850q-27 0 -27 28v1367q0 32 27 32z" />
    <glyph glyph-name="M" unicode="M" horiz-adv-x="1699" 
d="M162 28q-3 -28 -29 -28h-1q-24 3 -24 27v6l116 1370q1 9 9 16.5t20 8.5h4q4 0 9.5 -3.5t8.5 -10.5l560 -1189l554 1185q5 10 11.5 14t11.5 4h1q12 0 20 -6.5t9 -18.5l117 -1373v-6q0 -21 -24 -24h-1q-14 0 -20.5 5.5t-8.5 20.5l-109 1270l-537 -1147q-7 -13 -22 -13h-3
q-16 0 -23 13l-541 1149z" />
    <glyph glyph-name="P" unicode="P" horiz-adv-x="1187" 
d="M179 1427h466q120 0 222 -60t162 -162t60 -223q0 -120 -59.5 -221.5t-161.5 -161t-223 -59.5h-439v-508q0 -32 -26 -32h-1q-27 0 -27 32v1368q0 27 27 27zM206 596h439q107 0 196 51.5t140 140t51 194.5q0 107 -51 196.5t-140 141.5t-196 52h-439v-776z" />
    <glyph glyph-name="R" unicode="R" horiz-adv-x="1279" 
d="M722 540h-516v-512q0 -28 -26 -28h-1q-27 0 -27 28v1372q0 27 27 27h543q120 0 222 -60t161.5 -162.5t59.5 -222.5q0 -133 -71.5 -241t-188.5 -162l224 -541q2 -8 2 -10q0 -11 -8.5 -19.5t-18.5 -8.5h-3q-7 0 -15 4.5t-13 15.5l-224 538q-60 -18 -127 -18zM206 596h516
q107 0 196 51.5t140 140t51 194.5q0 107 -51 196.5t-140 141.5t-196 52h-516v-776z" />
    <glyph glyph-name="S" unicode="S" horiz-adv-x="1256" 
d="M92 226q0 11 8 19l2 2q7 4 15 4q14 0 30 -19q78 -97 187.5 -146.5t268.5 -49.5q135 0 241.5 36t170 115.5t63.5 203.5q0 107 -73.5 170.5t-165.5 91.5t-234 56q-165 30 -270.5 76t-158.5 115.5t-53 169.5q0 118 61.5 202t175 127.5t268.5 43.5q137 0 237.5 -37
t192.5 -126q9 -9 9 -22q0 -10 -6 -18l-2 -2q-8 -5 -17 -5q-8 0 -16 5t-19 15q-60 51 -109 79t-112.5 41.5t-157.5 13.5q-117 0 -218.5 -31t-166.5 -101.5t-65 -184.5q0 -131 119.5 -201.5t320.5 -108.5q160 -32 261 -64.5t177.5 -106t76.5 -198.5q0 -136 -69 -228t-189 -137
t-272 -45q-160 0 -280.5 50.5t-217.5 167.5q-13 15 -13 27z" />
    <glyph glyph-name="T" unicode="T" horiz-adv-x="1202" 
d="M97 1427h1024q26 0 26 -27v-1q0 -28 -26 -28h-483v-1343q0 -28 -26 -28h-1q-28 0 -28 28v1343h-486q-28 0 -28 28v1q0 27 28 27z" />
    <glyph glyph-name="A" unicode="A" horiz-adv-x="1377" 
d="M672 1426h5q6 0 13 -4.5t12 -16.5l573 -1365q3 -7 3 -13q0 -11 -9 -19t-19 -8h-3q-14 0 -22 19l-162 387h-778l-162 -386q-8 -20 -21 -20h-3q-12 0 -20 6.5t-8 18.5q0 8 3 15l574 1365q8 19 24 21zM1040 461l-365 874l-367 -874h732z" />
    <glyph glyph-name="U" unicode="U" horiz-adv-x="1442" 
d="M261.5 294q70.5 -121 191.5 -191.5t266 -70.5t266 70.5t191.5 191.5t70.5 266v836q0 15 7 23.5t21 8.5h1q26 0 26 -32v-845q0 -157 -78.5 -288.5t-212 -208.5t-292.5 -77t-292.5 78t-212 212t-78.5 293v838q0 30 28 30h1q26 0 26 -30v-838q0 -145 70.5 -266z" />
    <glyph glyph-name="V" unicode="V" horiz-adv-x="1336" 
d="M644 -2h-5q-14 0 -23 20l-572 1367q-4 7 -4 16q0 12 9 19.5t18 7.5h3q5 0 11 -5.5t11 -16.5l549 -1314l548 1315q8 21 23 21h2q10 0 19 -7t9 -20q0 -10 -4 -17l-572 -1366q-8 -18 -22 -20z" />
    <glyph glyph-name="W" unicode="W" horiz-adv-x="1985" 
d="M663 20q-5 -11 -12 -15.5t-13 -4.5h-3q-17 0 -25 20l-574 1368q-3 8 -3 13q0 12 9 19t19 7h3q13 0 21 -19l551 -1317l548 1317q7 19 22 19h2q10 0 19.5 -7t9.5 -19q0 -5 -3 -13l-225 -541l318 -758l551 1319q7 19 21 19h3q10 0 19.5 -7.5t9.5 -19.5q0 -6 -3 -12
l-574 -1368q-5 -11 -12 -15.5t-12 -4.5h-5q-6 0 -13 4.5t-12 15.5l-320 757z" />
    <glyph glyph-name="X" unicode="X" horiz-adv-x="1118" 
d="M1042 43q6 -10 6 -18q0 -11 -8.5 -18t-17.5 -7h-1q-16 0 -25 13l-443 652l-441 -651q-10 -14 -22 -14q-10 0 -19.5 6.5t-9.5 19.5q0 8 6 18l454 670l-452 669q-6 8 -6 18q0 11 8 18.5t17 7.5h1q14 0 24 -14l440 -651l443 653q11 14 23 14q10 0 19.5 -7.5t9.5 -19.5
q0 -8 -6 -17l-456 -671z" />
    <glyph glyph-name="Y" unicode="Y" horiz-adv-x="1126" 
d="M586 34q0 -34 -27 -34h-1q-14 0 -20.5 9.5t-6.5 24.5v616l-470 735q-5 8 -5 16q0 11 7.5 18.5t16.5 7.5h3h2q10 0 21 -15l452 -706l453 705q7 11 12.5 13.5t10.5 2.5h3q9 0 16.5 -8t7.5 -19q0 -8 -5 -16l-470 -734v-616z" />
    <glyph glyph-name="Z" unicode="Z" horiz-adv-x="1254" 
d="M1156 1403v-5q-1 -6 -7 -16l-1024 -1328h979q31 0 31 -26v-1q0 -27 -31 -27h-1035q-27 0 -27 27v1q0 5 3 11l1030 1335l-962 -1q-34 0 -34 26v1q0 14 9 20.5t24 6.5l1017 2q25 0 27 -26z" />
    <glyph glyph-name="bar" unicode="|" horiz-adv-x="482" 
d="M226 1426h1q26 0 26 -27v-1740q0 -28 -26 -28h-1q-27 0 -27 28v1740q0 27 27 27z" />
    <glyph glyph-name="brokenbar" unicode="&#xa6;" horiz-adv-x="574" 
d="M206 1426h1q26 0 26 -27v-742q0 -28 -26 -28h-1q-27 0 -27 28v742q0 27 27 27zM206 430h1q26 0 26 -27v-742q0 -28 -26 -28h-1q-27 0 -27 28v742q0 27 27 27z" />
    <glyph glyph-name="bracketleft" unicode="[" horiz-adv-x="492" 
d="M181 1585h248q12 0 20.5 -7.5t8.5 -20.5v-1q0 -10 -8.5 -18t-20.5 -8h-218v-1663h218q12 0 20.5 -7.5t8.5 -20.5v-1q0 -10 -8.5 -18t-20.5 -8h-246q-10 0 -18 7.5t-8 19.5v1723q2 22 24 23z" />
    <glyph glyph-name="bracketright" unicode="]" horiz-adv-x="492" 
d="M311 -180.5q-8 -7.5 -18 -7.5h-246q-12 0 -20.5 8t-8.5 18v1q0 13 8.5 20.5t20.5 7.5h218v1663h-218q-12 0 -20.5 8t-8.5 18v1q0 13 8.5 20.5t20.5 7.5h248q22 -1 24 -23v-1723q0 -12 -8 -19.5z" />
    <glyph glyph-name="braceleft" unicode="{" horiz-adv-x="595" 
d="M72.5 717.5q7.5 8.5 25.5 8.5q37 0 68.5 12t57.5 61.5t26 150.5v371q0 176 95 235t197 59q12 0 20.5 -7.5t8.5 -20.5v-1q0 -10 -8.5 -18t-20.5 -8q-45 0 -94.5 -11t-96 -62.5t-46.5 -159.5v-381q0 -103 -26.5 -162.5t-69.5 -85.5q42 -27 69 -86t27 -161v-361
q0 -146 75 -189.5t155 -43.5q16 0 26 -6.5t10 -19.5v-1q0 -13 -8.5 -20.5t-20.5 -7.5q-102 0 -197 59t-95 235v351q0 102 -26.5 151.5t-58 61t-68.5 11.5h-6q-11 0 -18 6.5t-8 18.5v5q0 8 7.5 16.5z" />
    <glyph glyph-name="underscore" unicode="_" horiz-adv-x="1254" 
d="M121 -9h992q12 0 20.5 -7.5t8.5 -20.5v-1q0 -10 -8.5 -18t-20.5 -8h-992q-32 0 -32 27v1q0 27 32 27z" />
    <glyph glyph-name="endash" unicode="&#x2013;" horiz-adv-x="1292" 
d="M190 553h913q12 0 19.5 -7t7.5 -21v-1q0 -10 -8 -18t-19 -8h-913q-31 0 -31 27v1q0 27 31 27z" />
    <glyph glyph-name="bullet" unicode="&#x2022;" horiz-adv-x="455" 
d="M139.5 685.5q24.5 24.5 59.5 24.5t59.5 -24.5t24.5 -59.5t-24.5 -59.5t-59.5 -24.5t-59.5 24.5t-24.5 59.5t24.5 59.5z" />
    <glyph glyph-name="asciicircum" unicode="^" horiz-adv-x="937" 
d="M479 1428q10 0 20 -10l210 -210q11 -11 11 -23q0 -10 -8.5 -19t-18.5 -9q-12 0 -24 12l-190 190l-193 -192q-11 -11 -23 -11q-10 0 -17 7l-1 1q-8 8 -8 18q0 12 10 22l213 214q9 10 19 10z" />
    <glyph glyph-name="backslash" unicode="\" horiz-adv-x="695" 
d="M42 1399q0 12 9.5 19.5t19.5 7.5h3q14 0 21 -19l541 -1369q3 -7 3 -13q0 -13 -9.5 -19t-20.5 -6h-2q-15 0 -22 18l-540 1369q-3 6 -3 12z" />
    <glyph glyph-name="asciitilde" unicode="~" horiz-adv-x="825" 
d="M179 478q-6 -4 -14 -4q-6 0 -17 8l-2 2q-8 8 -8 16q0 10 11 21q38 44 71 64t75 20q25 0 48 -10.5t59 -31.5q35 -21 58.5 -31.5t48.5 -10.5q23 0 41 13t40 37q14 15 23.5 22.5t18.5 7.5q11 0 17.5 -8t6.5 -16q0 -13 -11 -26q-33 -43 -68.5 -64t-77.5 -21q-26 0 -50.5 11.5
t-56.5 32.5q-33 20 -53.5 30t-43.5 10q-33 0 -53 -13.5t-48 -45.5q-9 -9 -15 -13z" />
    <glyph glyph-name="braceright" unicode="}" horiz-adv-x="685" 
d="M533 677.5q-7 -6.5 -18 -6.5h-6q-37 0 -68.5 -11.5t-58 -61t-26.5 -151.5v-351q0 -176 -95 -235t-197 -59q-12 0 -20.5 7.5t-8.5 20.5v1q0 13 10 19.5t26 6.5q80 0 155 43.5t75 189.5v361q0 102 27 161t69 86q-43 26 -69.5 85.5t-26.5 162.5v381q0 108 -46.5 159.5
t-96 62.5t-94.5 11q-12 0 -20.5 8t-8.5 18v1q0 13 8.5 20.5t20.5 7.5q102 0 197 -59t95 -235v-371q0 -101 26 -150.5t57.5 -61.5t68.5 -12q18 0 25.5 -8.5t7.5 -16.5v-5q-1 -12 -8 -18.5z" />
    <glyph glyph-name="Euro" unicode="&#x20ac;" horiz-adv-x="1480" 
d="M79 610h83q-7 58 -7 103q0 47 6 93h-82q-31 0 -31 27v1q0 27 31 27h91q33 167 136.5 301t256 210.5t327.5 76.5q130 0 247.5 -41.5t212.5 -119.5q16 -15 16 -27q0 -3 -1.5 -6t-1.5 -4l-2 -4l-1 -1q-9 -9 -22 -9q-11 0 -22 8q-92 71 -199.5 110t-226.5 39
q-160 0 -299.5 -69.5t-235.5 -191t-129 -272.5h474q12 0 19.5 -7t7.5 -21v-1q0 -10 -8 -18t-19 -8h-484q-6 -46 -6 -93q0 -50 8 -103h482q12 0 19.5 -7t7.5 -21v-1q0 -10 -8 -18t-19 -8h-472q36 -149 131.5 -268t233.5 -186.5t297 -67.5q119 0 226.5 38t196.5 108q11 9 22 9
q10 0 17 -7l2 -2q6 -6 6 -16q0 -16 -13 -26q-92 -78 -208.5 -118.5t-248.5 -40.5q-173 0 -324 75t-254.5 206.5t-139.5 295.5h-93q-31 0 -31 27v1q0 27 31 27z" />
    <glyph glyph-name="E" unicode="E" horiz-adv-x="1213" 
d="M183 1427h928q32 0 32 -27v-1q0 -14 -8.5 -21t-23.5 -7h-901v-604h738q15 0 24.5 -6.5t9.5 -20.5v-1q0 -14 -9.5 -20.5t-24.5 -6.5h-738v-656h921q32 0 32 -27v-1q0 -14 -8.5 -21t-23.5 -7h-948q-27 0 -27 28v1372q0 27 27 27z" />
    <glyph glyph-name="ellipsis" unicode="&#x2026;" horiz-adv-x="1009" 
d="M155.5 108.5q5.5 6.5 16.5 6.5h72q13 0 17.5 -6.5t4.5 -18.5v-67q0 -23 -18 -23h-80q-18 0 -18 21v71q0 10 5.5 16.5zM431.5 108.5q5.5 6.5 16.5 6.5h72q13 0 17.5 -6.5t4.5 -18.5v-67q0 -23 -18 -23h-80q-18 0 -18 21v71q0 10 5.5 16.5zM716.5 108.5q5.5 6.5 16.5 6.5
h72q13 0 17.5 -6.5t4.5 -18.5v-67q0 -23 -18 -23h-80q-18 0 -18 21v71q0 10 5.5 16.5z" />
    <glyph glyph-name="quoteleft" unicode="&#x2018;" horiz-adv-x="457" 
d="M273.5 1211.5q-5.5 -6.5 -17.5 -6.5h-73q-20 0 -20 22v79q0 31 9.5 59t23.5 45t24 17q4 0 8 -4l17 -14q3 -3 3 -7q0 -7 -6 -16l-8 -12q-6 -9 -11.5 -19t-5.5 -18q0 -11 2.5 -14t11.5 -3h25q14 0 18.5 -6t4.5 -19v-68q0 -9 -5.5 -15.5z" />
    <glyph glyph-name="quoteright" unicode="&#x2019;" horiz-adv-x="451" 
d="M149.5 1420.5q5.5 6.5 17.5 6.5h73q20 0 20 -22v-79q0 -31 -9.5 -59t-23.5 -45t-24 -17q-4 0 -8 4l-17 14q-3 3 -3 7q0 7 6 16l8 12q6 9 11.5 19t5.5 18q0 11 -2.5 14t-11.5 3h-25q-14 0 -18.5 6t-4.5 19v68q0 9 5.5 15.5z" />
    <glyph glyph-name="quotedblleft" unicode="&#x201c;" horiz-adv-x="753" 
d="M508.5 1212.5q-5.5 -6.5 -17.5 -6.5h-73q-20 0 -20 22v79q0 31 9.5 59t23.5 45t24 17q4 0 8 -4l17 -14q3 -3 3 -7q0 -7 -6 -16l-8 -12q-6 -9 -11.5 -19t-5.5 -18q0 -11 2.5 -14t11.5 -3h25q14 0 18.5 -6t4.5 -19v-68q0 -9 -5.5 -15.5zM290.5 1211.5q-5.5 -6.5 -17.5 -6.5
h-73q-20 0 -20 22v79q0 31 9.5 59t23.5 45t24 17q4 0 8 -4l17 -14q3 -3 3 -7q0 -7 -6 -16l-8 -12q-6 -9 -11.5 -19t-5.5 -18q0 -11 2.5 -14t11.5 -3h25q14 0 18.5 -6t4.5 -19v-68q0 -9 -5.5 -15.5z" />
    <glyph glyph-name="quotedblright" unicode="&#x201d;" horiz-adv-x="653" 
d="M417.5 1419.5q5.5 6.5 17.5 6.5h73q20 0 20 -22v-79q0 -31 -9.5 -59t-23.5 -45t-24 -17q-4 0 -8 4l-17 14q-3 3 -3 7q0 7 6 16l8 12q6 9 11.5 19t5.5 18q0 11 -2.5 14t-11.5 3h-25q-14 0 -18.5 6t-4.5 19v68q0 9 5.5 15.5zM199.5 1418.5q5.5 6.5 17.5 6.5h73q20 0 20 -22
v-79q0 -31 -9.5 -59t-23.5 -45t-24 -17q-4 0 -8 4l-17 14q-3 3 -3 7q0 7 6 16l8 12q6 9 11.5 19t5.5 18q0 11 -2.5 14t-11.5 3h-25q-14 0 -18.5 6t-4.5 19v68q0 9 5.5 15.5z" />
    <glyph glyph-name="sterling" unicode="&#xa3;" horiz-adv-x="1080" 
d="M613 718q12 0 20.5 -7.5t8.5 -20.5v-1q0 -10 -8.5 -18t-20.5 -8h-383v-607h770q34 0 34 -26v-1q0 -14 -9.5 -21.5t-24.5 -7.5h-797q-27 0 -27 28v635h-67q-32 0 -32 27v1q0 27 32 27h67v253q0 124 67.5 229t178.5 166.5t235 61.5q78 0 171 -33.5t145 -77.5
q4 -4 11.5 -10.5t12 -13t4.5 -13.5q0 -5 -2 -11l-2 -3q-6 -11 -20 -11q-12 0 -19 7q-51 44 -132.5 79.5t-165.5 35.5q-100 0 -200 -53t-165 -150t-65 -220v-236h383z" />
    <glyph glyph-name="cent" unicode="&#xa2;" horiz-adv-x="1213" 
d="M679 -173v154q-165 6 -303 91.5t-218.5 226.5t-80.5 308q0 170 84 311t222.5 225t295.5 94v162q0 12 7.5 20.5t20.5 8.5h1q10 0 18 -8.5t8 -20.5v-162q96 -3 188.5 -38t175.5 -101q12 -10 12 -23q0 -27 -27 -27q-10 0 -20 7q-79 62 -167.5 95t-177.5 33
q-150 0 -285 -75.5t-218 -207.5t-83 -293q0 -156 76.5 -287.5t208 -208t287.5 -76.5q104 0 195 31t162 91q11 9 23 9q11 0 17.5 -8t6.5 -18q0 -15 -13 -25q-71 -62 -163.5 -95.5t-197.5 -38.5v-154q0 -32 -27 -32h-1q-27 0 -27 32z" />
    <glyph glyph-name="dagger" unicode="&#x2020;" horiz-adv-x="820" 
d="M108 576h279v821q0 29 27 29h2q10 0 17.5 -7.5t7.5 -21.5v-821h285q12 0 20.5 -7.5t8.5 -20.5v-1q0 -10 -8.5 -18t-20.5 -8h-285v-861q0 -28 -26 -28h-3q-13 0 -19 8.5t-6 19.5v861h-279q-32 0 -32 27v1q0 27 32 27z" />
    <glyph glyph-name="daggerdbl" unicode="&#x2021;" horiz-adv-x="849" 
d="M113 787h279v610q0 29 27 29h2q10 0 17.5 -7.5t7.5 -21.5v-610h285q12 0 20.5 -7.5t8.5 -20.5v-1q0 -10 -8.5 -18t-20.5 -8h-285v-403h285q12 0 20.5 -7.5t8.5 -20.5v-1q0 -10 -8.5 -18t-20.5 -8h-285v-614q0 -28 -26 -28h-3q-13 0 -19 8.5t-6 19.5v614h-279
q-32 0 -32 27v1q0 27 32 27h279v403h-279q-32 0 -32 27v1q0 27 32 27z" />
    <glyph glyph-name="florin" unicode="&#x192;" horiz-adv-x="735" 
d="M367 -60q-2 -86 -39 -158.5t-113.5 -116.5t-188.5 -44q-16 0 -23.5 6t-9 14t-0.5 8v2q0 7 7.5 16.5t29.5 9.5q87 0 151 33.5t98 94t34 140.5v1078h-157q-31 0 -31 28v1q0 26 31 26h157v133q0 148 36 240t115.5 136.5t210.5 44.5q20 0 26 -9.5t6 -16.5v-2q0 -6 -7.5 -14.5
t-28.5 -8.5q-115 0 -181 -38t-94.5 -118.5t-28.5 -213.5v-133h249q31 0 31 -26v-1q0 -28 -31 -28h-249v-1083z" />
    <glyph glyph-name="trademark" unicode="&#x2122;" horiz-adv-x="1277" 
d="M542 1399v-3q0 -25 -29 -25h-166v-506q0 -28 -26 -28h-1q-28 0 -28 28v506h-169q-27 0 -27 28v5q0 22 27 22h390q29 0 29 -27zM1193 871q0 -14 -6.5 -21t-16.5 -7h-1q-26 0 -30 27l-35 423l-194 -410q-10 -22 -24 -22h-2q-18 0 -27 22l-174 400l-34 -419q-4 -25 -28 -25
h-3q-11 0 -17.5 7.5t-6.5 19.5l42 520q2 17 10.5 25.5t20.5 8.5h1q6 0 12.5 -3.5t9.5 -11.5l192 -441l210 440q9 19 33 19h1q10 0 17.5 -9.5t9.5 -26.5l40 -512v-4z" />
    <glyph glyph-name="yen" unicode="&#xa5;" horiz-adv-x="1139" 
d="M247 574h263v91l-459 719q-5 8 -5 15q0 10 7 17t17 10l3 1l3 1q10 0 20 -17l441 -690l463 690q11 17 20 17l3 -1l3 -1q10 -3 17 -10t7 -17q0 -7 -5 -15l-480 -717v-93h260q12 0 19.5 -7t7.5 -21v-1q0 -10 -8 -18t-19 -8h-260v-205h260q12 0 19.5 -7t7.5 -21v-1
q0 -10 -8 -18t-19 -8h-260v-226q0 -33 -27 -33h-1q-14 0 -20.5 9t-6.5 24v226h-263q-31 0 -31 27v1q0 27 31 27h263v205h-263q-31 0 -31 27v1q0 27 31 27z" />
    <glyph glyph-name="emdash" unicode="&#x2014;" horiz-adv-x="1601" 
d="M187 559h1221q12 0 19.5 -7t7.5 -21v-1q0 -10 -8 -18t-19 -8h-1221q-31 0 -31 27v1q0 27 31 27z" />
    <glyph glyph-name="guilsinglright" unicode="&#x203a;" horiz-adv-x="820" 
d="M690 525l-501 -495q-11 -11 -25 -11q-9 0 -14 5l-2 2q-9 9 -9 20q0 12 10 22l475 469l-475 469q-10 10 -10 22q0 11 9 20l2 2q5 5 14 5q14 0 25 -11l501 -495q7 -7 7 -12t-7 -12z" />
    <glyph glyph-name="N" unicode="N" horiz-adv-x="1493" 
d="M208 33q0 -33 -26 -33h-1q-14 0 -20.5 9t-6.5 24v1367q0 10 6.5 18t19.5 9h5q14 0 30 -19l1053 -1308v1300q0 27 28 27h1q26 0 26 -27v-1367q0 -33 -26 -33h-6q-13 0 -29 18l-1054 1311v-1296z" />
    <glyph glyph-name="Zcaron" unicode="&#x17d;" horiz-adv-x="1254" 
d="M655 1563q-10 0 -19 9l-213 213q-10 10 -10 23q0 10 8 18l1 1q7 7 16 7q13 0 24 -11l193 -193l194 193q11 11 23 11q10 0 17 -7l1 -1q8 -8 8 -18q0 -13 -10 -23l-212 -212q-10 -10 -21 -10zM1156 1403v-5q-1 -6 -7 -16l-1024 -1328h979q31 0 31 -26v-1q0 -27 -31 -27
h-1035q-27 0 -27 27v1q0 5 3 11l1030 1335l-962 -1q-34 0 -34 26v1q0 14 9 20.5t24 6.5l1017 2q25 0 27 -26z" />
    <glyph glyph-name="exclamdown" unicode="&#xa1;" 
d="M183 1226h49q13 0 13 -13v-47q0 -8 -2.5 -11t-10.5 -3h-49q-13 0 -13 14v47q0 13 13 13zM187 876.5q7 8.5 20 8.5h3q24 0 24 -33v-1163q0 -32 -26 -32h-1q-12 0 -19.5 9.5t-7.5 22.5v1165q0 14 7 22.5z" />
    <glyph glyph-name="Ecircumflex" unicode="&#xca;" horiz-adv-x="1213" 
d="M670 1845q10 0 20 -10l210 -210q11 -11 11 -23q0 -10 -8.5 -19t-18.5 -9q-12 0 -24 12l-190 190l-193 -192q-11 -11 -23 -11q-10 0 -17 7l-1 1q-8 8 -8 18q0 12 10 22l213 214q9 10 19 10zM183 1427h928q32 0 32 -27v-1q0 -14 -8.5 -21t-23.5 -7h-901v-604h738
q15 0 24.5 -6.5t9.5 -20.5v-1q0 -14 -9.5 -20.5t-24.5 -6.5h-738v-656h921q32 0 32 -27v-1q0 -14 -8.5 -21t-23.5 -7h-948q-27 0 -27 28v1372q0 27 27 27z" />
    <glyph glyph-name="Edieresis" unicode="&#xcb;" horiz-adv-x="1213" 
d="M486 1699h61q24 0 24 -28v-54q0 -28 -24 -28h-60q-15 0 -20.5 6.5t-5.5 21.5v57q0 25 25 25zM796 1699h61q24 0 24 -28v-54q0 -28 -24 -28h-60q-15 0 -20.5 6.5t-5.5 21.5v57q0 25 25 25zM183 1427h928q32 0 32 -27v-1q0 -14 -8.5 -21t-23.5 -7h-901v-604h738
q15 0 24.5 -6.5t9.5 -20.5v-1q0 -14 -9.5 -20.5t-24.5 -6.5h-738v-656h921q32 0 32 -27v-1q0 -14 -8.5 -21t-23.5 -7h-948q-27 0 -27 28v1372q0 27 27 27z" />
    <glyph glyph-name="Igrave" unicode="&#xcc;" 
d="M11 1831q0 11 8 18.5t19 8.5h2q7 0 12.5 -3.5t12.5 -16.5l128 -229q5 -13 5 -18q0 -11 -8.5 -17.5t-18.5 -7.5h-2q-14 0 -26 20l-127 228q-5 8 -5 17zM161 1418q7 9 20 9h1q26 0 26 -32v-1362q0 -33 -26 -33h-1q-14 0 -20.5 9t-6.5 24v1362q0 14 7 23z" />
    <glyph glyph-name="Iacute" unicode="&#xcd;" 
d="M259 1563h-2q-10 1 -18.5 7.5t-8.5 17.5q0 8 5 18l128 229q7 13 12.5 16.5t12.5 3.5h2q10 -1 18.5 -8.5t8.5 -18.5q0 -9 -5 -17l-127 -228q-12 -20 -26 -20zM161 1418q7 9 20 9h1q26 0 26 -32v-1362q0 -33 -26 -33h-1q-14 0 -20.5 9t-6.5 24v1362q0 14 7 23z" />
    <glyph glyph-name="Icircumflex" unicode="&#xce;" 
d="M178 1845q10 0 20 -10l210 -210q11 -11 11 -23q0 -10 -8.5 -19t-18.5 -9q-12 0 -24 12l-190 190l-193 -192q-11 -11 -23 -11q-10 0 -17 7l-1 1q-8 8 -8 18q0 12 10 22l213 214q9 10 19 10zM161 1418q7 9 20 9h1q26 0 26 -32v-1362q0 -33 -26 -33h-1q-14 0 -20.5 9
t-6.5 24v1362q0 14 7 23z" />
    <glyph glyph-name="Idieresis" unicode="&#xcf;" 
d="M1 1690h61q24 0 24 -28v-54q0 -28 -24 -28h-60q-15 0 -20.5 6.5t-5.5 21.5v57q0 25 25 25zM311 1690h61q24 0 24 -28v-54q0 -28 -24 -28h-60q-15 0 -20.5 6.5t-5.5 21.5v57q0 25 25 25zM161 1418q7 9 20 9h1q26 0 26 -32v-1362q0 -33 -26 -33h-1q-14 0 -20.5 9t-6.5 24
v1362q0 14 7 23z" />
    <glyph glyph-name="Ntilde" unicode="&#xd1;" horiz-adv-x="1493" 
d="M561 1578q-6 -4 -14 -4q-6 0 -17 8l-2 2q-8 8 -8 16q0 10 11 21q38 44 71 64t75 20q25 0 48 -10.5t59 -31.5q35 -21 58.5 -31.5t48.5 -10.5q23 0 41 13t40 37q14 15 23.5 22.5t18.5 7.5q11 0 17.5 -8t6.5 -16q0 -13 -11 -26q-33 -43 -68.5 -64t-77.5 -21
q-26 0 -50.5 11.5t-56.5 32.5q-33 20 -53.5 30t-43.5 10q-33 0 -53 -13.5t-48 -45.5q-9 -9 -15 -13zM208 33q0 -33 -26 -33h-1q-14 0 -20.5 9t-6.5 24v1367q0 10 6.5 18t19.5 9h5q14 0 30 -19l1053 -1308v1300q0 27 28 27h1q26 0 26 -27v-1367q0 -33 -26 -33h-6
q-13 0 -29 18l-1054 1311v-1296z" />
    <glyph glyph-name="Ucircumflex" unicode="&#xdb;" horiz-adv-x="1442" 
d="M712 1856q10 0 20 -10l210 -210q11 -11 11 -23q0 -10 -8.5 -19t-18.5 -9q-12 0 -24 12l-190 190l-193 -192q-11 -11 -23 -11q-10 0 -17 7l-1 1q-8 8 -8 18q0 12 10 22l213 214q9 10 19 10zM261.5 294q70.5 -121 191.5 -191.5t266 -70.5t266 70.5t191.5 191.5t70.5 266
v836q0 15 7 23.5t21 8.5h1q26 0 26 -32v-845q0 -157 -78.5 -288.5t-212 -208.5t-292.5 -77t-292.5 78t-212 212t-78.5 293v838q0 30 28 30h1q26 0 26 -30v-838q0 -145 70.5 -266z" />
    <glyph glyph-name="Udieresis" unicode="&#xdc;" horiz-adv-x="1442" 
d="M540 1690h61q24 0 24 -28v-54q0 -28 -24 -28h-60q-15 0 -20.5 6.5t-5.5 21.5v57q0 25 25 25zM850 1690h61q24 0 24 -28v-54q0 -28 -24 -28h-60q-15 0 -20.5 6.5t-5.5 21.5v57q0 25 25 25zM261.5 294q70.5 -121 191.5 -191.5t266 -70.5t266 70.5t191.5 191.5t70.5 266v836
q0 15 7 23.5t21 8.5h1q26 0 26 -32v-845q0 -157 -78.5 -288.5t-212 -208.5t-292.5 -77t-292.5 78t-212 212t-78.5 293v838q0 30 28 30h1q26 0 26 -30v-838q0 -145 70.5 -266z" />
    <glyph glyph-name="icircumflex" unicode="&#xee;" 
d="M185 1643q10 0 20 -10l210 -210q11 -11 11 -23q0 -10 -8.5 -19t-18.5 -9q-12 0 -24 12l-190 190l-193 -192q-11 -11 -23 -11q-10 0 -17 7l-1 1q-8 8 -8 18q0 12 10 22l213 214q9 10 19 10zM197 1226h1q27 0 27 -31v-1163q0 -32 -27 -32h-1q-14 0 -21 8.5t-7 23.5v1163
q0 31 28 31z" />
    <glyph glyph-name="idieresis" unicode="&#xef;" 
d="M11 1502h61q24 0 24 -28v-54q0 -28 -24 -28h-60q-15 0 -20.5 6.5t-5.5 21.5v57q0 25 25 25zM321 1502h61q24 0 24 -28v-54q0 -28 -24 -28h-60q-15 0 -20.5 6.5t-5.5 21.5v57q0 25 25 25zM197 1226h1q27 0 27 -31v-1163q0 -32 -27 -32h-1q-14 0 -21 8.5t-7 23.5v1163
q0 31 28 31z" />
    <glyph glyph-name="uni00B5" unicode="&#xb5;" horiz-adv-x="1139" 
d="M375 25.5q-88 50.5 -143 139.5v-505q0 -16 -8 -23t-18 -7h-2q-29 0 -29 29v1251q0 28 29 28h3q12 0 18.5 -8.5t6.5 -21.5v-540q0 -93 44.5 -170t122 -121.5t171.5 -44.5t171.5 44.5t122 121.5t44.5 170v541q0 32 27 32h4q10 0 18.5 -7.5t8.5 -23.5v-522q0 -109 -50 -204
t-140 -152t-206 -57q-107 0 -195 50.5z" />
    <glyph glyph-name="periodcentered" unicode="&#xb7;" horiz-adv-x="415" 
d="M155.5 587.5q5.5 6.5 16.5 6.5h72q13 0 17.5 -6.5t4.5 -18.5v-67q0 -23 -18 -23h-80q-18 0 -18 21v71q0 10 5.5 16.5z" />
    <glyph glyph-name="Ccedilla" unicode="&#xc7;" horiz-adv-x="1402" 
d="M485.5 1295q-156.5 -89 -247.5 -243t-91 -339t91.5 -338.5t247.5 -243t341 -89.5q223 0 419 154q11 9 22 9q10 0 17 -7l2 -2q6 -6 6 -16q0 -16 -13 -26q-89 -76 -196.5 -120t-226.5 -49v-133q61 -10 102 -58.5t41 -109.5q0 -46 -22.5 -85t-61 -62t-84.5 -23q-12 0 -20 8
t-8 20q0 11 8 18.5t19 7.5q49 0 82 34t33 82q0 43 -26.5 71.5t-70.5 40.5q-3 1 -15 3.5t-19.5 8t-7.5 12.5v164q-196 5 -360.5 104t-260.5 264t-96 361q0 200 99 367t268.5 264.5t369.5 97.5q128 0 242.5 -43.5t211.5 -123.5q16 -15 16 -27q0 -3 -1.5 -6t-1.5 -4l-2 -4
l-1 -1q-9 -9 -22 -9q-11 0 -22 8q-197 152 -420 152q-185 0 -341.5 -89z" />
    <glyph glyph-name="degree" unicode="&#xb0;" horiz-adv-x="655" 
d="M117.5 1126.5q33.5 56.5 90 90t122.5 33.5q67 0 123.5 -33t89.5 -90t33 -123q0 -67 -33 -123.5t-89.5 -89.5t-123.5 -33q-66 0 -123 33t-90 89.5t-33 123.5q0 66 33.5 122.5zM171 910q24 -42 65.5 -66.5t90.5 -24.5q50 0 92 24.5t66 66.5t24 91q0 50 -24 92t-65.5 66
t-92.5 24q-49 0 -90.5 -24.5t-65.5 -66t-24 -91.5q0 -49 24 -91z" />
    <glyph glyph-name="Ydieresis" unicode="&#x178;" horiz-adv-x="1126" 
d="M382 1681h61q24 0 24 -28v-54q0 -28 -24 -28h-60q-15 0 -20.5 6.5t-5.5 21.5v57q0 25 25 25zM692 1681h61q24 0 24 -28v-54q0 -28 -24 -28h-60q-15 0 -20.5 6.5t-5.5 21.5v57q0 25 25 25zM586 34q0 -34 -27 -34h-1q-14 0 -20.5 9.5t-6.5 24.5v616l-470 735q-5 8 -5 16
q0 11 7.5 18.5t16.5 7.5h3h2q10 0 21 -15l452 -706l453 705q7 11 12.5 13.5t10.5 2.5h3q9 0 16.5 -8t7.5 -19q0 -8 -5 -16l-470 -734v-616z" />
    <glyph glyph-name="Ccircumflex" unicode="&#x108;" horiz-adv-x="1402" 
d="M796 1834q10 0 20 -10l210 -210q11 -11 11 -23q0 -10 -8.5 -19t-18.5 -9q-12 0 -24 12l-190 190l-193 -192q-11 -11 -23 -11q-10 0 -17 7l-1 1q-8 8 -8 18q0 12 10 22l213 214q9 10 19 10zM1268 205q10 0 17 -7l2 -2q6 -6 6 -16q0 -16 -13 -26q-95 -81 -210 -125.5
t-243 -44.5q-200 0 -369 97.5t-268.5 265t-99.5 366.5q0 200 99 367t268.5 264.5t369.5 97.5q128 0 242.5 -43.5t211.5 -123.5q16 -15 16 -27q0 -3 -1.5 -6t-1.5 -4l-2 -4l-1 -1q-9 -9 -22 -9q-11 0 -22 8q-197 152 -420 152q-185 0 -341.5 -89t-247.5 -243t-91 -339
t91.5 -338.5t247.5 -243t341 -89.5q223 0 419 154q11 9 22 9z" />
    <glyph glyph-name="Cdotaccent" unicode="&#x10a;" horiz-adv-x="1402" 
d="M783 1684h61q24 0 24 -28v-54q0 -28 -24 -28h-60q-15 0 -20.5 6.5t-5.5 21.5v57q0 25 25 25zM1268 205q10 0 17 -7l2 -2q6 -6 6 -16q0 -16 -13 -26q-95 -81 -210 -125.5t-243 -44.5q-200 0 -369 97.5t-268.5 265t-99.5 366.5q0 200 99 367t268.5 264.5t369.5 97.5
q128 0 242.5 -43.5t211.5 -123.5q16 -15 16 -27q0 -3 -1.5 -6t-1.5 -4l-2 -4l-1 -1q-9 -9 -22 -9q-11 0 -22 8q-197 152 -420 152q-185 0 -341.5 -89t-247.5 -243t-91 -339t91.5 -338.5t247.5 -243t341 -89.5q223 0 419 154q11 9 22 9z" />
    <glyph glyph-name="Edotaccent" unicode="&#x116;" horiz-adv-x="1213" 
d="M654 1689h61q24 0 24 -28v-54q0 -28 -24 -28h-60q-15 0 -20.5 6.5t-5.5 21.5v57q0 25 25 25zM183 1427h928q32 0 32 -27v-1q0 -14 -8.5 -21t-23.5 -7h-901v-604h738q15 0 24.5 -6.5t9.5 -20.5v-1q0 -14 -9.5 -20.5t-24.5 -6.5h-738v-656h921q32 0 32 -27v-1
q0 -14 -8.5 -21t-23.5 -7h-948q-27 0 -27 28v1372q0 27 27 27z" />
    <glyph glyph-name="Eogonek" unicode="&#x118;" horiz-adv-x="1213" 
d="M1165.5 -244.5q7.5 -8.5 7.5 -23.5q0 -40 -19.5 -74t-54 -54.5t-77.5 -20.5q-42 0 -77 19.5t-55 54t-20 76.5q0 34 12 61t30 47.5t51 51.5l16 15l93 92h-889q-27 0 -27 28v1372q0 27 27 27h928q32 0 32 -27v-1q0 -14 -8.5 -21t-23.5 -7h-901v-604h738q15 0 24.5 -6.5
t9.5 -20.5v-1q0 -14 -9.5 -20.5t-24.5 -6.5h-738v-656h921q32 0 32 -27v-1v-2v-1q0 -2 -2 -10l-4 -5q-1 -2 -5 -6l-135 -132l-19 -18q-36 -34 -56.5 -61.5t-20.5 -58.5q0 -37 24.5 -68.5t73.5 -31.5q31 0 54 14.5t35 36.5t12 44q0 35 26 35q12 0 19.5 -8.5z" />
    <glyph glyph-name="Hcircumflex" unicode="&#x124;" horiz-adv-x="1493" 
d="M739 1838q10 0 20 -10l210 -210q11 -11 11 -23q0 -10 -8.5 -19t-18.5 -9q-12 0 -24 12l-190 190l-193 -192q-11 -11 -23 -11q-10 0 -17 7l-1 1q-8 8 -8 18q0 12 10 22l213 214q9 10 19 10zM208 683v-651q0 -32 -26 -32h-1q-27 0 -27 32v1363q0 32 27 32h1q26 0 26 -32
v-658h1033v658q0 32 27 32h1q26 0 26 -32v-1363q0 -32 -26 -32h-1q-27 0 -27 32v651h-1033z" />
    <glyph glyph-name="Ibreve" unicode="&#x12c;" 
d="M101 1591q-41 23 -64.5 61t-23.5 80q0 37 26 37h2q13 -1 18.5 -10.5t5.5 -26.5q0 -25 16 -52t45.5 -44.5t67.5 -17.5q34 0 64 18.5t47.5 46t17.5 51.5q0 35 25 35h3q25 -1 25 -36q0 -43 -24.5 -81t-67 -61t-92.5 -23t-91 23zM161 1418q7 9 20 9h1q26 0 26 -32v-1362
q0 -33 -26 -33h-1q-14 0 -20.5 9t-6.5 24v1362q0 14 7 23z" />
    <glyph glyph-name="Itilde" unicode="&#x128;" 
d="M-42 1580q-6 -4 -14 -4q-6 0 -17 8l-2 2q-8 8 -8 16q0 10 11 21q38 44 71 64t75 20q25 0 48 -10.5t59 -31.5q35 -21 58.5 -31.5t48.5 -10.5q23 0 41 13t40 37q14 15 23.5 22.5t18.5 7.5q11 0 17.5 -8t6.5 -16q0 -13 -11 -26q-33 -43 -68.5 -64t-77.5 -21
q-26 0 -50.5 11.5t-56.5 32.5q-33 20 -53.5 30t-43.5 10q-33 0 -53 -13.5t-48 -45.5q-9 -9 -15 -13zM161 1418q7 9 20 9h1q26 0 26 -32v-1362q0 -33 -26 -33h-1q-14 0 -20.5 9t-6.5 24v1362q0 14 7 23z" />
    <glyph glyph-name="IJ" unicode="&#x132;" horiz-adv-x="835" 
d="M611.5 1419q6.5 9 20.5 9h2q12 0 18.5 -10t6.5 -23v-1475q0 -83 -43 -154.5t-117 -114t-163 -42.5q-69 0 -127 21t-99 62q-20 20 -20 33q0 9 8 17l2 2q5 5 13 5q12 0 23 -11q70 -74 197 -74q79 0 141 38t96.5 98t34.5 124v1471q0 15 6.5 24zM188 1418q7 9 20 9h1
q26 0 26 -32v-1362q0 -33 -26 -33h-1q-14 0 -20.5 9t-6.5 24v1362q0 14 7 23z" />
    <glyph glyph-name="Jcircumflex" unicode="&#x134;" 
d="M235 1842q10 0 20 -10l210 -210q11 -11 11 -23q0 -10 -8.5 -19t-18.5 -9q-12 0 -24 12l-190 190l-193 -192q-11 -11 -23 -11q-10 0 -17 7l-1 1q-8 8 -8 18q0 12 10 22l213 214q9 10 19 10zM198.5 1419q6.5 9 20.5 9h2q12 0 18.5 -10t6.5 -23v-1475q0 -83 -43 -154.5
t-117 -114t-163 -42.5q-69 0 -127 21t-99 62q-20 20 -20 33q0 9 8 17l2 2q5 5 13 5q12 0 23 -11q70 -74 197 -74q79 0 141 38t96.5 98t34.5 124v1471q0 15 6.5 24z" />
    <glyph glyph-name="Scedilla" unicode="&#x15e;" horiz-adv-x="1256" 
d="M1069.5 171q-63.5 -90 -174 -136.5t-253.5 -52.5v-126q61 -10 102 -58.5t41 -109.5q0 -46 -22.5 -85t-61 -62t-84.5 -23q-12 0 -20 8t-8 20q0 11 8 18.5t19 7.5q49 0 82 34t33 82q0 43 -26.5 71.5t-70.5 40.5q-3 1 -15 3.5t-19.5 8t-7.5 12.5v157q-156 2 -273.5 52.5
t-213.5 165.5q-13 15 -13 27q0 11 8 19l2 2q7 4 15 4q14 0 30 -19q78 -97 187.5 -146.5t268.5 -49.5q135 0 241.5 36t170 115.5t63.5 203.5q0 107 -73.5 170.5t-165.5 91.5t-234 56q-165 30 -270.5 76t-158.5 115.5t-53 169.5q0 118 61.5 202t175 127.5t268.5 43.5
q137 0 237.5 -37t192.5 -126q9 -9 9 -22q0 -10 -6 -18l-2 -2q-8 -5 -17 -5q-8 0 -16 5t-19 15q-60 51 -109 79t-112.5 41.5t-157.5 13.5q-117 0 -218.5 -31t-166.5 -101.5t-65 -184.5q0 -131 119.5 -201.5t320.5 -108.5q160 -32 261 -64.5t177.5 -106t76.5 -198.5
q0 -130 -63.5 -220z" />
    <glyph glyph-name="Scircumflex" unicode="&#x15c;" horiz-adv-x="1256" 
d="M614 1840q10 0 20 -10l210 -210q11 -11 11 -23q0 -10 -8.5 -19t-18.5 -9q-12 0 -24 12l-190 190l-193 -192q-11 -11 -23 -11q-10 0 -17 7l-1 1q-8 8 -8 18q0 12 10 22l213 214q9 10 19 10zM92 226q0 11 8 19l2 2q7 4 15 4q14 0 30 -19q78 -97 187.5 -146.5t268.5 -49.5
q135 0 241.5 36t170 115.5t63.5 203.5q0 107 -73.5 170.5t-165.5 91.5t-234 56q-165 30 -270.5 76t-158.5 115.5t-53 169.5q0 118 61.5 202t175 127.5t268.5 43.5q137 0 237.5 -37t192.5 -126q9 -9 9 -22q0 -10 -6 -18l-2 -2q-8 -5 -17 -5q-8 0 -16 5t-19 15q-60 51 -109 79
t-112.5 41.5t-157.5 13.5q-117 0 -218.5 -31t-166.5 -101.5t-65 -184.5q0 -131 119.5 -201.5t320.5 -108.5q160 -32 261 -64.5t177.5 -106t76.5 -198.5q0 -136 -69 -228t-189 -137t-272 -45q-160 0 -280.5 50.5t-217.5 167.5q-13 15 -13 27z" />
    <glyph glyph-name="Wcircumflex" unicode="&#x174;" horiz-adv-x="1985" 
d="M989 1836q10 0 20 -10l210 -210q11 -11 11 -23q0 -10 -8.5 -19t-18.5 -9q-12 0 -24 12l-190 190l-193 -192q-11 -11 -23 -11q-10 0 -17 7l-1 1q-8 8 -8 18q0 12 10 22l213 214q9 10 19 10zM663 20q-5 -11 -12 -15.5t-13 -4.5h-3q-17 0 -25 20l-574 1368q-3 8 -3 13
q0 12 9 19t19 7h3q13 0 21 -19l551 -1317l548 1317q7 19 22 19h2q10 0 19.5 -7t9.5 -19q0 -5 -3 -13l-225 -541l318 -758l551 1319q7 19 21 19h3q10 0 19.5 -7.5t9.5 -19.5q0 -6 -3 -12l-574 -1368q-5 -11 -12 -15.5t-12 -4.5h-5q-6 0 -13 4.5t-12 15.5l-320 757z" />
    <glyph glyph-name="Wdieresis" unicode="&#x1e84;" horiz-adv-x="1985" 
d="M830 1680h61q24 0 24 -28v-54q0 -28 -24 -28h-60q-15 0 -20.5 6.5t-5.5 21.5v57q0 25 25 25zM1140 1680h61q24 0 24 -28v-54q0 -28 -24 -28h-60q-15 0 -20.5 6.5t-5.5 21.5v57q0 25 25 25zM663 20q-5 -11 -12 -15.5t-13 -4.5h-3q-17 0 -25 20l-574 1368q-3 8 -3 13
q0 12 9 19t19 7h3q13 0 21 -19l551 -1317l548 1317q7 19 22 19h2q10 0 19.5 -7t9.5 -19q0 -5 -3 -13l-225 -541l318 -758l551 1319q7 19 21 19h3q10 0 19.5 -7.5t9.5 -19.5q0 -6 -3 -12l-574 -1368q-5 -11 -12 -15.5t-12 -4.5h-5q-6 0 -13 4.5t-12 15.5l-320 757z" />
    <glyph glyph-name="Wgrave" unicode="&#x1e80;" horiz-adv-x="1985" 
d="M906 1818q0 11 8 18.5t19 8.5h2q7 0 12.5 -3.5t12.5 -16.5l128 -229q5 -13 5 -18q0 -11 -8.5 -17.5t-18.5 -7.5h-2q-14 0 -26 20l-127 228q-5 8 -5 17zM663 20q-5 -11 -12 -15.5t-13 -4.5h-3q-17 0 -25 20l-574 1368q-3 8 -3 13q0 12 9 19t19 7h3q13 0 21 -19l551 -1317
l548 1317q7 19 22 19h2q10 0 19.5 -7t9.5 -19q0 -5 -3 -13l-225 -541l318 -758l551 1319q7 19 21 19h3q10 0 19.5 -7.5t9.5 -19.5q0 -6 -3 -12l-574 -1368q-5 -11 -12 -15.5t-12 -4.5h-5q-6 0 -13 4.5t-12 15.5l-320 757z" />
    <glyph glyph-name="Ycircumflex" unicode="&#x176;" horiz-adv-x="1126" 
d="M560 1833q10 0 20 -10l210 -210q11 -11 11 -23q0 -10 -8.5 -19t-18.5 -9q-12 0 -24 12l-190 190l-193 -192q-11 -11 -23 -11q-10 0 -17 7l-1 1q-8 8 -8 18q0 12 10 22l213 214q9 10 19 10zM586 34q0 -34 -27 -34h-1q-14 0 -20.5 9.5t-6.5 24.5v616l-470 735q-5 8 -5 16
q0 11 7.5 18.5t16.5 7.5h3h2q10 0 21 -15l452 -706l453 705q7 11 12.5 13.5t10.5 2.5h3q9 0 16.5 -8t7.5 -19q0 -8 -5 -16l-470 -734v-616z" />
    <glyph glyph-name="Zdotaccent" unicode="&#x17b;" horiz-adv-x="1254" 
d="M618 1691h61q24 0 24 -28v-54q0 -28 -24 -28h-60q-15 0 -20.5 6.5t-5.5 21.5v57q0 25 25 25zM1156 1403v-5q-1 -6 -7 -16l-1024 -1328h979q31 0 31 -26v-1q0 -27 -31 -27h-1035q-27 0 -27 27v1q0 5 3 11l1030 1335l-962 -1q-34 0 -34 26v1q0 14 9 20.5t24 6.5l1017 2
q25 0 27 -26z" />
    <glyph glyph-name="Ubreve" unicode="&#x16c;" horiz-adv-x="1442" 
d="M626 1598q-41 23 -64.5 61t-23.5 80q0 37 26 37h2q13 -1 18.5 -10.5t5.5 -26.5q0 -25 16 -52t45.5 -44.5t67.5 -17.5q34 0 64 18.5t47.5 46t17.5 51.5q0 35 25 35h3q25 -1 25 -36q0 -43 -24.5 -81t-67 -61t-92.5 -23t-91 23zM261.5 294q70.5 -121 191.5 -191.5t266 -70.5
t266 70.5t191.5 191.5t70.5 266v836q0 15 7 23.5t21 8.5h1q26 0 26 -32v-845q0 -157 -78.5 -288.5t-212 -208.5t-292.5 -77t-292.5 78t-212 212t-78.5 293v838q0 30 28 30h1q26 0 26 -30v-838q0 -145 70.5 -266z" />
    <glyph glyph-name="Uogonek" unicode="&#x172;" horiz-adv-x="1442" 
d="M1302 1396v-845q0 -131 -55.5 -246t-153.5 -195l-2 -2l-135 -132l-19 -18q-36 -34 -56.5 -61.5t-20.5 -58.5q0 -37 24.5 -68.5t73.5 -31.5q31 0 54 14.5t35 36.5t12 44q0 35 26 35q12 0 19.5 -8.5t7.5 -23.5q0 -40 -19.5 -74t-54 -54.5t-77.5 -20.5q-42 0 -77 19.5
t-55 54t-20 76.5q0 34 11.5 60.5t29 47t50.5 51.5l16 15q-94 -34 -197 -34q-159 0 -292.5 78t-212 212t-78.5 293v838q0 30 28 30h1q26 0 26 -30v-838q0 -145 70.5 -266t191.5 -191.5t266 -70.5t266 70.5t191.5 191.5t70.5 266v836q0 15 7 23.5t21 8.5h1q26 0 26 -32z" />
    <glyph glyph-name="Uring" unicode="&#x16e;" horiz-adv-x="1442" 
d="M788.5 1829.5q35.5 -20.5 56.5 -56t21 -77.5t-21 -77t-56.5 -55.5t-77.5 -20.5t-77 20.5t-55.5 55.5t-20.5 77t20.5 77.5t55.5 56t77 20.5t77.5 -20.5zM636.5 1772.5q-29.5 -30.5 -29.5 -76.5t29.5 -75t74.5 -29q47 0 77.5 29t30.5 75t-30.5 76.5t-77.5 30.5
q-45 0 -74.5 -30.5zM261.5 294q70.5 -121 191.5 -191.5t266 -70.5t266 70.5t191.5 191.5t70.5 266v836q0 15 7 23.5t21 8.5h1q26 0 26 -32v-845q0 -157 -78.5 -288.5t-212 -208.5t-292.5 -77t-292.5 78t-212 212t-78.5 293v838q0 30 28 30h1q26 0 26 -30v-838
q0 -145 70.5 -266z" />
    <glyph glyph-name="Utilde" unicode="&#x168;" horiz-adv-x="1442" 
d="M524 1578q-6 -4 -14 -4q-6 0 -17 8l-2 2q-8 8 -8 16q0 10 11 21q38 44 71 64t75 20q25 0 48 -10.5t59 -31.5q35 -21 58.5 -31.5t48.5 -10.5q23 0 41 13t40 37q14 15 23.5 22.5t18.5 7.5q11 0 17.5 -8t6.5 -16q0 -13 -11 -26q-33 -43 -68.5 -64t-77.5 -21
q-26 0 -50.5 11.5t-56.5 32.5q-33 20 -53.5 30t-43.5 10q-33 0 -53 -13.5t-48 -45.5q-9 -9 -15 -13zM261.5 294q70.5 -121 191.5 -191.5t266 -70.5t266 70.5t191.5 191.5t70.5 266v836q0 15 7 23.5t21 8.5h1q26 0 26 -32v-845q0 -157 -78.5 -288.5t-212 -208.5t-292.5 -77
t-292.5 78t-212 212t-78.5 293v838q0 30 28 30h1q26 0 26 -30v-838q0 -145 70.5 -266z" />
    <glyph glyph-name="Lacute" unicode="&#x139;" horiz-adv-x="1112" 
d="M208 1564h-2q-10 1 -18.5 7.5t-8.5 17.5q0 8 5 18l128 229q7 13 12.5 16.5t12.5 3.5h2q10 -1 18.5 -8.5t8.5 -18.5q0 -9 -5 -17l-127 -228q-12 -20 -26 -20zM184 1427h1q26 0 26 -32v-1339h823q34 0 34 -26v-1q0 -14 -9.5 -21.5t-24.5 -7.5h-850q-27 0 -27 28v1367
q0 32 27 32z" />
    <glyph glyph-name="Lslash" unicode="&#x141;" horiz-adv-x="1112" 
d="M7 586q-7 -4 -18 -4q-16 0 -22 17q-2 6 -2 12q0 19 21 26l171 65v693q0 32 27 32h1q26 0 26 -32v-672l269 103l13 2q18 0 23 -15q2 -4 2 -9q0 -23 -18 -29l-289 -111v-607h823q34 0 34 -26v-1q0 -14 -9.5 -21.5t-24.5 -7.5h-850q-27 0 -27 28v614z" />
    <glyph glyph-name="lacute" unicode="&#x13a;" horiz-adv-x="419" 
d="M263 1663h-2q-10 1 -18.5 7.5t-8.5 17.5q0 8 5 18l128 229q7 13 12.5 16.5t12.5 3.5h2q10 -1 18.5 -8.5t8.5 -18.5q0 -9 -5 -17l-127 -228q-12 -20 -26 -20zM160.5 1573.5q6.5 9.5 20.5 9.5h1q14 0 20.5 -9.5t6.5 -24.5v-1516q0 -15 -6.5 -24t-20.5 -9h-1q-14 0 -20.5 9
t-6.5 24v1516q0 15 6.5 24.5z" />
    <glyph glyph-name="racute" unicode="&#x155;" horiz-adv-x="1041" 
d="M655 1372h-2q-10 1 -18.5 7.5t-8.5 17.5q0 8 5 18l128 229q7 13 12.5 16.5t12.5 3.5h2q10 -1 18.5 -8.5t8.5 -18.5q0 -9 -5 -17l-127 -228q-12 -20 -26 -20zM183 1226h1q26 0 26 -31v-255q36 89 110 150t162 90.5t170 29.5q69 0 146 -27.5t130.5 -64.5t53.5 -61
q0 -8 -4 -12l-1 -1q-9 -11 -22 -11q-11 0 -21 9q-136 113 -279 113q-103 0 -205 -48.5t-170.5 -156t-68.5 -272.5v-646q0 -32 -27 -32h-1q-27 0 -27 32v1163q0 31 27 31z" />
    <glyph glyph-name="tbar" unicode="&#x167;" horiz-adv-x="597" 
d="M525 1092v-1q0 -9 -7 -16.5t-18 -7.5h-233v-306h175q10 0 17 -7t7 -19v-1q0 -9 -6.5 -16t-17.5 -7h-175v-504q0 -61 32.5 -107.5t105.5 -46.5h39q37 0 37 -23v-2q0 -7 -5.5 -17.5t-25.5 -10.5q-58 0 -82 4q-76 12 -116 67t-40 132v508h-137q-28 0 -28 24v1q0 12 7.5 18.5
t20.5 6.5h137v306h-163q-28 0 -28 25t28 25h163v323q0 31 26 31h1q28 0 28 -31v-323h233q25 0 25 -25z" />
    <glyph glyph-name="tcaron" unicode="&#x165;" horiz-adv-x="597" 
d="M500 1117q25 0 25 -25v-1q0 -9 -7 -16.5t-18 -7.5h-233v-860q0 -61 32.5 -107.5t105.5 -46.5h39q37 0 37 -23v-2q0 -7 -5.5 -17.5t-25.5 -10.5q-58 0 -82 4q-76 12 -116 67t-40 132v864h-163q-28 0 -28 25t28 25h163v323q0 31 26 31h1q28 0 28 -31v-323h233zM505 1447.5
q5 5.5 15 5.5h61q17 0 17 -19v-73q0 -34 -10.5 -61t-24 -42t-21.5 -15q-6 0 -12 6l-13 12q-4 3 -4 9q0 5 4 9q13 14 20 31.5t7 31.5v11q0 8 -8 8h-16q-12 0 -16 4.5t-4 16.5v52q0 8 5 13.5z" />
    <glyph glyph-name="Tbar" unicode="&#x166;" horiz-adv-x="1202" 
d="M1147 1400v-1q0 -28 -26 -28h-483v-478h288q12 0 19.5 -7t7.5 -21v-1q0 -10 -8 -18t-19 -8h-288v-810q0 -28 -26 -28h-1q-28 0 -28 28v810h-278q-31 0 -31 27v1q0 27 31 27h278v478h-486q-28 0 -28 28v1q0 27 28 27h1024q26 0 26 -27z" />
    <glyph glyph-name="plusminus" unicode="&#xb1;" horiz-adv-x="954" 
d="M423 305v279h-276q-32 0 -32 27v1q0 27 32 27h276v310q0 12 7.5 20.5t20.5 8.5h1q10 0 18 -8.5t8 -20.5v-310h287q12 0 20.5 -7.5t8.5 -20.5v-1q0 -10 -8.5 -18t-20.5 -8h-287v-279q0 -32 -27 -32h-1q-27 0 -27 32zM138 7.5q-7 7.5 -7 19.5v1q0 28 28 28h618
q14 0 22 -7.5t8 -19.5v-2q0 -12 -8 -19.5t-22 -7.5h-618q-14 0 -21 7.5z" />
    <glyph glyph-name="fraction" unicode="&#x2044;" horiz-adv-x="888" 
d="M801 1423h1q14 0 20.5 -7.5t6.5 -17.5q0 -7 -5 -15l-744 -1373q-9 -10 -21 -10h-1q-12 2 -18.5 9.5t-6.5 17.5t5 17l741 1366q10 13 22 13z" />
    <glyph glyph-name="dotlessi" unicode="&#x131;" 
d="M197 1226h1q27 0 27 -31v-1163q0 -32 -27 -32h-1q-14 0 -21 8.5t-7 23.5v1163q0 31 28 31z" />
    <glyph glyph-name="guillemotright" unicode="&#xbb;" horiz-adv-x="1304" 
d="M688 525l-501 -495q-11 -11 -25 -11q-9 0 -14 5l-2 2q-9 9 -9 20q0 12 10 22l475 469l-475 469q-10 10 -10 22q0 11 9 20l2 2q5 5 14 5q14 0 25 -11l501 -495q7 -7 7 -12t-7 -12zM1142 525l-501 -495q-11 -11 -25 -11q-9 0 -14 5l-2 2q-9 9 -9 20q0 12 10 22l475 469
l-475 469q-10 10 -10 22q0 11 9 20l2 2q5 5 14 5q14 0 25 -11l501 -495q7 -7 7 -12t-7 -12z" />
    <glyph glyph-name="guillemotleft" unicode="&#xab;" horiz-adv-x="1296" 
d="M143 549l501 495q11 11 25 11q9 0 14 -5l2 -2q9 -9 9 -20q0 -12 -10 -22l-475 -469l475 -469q10 -10 10 -22q0 -11 -9 -20l-2 -2q-5 -5 -14 -5q-14 0 -25 11l-501 495q-7 7 -7 12t7 12zM597 549l501 495q11 11 25 11q9 0 14 -5l2 -2q9 -9 9 -20q0 -12 -10 -22l-475 -469
l475 -469q10 -10 10 -22q0 -11 -9 -20l-2 -2q-5 -5 -14 -5q-14 0 -25 11l-501 495q-7 7 -7 12t7 12z" />
    <glyph glyph-name="minus" unicode="&#x2212;" horiz-adv-x="1039" 
d="M174 631.5q-7 7.5 -7 19.5v1q0 28 28 28h618q14 0 22 -7.5t8 -19.5v-2q0 -12 -8 -19.5t-22 -7.5h-618q-14 0 -21 7.5z" />
    <glyph glyph-name="figuredash" unicode="&#x2012;" horiz-adv-x="1037" 
d="M196 699h660q12 0 19.5 -7t7.5 -21v-1q0 -10 -8 -18t-19 -8h-660q-31 0 -31 27v1q0 27 31 27z" />
    <glyph glyph-name="uni00AD" unicode="&#xad;" horiz-adv-x="1037" 
d="M196 699h660q12 0 19.5 -7t7.5 -21v-1q0 -10 -8 -18t-19 -8h-660q-31 0 -31 27v1q0 27 31 27z" />
    <glyph glyph-name="onedotenleader" unicode="&#x2024;" horiz-adv-x="465" 
d="M179.5 89q16.5 17 40.5 17t41 -17t17 -41t-17 -41t-41 -17t-40.5 17t-16.5 41t16.5 41z" />
    <glyph glyph-name="twodotenleader" unicode="&#x2025;" horiz-adv-x="876" 
d="M192 89q17 17 40 17q24 0 41 -17t17 -41t-17 -41t-41 -17q-23 0 -40 17t-17 41t17 41zM601 89q17 17 40 17q24 0 41 -17t17 -41t-17 -41t-41 -17q-23 0 -40 17t-17 41t17 41z" />
    <glyph glyph-name="exclamdbl" unicode="&#x203c;" horiz-adv-x="826" 
d="M187.5 1558.5q7.5 9.5 19.5 9.5h1q26 0 26 -32v-1163q0 -33 -24 -33h-3q-13 0 -20 8.5t-7 22.5v1165q0 13 7.5 22.5zM532.5 1558.5q7.5 9.5 19.5 9.5h1q26 0 26 -32v-1163q0 -33 -24 -33h-3q-13 0 -20 8.5t-7 22.5v1165q0 13 7.5 22.5zM183 73h49q8 0 10.5 -3t2.5 -11
v-47q0 -13 -13 -13h-49q-13 0 -13 13v47q0 14 13 14zM528 73h49q8 0 10.5 -3t2.5 -11v-47q0 -13 -13 -13h-49q-13 0 -13 13v47q0 14 13 14z" />
    <glyph glyph-name="Dcroat" unicode="&#x110;" horiz-adv-x="1482" 
d="M50 726h102v675q0 23 19 27h473q193 -4 356 -100.5t258.5 -259.5t95.5 -357q0 -195 -97.5 -358.5t-263.5 -258t-361 -94.5h-452q-28 0 -28 19v652h-102q-31 0 -31 27v1q0 27 31 27zM964.5 143q152.5 88 242.5 239t90 329q0 180 -90 332t-242.5 241t-332.5 89h-425v-647
h220q12 0 19.5 -7t7.5 -21v-1q0 -10 -8 -18t-19 -8h-220v-616h425q180 0 332.5 88z" />
    <glyph glyph-name="uni00B2" unicode="&#xb2;" horiz-adv-x="741" 
d="M112 653.5q-8 9.5 -8 20.5v3q0 17 18 35l359 340q40 39 58 72t18 72q0 53 -27.5 93.5t-73.5 62.5t-101 22q-53 0 -97 -24.5t-69.5 -68t-25.5 -96.5q0 -15 -9.5 -21t-16.5 -6h-2q-10 0 -18 7t-8 20q0 67 32.5 122.5t89 88t124.5 32.5q71 0 130 -29t94 -81.5t35 -120.5
q0 -54 -20 -95.5t-47 -65.5l-362 -338h428q12 0 19.5 -6.5t7.5 -17.5v-4q0 -10 -8 -18t-19 -8h-481q-12 0 -20 9.5z" />
    <glyph glyph-name="uni00B3" unicode="&#xb3;" horiz-adv-x="680" 
d="M436.5 1147q40.5 34 40.5 91q0 59 -41 97t-102 38q-60 0 -98.5 -37t-38.5 -97q0 -11 -8 -20t-21 -9h-3q-13 0 -20 9t-7 22q0 54 26.5 96.5t71.5 66t98 23.5q54 0 99.5 -24t72.5 -67t27 -97q0 -49 -22 -87.5t-61 -62.5q65 -33 101.5 -89t36.5 -129q0 -69 -34 -124
t-92.5 -86t-127.5 -31t-126.5 32t-91 88.5t-33.5 125.5q0 13 9 20t17 7h2q13 0 20 -8t7 -19q0 -54 26.5 -98t71 -69t98.5 -25t100 24.5t73 67.5t27 96t-27 95.5t-73 67t-100 24.5q-11 0 -19.5 7t-8.5 19v3q0 11 9 18t19 7q62 0 102.5 34z" />
    <glyph glyph-name="uni00B9" unicode="&#xb9;" horiz-adv-x="405" 
d="M214 1421.5q6 -6.5 6 -17.5v-737q0 -26 -25 -26h-3q-11 0 -18.5 7t-7.5 19v690l-45 -19q-6 -2 -12 -2q-19 0 -25 16l-1 3l-2 9q0 19 16 26l79 34q7 4 21 4h2q9 0 15 -6.5z" />
    <glyph glyph-name="ordmasculine" unicode="&#xba;" horiz-adv-x="1031" 
d="M177.5 1272.5q48.5 82.5 130.5 130.5t179 48t179 -48t130 -130.5t48 -179.5q0 -106 -50 -187.5t-132.5 -125t-174.5 -43.5q-97 0 -179 48t-130.5 129.5t-48.5 178.5t48.5 179.5zM227 942.5q41 -68.5 110 -108.5t150 -40q82 0 151 39.5t109 108t40 151.5q0 80 -40.5 149
t-109.5 110t-150 41t-150 -41t-110 -110t-41 -149q0 -82 41 -150.5z" />
    <glyph glyph-name="ordfeminine" unicode="&#xaa;" horiz-adv-x="975" 
d="M694.5 808.5q-37.5 -34.5 -92 -53t-135.5 -18.5q-97 0 -179.5 48t-130.5 129.5t-48 178.5t48 179.5t130.5 130.5t179.5 48q95 0 174 -45.5t128 -123.5v120q0 13 8 21t22 8h1q11 0 18.5 -8.5t7.5 -20.5l8 -629q0 -11 -9.5 -20.5t-20.5 -9.5h-2q-14 0 -23.5 9t-9.5 22v126
q-37 -57 -74.5 -91.5zM206 942q41 -69 110.5 -108.5t150.5 -39.5t150 39.5t109 108.5t40 151q0 80 -40.5 149t-109 110t-149.5 41t-150.5 -41t-110.5 -110t-41 -149q0 -82 41 -151z" />
    <glyph glyph-name="onequarter" unicode="&#xbc;" horiz-adv-x="1348" 
d="M232 1421.5q6 -6.5 6 -17.5v-737q0 -26 -25 -26h-3q-11 0 -18.5 7t-7.5 19v690l-45 -19q-6 -2 -12 -2q-19 0 -25 16l-1 3l-2 9q0 19 16 26l79 34q7 4 21 4h2q9 0 15 -6.5zM965 1423h1q14 0 20.5 -7.5t6.5 -17.5q0 -7 -5 -15l-744 -1373q-9 -10 -21 -10h-1
q-12 2 -18.5 9.5t-6.5 17.5t5 17l741 1366q10 13 22 13zM769 171q0 13 13 30l381 560q16 26 34 26h2q21 0 21 -26v-557h61q10 0 19.5 -6.5t9.5 -18.5v-2q0 -13 -8.5 -19.5t-20.5 -6.5h-61v-122q0 -13 -8 -21t-17 -8h-3q-9 0 -17.5 8t-8.5 21v122h-367q-30 0 -30 20z
M1166 668l-316 -464h316v464z" />
    <glyph glyph-name="onehalf" unicode="&#xbd;" horiz-adv-x="1513" 
d="M272 1421.5q6 -6.5 6 -17.5v-737q0 -26 -25 -26h-3q-11 0 -18.5 7t-7.5 19v690l-45 -19q-6 -2 -12 -2q-19 0 -25 16l-1 3l-2 9q0 19 16 26l79 34q7 4 21 4h2q9 0 15 -6.5zM1037 1423h1q14 0 20.5 -7.5t6.5 -17.5q0 -7 -5 -15l-744 -1373q-9 -10 -21 -10h-1
q-12 2 -18.5 9.5t-6.5 17.5t5 17l741 1366q10 13 22 13zM927 10.5q-8 9.5 -8 20.5v3q0 17 18 35l359 340q40 39 58 72t18 72q0 53 -27.5 93.5t-73.5 62.5t-101 22q-53 0 -97 -24.5t-69.5 -68t-25.5 -96.5q0 -15 -9.5 -21t-16.5 -6h-2q-10 0 -18 7t-8 20q0 67 32.5 122.5
t89 88t124.5 32.5q71 0 130 -29t94 -81.5t35 -120.5q0 -54 -20 -95.5t-47 -65.5l-362 -338h428q12 0 19.5 -6.5t7.5 -17.5v-4q0 -10 -8 -18t-19 -8h-481q-12 0 -20 9.5z" />
    <glyph glyph-name="threequarters" unicode="&#xbe;" horiz-adv-x="1369" 
d="M427.5 1147q40.5 34 40.5 91q0 59 -41 97t-102 38q-60 0 -98.5 -37t-38.5 -97q0 -11 -8 -20t-21 -9h-3q-13 0 -20 9t-7 22q0 54 26.5 96.5t71.5 66t98 23.5q54 0 99.5 -24t72.5 -67t27 -97q0 -49 -22 -87.5t-61 -62.5q65 -33 101.5 -89t36.5 -129q0 -69 -34 -124
t-92.5 -86t-127.5 -31t-126.5 32t-91 88.5t-33.5 125.5q0 13 9 20t17 7h2q13 0 20 -8t7 -19q0 -54 26.5 -98t71 -69t98.5 -25t100 24.5t73 67.5t27 96t-27 95.5t-73 67t-100 24.5q-11 0 -19.5 7t-8.5 19v3q0 11 9 18t19 7q62 0 102.5 34zM1111 1423h1q14 0 20.5 -7.5
t6.5 -17.5q0 -7 -5 -15l-744 -1373q-9 -10 -21 -10h-1q-12 2 -18.5 9.5t-6.5 17.5t5 17l741 1366q10 13 22 13zM752 170q0 13 13 30l381 560q16 26 34 26h2q21 0 21 -26v-557h61q10 0 19.5 -6.5t9.5 -18.5v-2q0 -13 -8.5 -19.5t-20.5 -6.5h-61v-122q0 -13 -8 -21t-17 -8h-3
q-9 0 -17.5 8t-8.5 21v122h-367q-30 0 -30 20zM1149 667l-316 -464h316v464z" />
    <glyph glyph-name="logicalnot" unicode="&#xac;" horiz-adv-x="1054" 
d="M110 693l-1 7q0 2 -0.5 2.5t-0.5 2.5q0 11 8.5 17t21.5 6h700q15 0 21.5 -6t6.5 -22v-339q0 -27 -22 -27h-6q-27 0 -27 27v312h-673q-25 0 -28 20z" />
    <glyph glyph-name="divide" unicode="&#xf7;" horiz-adv-x="983" 
d="M447.5 1202.5q3.5 5.5 10.5 5.5h62l7 -1l7 -5q0 -4 2 -6v-1l1 -3v-58q0 -18 -14 -18h-68h-1q-10 0 -10 13v61q0 7 3.5 12.5zM159 631.5q-7 7.5 -7 19.5v1q0 28 28 28h618q14 0 22 -7.5t8 -19.5v-2q0 -12 -8 -19.5t-22 -7.5h-618q-14 0 -21 7.5zM445 79q1 3 1 5l4 5l4 2
q1 1 7 1h61l3 -1l6 -3q6 -6 6 -16v-58q0 -5 -4 -9.5t-10 -4.5h-65q-14 0 -14 13v61q0 2 1 5z" />
    <glyph glyph-name="uni2070" unicode="&#x2070;" horiz-adv-x="937" 
d="M137 1241.5q54 93.5 145.5 148.5t200.5 55q110 0 204.5 -55t150 -148.5t55.5 -203.5q0 -109 -55.5 -201.5t-150 -147t-204.5 -54.5q-109 0 -200.5 54.5t-145.5 147t-54 201.5q0 110 54 203.5zM184.5 863q46.5 -80 125.5 -127t173 -47q96 0 177.5 47t129 127.5t47.5 174.5
t-48 175t-129 128.5t-177 47.5q-94 0 -173 -47.5t-125.5 -128t-46.5 -175.5t46.5 -175z" />
    <glyph glyph-name="multiply" unicode="&#xd7;" horiz-adv-x="864" 
d="M169 439q0 12 12 24l217 217l-216 216q-13 10 -13 24q0 9 9 18l1 1q8 8 18 8t24 -12l216 -216l219 219q11 9 22 9t19 -8v-1q6 -6 6 -18q0 -13 -8 -21l-219 -219l220 -220q9 -10 9 -22q0 -11 -8 -19h-1q-7 -7 -18 -7q-12 0 -21 9l-220 220l-217 -217q-13 -13 -24 -13
q-9 0 -18 9l-1 1q-8 8 -8 18z" />
    <glyph glyph-name="copyright" unicode="&#xa9;" horiz-adv-x="1657" 
d="M196 1078q98 168 265.5 266.5t365.5 98.5q197 0 364.5 -98.5t266.5 -266.5t99 -366q0 -197 -99 -364t-266.5 -265t-364.5 -98q-198 0 -365.5 97.5t-265.5 264.5t-98 365t98 366zM244.5 376.5q91.5 -154.5 246.5 -246t336 -91.5t336.5 91.5t247.5 246t92 335.5
q0 182 -92 337.5t-247.5 247t-336.5 91.5t-336 -91.5t-246.5 -247t-91.5 -337.5q0 -181 91.5 -335.5zM1128 1024q0 -9 -3 -12l-3 -4q-6 -8 -19 -8t-26 10q-105 76 -217 76q-100 0 -186.5 -50.5t-137.5 -136t-51 -185.5q0 -97 48.5 -183t133 -138.5t187.5 -53.5
q60 0 119.5 20.5t105.5 60.5q6 6 18 6q15 0 19 -7l3 -4q4 -4 4 -16t-7 -19q-51 -45 -118 -70t-141 -25q-116 0 -213.5 57.5t-155 156t-57.5 215.5q0 116 57.5 213.5t155.5 155t215 57.5q72 0 137.5 -23t119.5 -68q12 -10 12 -25z" />
    <glyph glyph-name="registered" unicode="&#xae;" horiz-adv-x="1686" 
d="M210.5 1074q97.5 167 264.5 264.5t364 97.5t363.5 -97.5t264 -264.5t97.5 -365q0 -197 -97.5 -363t-264 -263.5t-363.5 -97.5t-364 97.5t-264.5 263.5t-97.5 363q0 198 97.5 365zM260.5 376.5q90.5 -153.5 244.5 -244t334 -90.5q179 0 333 90.5t244.5 244t90.5 332.5
q0 180 -90.5 334t-244 244.5t-333.5 90.5t-334 -90.5t-244.5 -244.5t-90.5 -334q0 -179 90.5 -332.5zM902 624h-272v-292q0 -12 -8.5 -19t-18.5 -7h-1q-12 0 -19.5 7t-7.5 19v785q0 15 16 15h311q69 0 127.5 -34t92.5 -92.5t34 -127.5q0 -79 -43.5 -143.5t-114.5 -92.5
l137 -290q3 -6 3 -11q0 -10 -8 -18.5t-19 -8.5h-1q-4 0 -11.5 3t-12.5 9l-143 301q-21 -3 -41 -3zM630 678h249q63 0 113.5 24t79.5 69.5t29 106.5t-29 106.5t-79.5 69.5t-113.5 24h-249v-400z" />
    <glyph glyph-name="B" unicode="B" horiz-adv-x="1284" 
d="M183 1427h574q100 0 184 -47.5t133.5 -129.5t49.5 -182q0 -105 -54 -187t-146 -130q75 -22 137 -80t98 -137t36 -162q0 -96 -48 -180.5t-130 -136t-178 -55.5h-656q-27 0 -27 28v1372q0 27 27 27zM210 766h547q85 0 157 39.5t114.5 108t42.5 153.5q0 84 -42.5 154
t-114.5 110.5t-157 40.5h-547v-606zM210 55h631q100 0 167.5 53t100 126.5t32.5 135.5q0 98 -50 176t-123 121.5t-139 43.5h-619v-656z" />
    <glyph glyph-name="G" unicode="G" horiz-adv-x="1425" 
d="M1050 78.5q107 39.5 198 106.5v419q0 15 7 23.5t21 8.5q27 0 27 -32v-424q0 -20 -13 -32q-92 -76 -213 -120t-247 -44q-199 0 -368 97.5t-267.5 264.5t-98.5 366q0 200 98.5 367.5t267.5 265t368 97.5q128 0 243.5 -43.5t211.5 -122.5q15 -14 15 -26q0 -10 -5 -15l-1 -1
q-9 -9 -21 -9q-11 0 -22 8q-196 150 -421 150q-185 0 -340.5 -89t-246 -243t-90.5 -339q0 -184 90.5 -338.5t246 -244.5t340.5 -90q113 0 220 39.5z" />
    <glyph glyph-name="quotesinglbase" unicode="&#x201a;" horiz-adv-x="411" 
d="M155.5 99.5q5.5 6.5 17.5 6.5h73q20 0 20 -22v-79q0 -31 -9.5 -59t-23.5 -45t-24 -17q-4 0 -8 4l-17 14q-3 3 -3 7q0 7 6 16l8 12q6 9 11.5 19t5.5 18q0 11 -2.5 14t-11.5 3h-25q-14 0 -18.5 6t-4.5 19v68q0 9 5.5 15.5z" />
    <glyph glyph-name="quotedblbase" unicode="&#x201e;" horiz-adv-x="582" 
d="M146.5 99.5q5.5 6.5 17.5 6.5h73q20 0 20 -22v-79q0 -31 -9.5 -59t-23.5 -45t-24 -17q-4 0 -8 4l-17 14q-3 3 -3 7q0 7 6 16l8 12q6 9 11.5 19t5.5 18q0 11 -2.5 14t-11.5 3h-25q-14 0 -18.5 6t-4.5 19v68q0 9 5.5 15.5zM336.5 99.5q5.5 6.5 17.5 6.5h73q20 0 20 -22v-79
q0 -31 -9.5 -59t-23.5 -45t-24 -17q-4 0 -8 4l-17 14q-3 3 -3 7q0 7 6 16l8 12q6 9 11.5 19t5.5 18q0 11 -2.5 14t-11.5 3h-25q-14 0 -18.5 6t-4.5 19v68q0 9 5.5 15.5z" />
    <glyph glyph-name="guilsinglleft" unicode="&#x2039;" horiz-adv-x="797" 
d="M93 549l501 495q11 11 25 11q9 0 14 -5l2 -2q9 -9 9 -20q0 -12 -10 -22l-475 -469l475 -469q10 -10 10 -22q0 -11 -9 -20l-2 -2q-5 -5 -14 -5q-14 0 -25 11l-501 495q-7 7 -7 12t7 12z" />
    <glyph glyph-name="Ccaron" unicode="&#x10c;" horiz-adv-x="1402" 
d="M826 1563q-10 0 -19 9l-213 213q-10 10 -10 23q0 10 8 18l1 1q7 7 16 7q13 0 24 -11l193 -193l194 193q11 11 23 11q10 0 17 -7l1 -1q8 -8 8 -18q0 -13 -10 -23l-212 -212q-10 -10 -21 -10zM1268 205q10 0 17 -7l2 -2q6 -6 6 -16q0 -16 -13 -26q-95 -81 -210 -125.5
t-243 -44.5q-200 0 -369 97.5t-268.5 265t-99.5 366.5q0 200 99 367t268.5 264.5t369.5 97.5q128 0 242.5 -43.5t211.5 -123.5q16 -15 16 -27q0 -3 -1.5 -6t-1.5 -4l-2 -4l-1 -1q-9 -9 -22 -9q-11 0 -22 8q-197 152 -420 152q-185 0 -341.5 -89t-247.5 -243t-91 -339
t91.5 -338.5t247.5 -243t341 -89.5q223 0 419 154q11 9 22 9z" />
    <glyph glyph-name="Dcaron" unicode="&#x10e;" horiz-adv-x="1482" 
d="M606 1565q-10 0 -19 9l-213 213q-10 10 -10 23q0 10 8 18l1 1q7 7 16 7q13 0 24 -11l193 -193l194 193q11 11 23 11q10 0 17 -7l1 -1q8 -8 8 -18q0 -13 -10 -23l-212 -212q-10 -10 -21 -10zM184 1427h431q206 0 376 -96.5t268 -260.5t98 -358q0 -193 -98 -356.5
t-268 -259.5t-376 -96h-434q-24 2 -24 28v1372q0 27 27 27zM1210 1043.5q-91 151.5 -249 239.5t-350 88h-400v-1315h400q192 0 350 87.5t249 238t91 330.5t-91 331.5z" />
    <glyph glyph-name="Ecaron" unicode="&#x11a;" horiz-adv-x="1213" 
d="M688 1566q-10 0 -19 9l-213 213q-10 10 -10 23q0 10 8 18l1 1q7 7 16 7q13 0 24 -11l193 -193l194 193q11 11 23 11q10 0 17 -7l1 -1q8 -8 8 -18q0 -13 -10 -23l-212 -212q-10 -10 -21 -10zM183 1427h928q32 0 32 -27v-1q0 -14 -8.5 -21t-23.5 -7h-901v-604h738
q15 0 24.5 -6.5t9.5 -20.5v-1q0 -14 -9.5 -20.5t-24.5 -6.5h-738v-656h921q32 0 32 -27v-1q0 -14 -8.5 -21t-23.5 -7h-948q-27 0 -27 28v1372q0 27 27 27z" />
    <glyph glyph-name="Idotaccent" unicode="&#x130;" 
d="M155 1694h61q24 0 24 -28v-54q0 -28 -24 -28h-60q-15 0 -20.5 6.5t-5.5 21.5v57q0 25 25 25zM161 1418q7 9 20 9h1q26 0 26 -32v-1362q0 -33 -26 -33h-1q-14 0 -20.5 9t-6.5 24v1362q0 14 7 23z" />
    <glyph glyph-name="Ncaron" unicode="&#x147;" horiz-adv-x="1493" 
d="M805 1534q-10 0 -19 9l-213 213q-10 10 -10 23q0 10 8 18l1 1q7 7 16 7q13 0 24 -11l193 -193l194 193q11 11 23 11q10 0 17 -7l1 -1q8 -8 8 -18q0 -13 -10 -23l-212 -212q-10 -10 -21 -10zM208 33q0 -33 -26 -33h-1q-14 0 -20.5 9t-6.5 24v1367q0 10 6.5 18t19.5 9h5
q14 0 30 -19l1053 -1308v1300q0 27 28 27h1q26 0 26 -27v-1367q0 -33 -26 -33h-6q-13 0 -29 18l-1054 1311v-1296z" />
    <glyph glyph-name="Rcaron" unicode="&#x158;" horiz-adv-x="1279" 
d="M603 1574q-10 0 -19 9l-213 213q-10 10 -10 23q0 10 8 18l1 1q7 7 16 7q13 0 24 -11l193 -193l194 193q11 11 23 11q10 0 17 -7l1 -1q8 -8 8 -18q0 -13 -10 -23l-212 -212q-10 -10 -21 -10zM722 540h-516v-512q0 -28 -26 -28h-1q-27 0 -27 28v1372q0 27 27 27h543
q120 0 222 -60t161.5 -162.5t59.5 -222.5q0 -133 -71.5 -241t-188.5 -162l224 -541q2 -8 2 -10q0 -11 -8.5 -19.5t-18.5 -8.5h-3q-7 0 -15 4.5t-13 15.5l-224 538q-60 -18 -127 -18zM206 596h516q107 0 196 51.5t140 140t51 194.5q0 107 -51 196.5t-140 141.5t-196 52h-516
v-776z" />
    <glyph glyph-name="Tcaron" unicode="&#x164;" horiz-adv-x="1202" 
d="M609 1575q-10 0 -19 9l-213 213q-10 10 -10 23q0 10 8 18l1 1q7 7 16 7q13 0 24 -11l193 -193l194 193q11 11 23 11q10 0 17 -7l1 -1q8 -8 8 -18q0 -13 -10 -23l-212 -212q-10 -10 -21 -10zM97 1427h1024q26 0 26 -27v-1q0 -28 -26 -28h-483v-1343q0 -28 -26 -28h-1
q-28 0 -28 28v1343h-486q-28 0 -28 28v1q0 27 28 27z" />
    <glyph glyph-name="at" unicode="@" horiz-adv-x="1849" 
d="M1324 176.5q22 -35.5 60 -55t84 -19.5q201 0 211 358q6 201 -77 392.5t-245.5 313t-382.5 121.5q-226 0 -412 -111.5t-293 -302.5t-107 -419q0 -226 111.5 -413t302.5 -295.5t418 -108.5q123 0 222.5 32t186.5 94q8 6 19 6q13 0 20 -7.5t7 -17.5q0 -13 -13 -23
q-82 -61 -199 -99t-243 -38q-241 0 -444.5 115.5t-322.5 315t-119 439.5q0 242 114.5 445.5t313 322.5t438.5 119t413.5 -123t262.5 -325.5t89 -436.5q0 -149 -56.5 -278.5t-225.5 -129.5q-52 0 -100.5 23t-78 63.5t-29.5 88.5v42q-47 -104 -139 -164t-211 -60
q-113 0 -207 53.5t-149 148t-55 212.5t55 220t149.5 162.5t206.5 60.5q117 0 209.5 -67.5t140.5 -179.5v225q0 11 7.5 18t17.5 7h1q11 0 19 -7t8 -18v-618q0 -46 22 -81.5zM1191.5 650.5q-42.5 88.5 -119 140.5t-174.5 52t-180 -52t-130 -141.5t-48 -194.5
q0 -104 47.5 -186.5t129.5 -128.5t181 -46t175 46t118.5 128t42.5 187q0 107 -42.5 195.5z" />
    <glyph glyph-name="O" unicode="O" horiz-adv-x="1657" 
d="M183 1079.5q99 167.5 267.5 265.5t367.5 98q200 0 366 -98t262.5 -265.5t96.5 -367.5q0 -199 -96.5 -366t-262.5 -264t-366 -97t-368.5 97t-267 264t-98.5 366q0 200 99 367.5zM233 374.5q90 -153.5 245 -242.5t340 -89t338 89t241 242t88 338q0 186 -88 340t-241 243
t-338 89t-340 -89.5t-245 -243.5t-90 -339q0 -184 90 -337.5z" />
    <glyph glyph-name="Q" unicode="Q" horiz-adv-x="1657" 
d="M183 1079.5q99 167.5 267.5 265.5t367.5 98q200 0 366 -98t262.5 -265.5t96.5 -367.5q0 -195 -92 -359t-251.5 -262.5t-352.5 -104.5v-199q0 -33 -26 -33h-1q-14 0 -21 9t-7 24v199q-194 6 -356.5 104.5t-257 263t-94.5 358.5q0 200 99 367.5zM233 374.5
q90 -153.5 245 -242.5t340 -89t338 89t241 242t88 338q0 186 -88 340t-241 243t-338 89t-340 -89.5t-245 -243.5t-90 -339q0 -184 90 -337.5z" />
    <glyph glyph-name="a" unicode="a" horiz-adv-x="1503" 
d="M1351 0h-1q-27 0 -27 33v318q-50 -110 -139 -196t-203 -134t-238 -48q-162 0 -307.5 85.5t-234 230.5t-88.5 314t88.5 315.5t234 233t307.5 86.5q123 0 237 -48.5t203.5 -135.5t139.5 -198v338q0 15 6.5 24t20.5 9h1q27 0 27 -33v-1161q0 -33 -27 -33zM1239.5 891.5
q-83.5 133.5 -218 212.5t-279.5 79q-148 0 -280.5 -78.5t-213 -212t-80.5 -289.5q0 -154 80.5 -286t213 -210.5t280.5 -78.5q155 0 289 78t213 210t79 287t-83.5 288.5z" />
    <glyph glyph-name="b" unicode="b" horiz-adv-x="1515" 
d="M164 1573.5q7 8.5 21 8.5h1q26 0 26 -32v-695q50 112 140 199t206.5 135.5t242.5 48.5q166 0 309 -86t228 -232.5t85 -316.5q0 -169 -86.5 -314t-230.5 -230.5t-305 -85.5q-127 0 -243 48t-206 134t-140 196v-319q0 -32 -26 -32h-1q-14 0 -21 8.5t-7 23.5v1518
q0 15 7 23.5zM293 316.5q81 -132.5 217 -210.5t292 -78q147 0 277.5 78t209 210.5t78.5 286.5q0 157 -77 290.5t-207 211.5t-281 78q-158 0 -293.5 -78t-216 -211.5t-80.5 -290.5q0 -154 81 -286.5z" />
    <glyph glyph-name="d" unicode="d" horiz-adv-x="1503" 
d="M1371 8.5q-7 -8.5 -21 -8.5h-1q-26 0 -26 32v321q-49 -111 -136 -197t-198 -134.5t-229 -48.5q-180 0 -327.5 85t-232.5 229.5t-85 315.5t85.5 317t232 232t318.5 86q125 0 238 -48t199.5 -134.5t134.5 -198.5v694q0 32 26 32h1q14 0 21 -8.5t7 -23.5v-1519
q0 -15 -7 -23.5zM1246 893.5q-77 133.5 -208.5 211.5t-287.5 78q-154 0 -287.5 -78.5t-213 -211.5t-79.5 -290q0 -156 78 -288t213 -209.5t298 -77.5q147 0 277 78t208.5 210.5t78.5 286.5q0 157 -77 290.5z" />
    <glyph glyph-name="e" unicode="e" horiz-adv-x="1452" 
d="M143 602q0 -154 77.5 -286.5t209.5 -211t287 -78.5q95 0 168 22t121.5 52t105.5 75q11 9 24 9q9 0 15 -6l2 -2q6 -6 6 -15q0 -14 -12 -25q-88 -75 -193.5 -119t-236.5 -44q-170 0 -314.5 85t-229.5 229.5t-85 314.5t85 316.5t229 233t313 86.5q175 0 321 -89.5
t230 -228.5t84 -279v-4q0 -27 -28 -27h-1179v-8zM447 1113q-125 -70 -205 -189t-96 -260h1149q-8 118 -85 239t-207 200.5t-288 79.5q-143 0 -268 -70z" />
    <glyph glyph-name="f" unicode="f" horiz-adv-x="720" 
d="M65 1051q-28 0 -28 26v1q0 12 7.5 17.5t20.5 5.5h223v152q0 123 45.5 209.5t127.5 130.5t191 44q20 0 26 -10.5t6 -18.5v-2q0 -7 -7 -16t-29 -9q-99 0 -167.5 -41.5t-103 -115.5t-34.5 -171v-152h274q28 0 28 -23v-1q0 -26 -28 -26h-274v-1019q0 -32 -27 -32h-1
q-27 0 -27 32v1019h-223z" />
    <glyph glyph-name="g" unicode="g" horiz-adv-x="1521" 
d="M1327.5 -75.5q-66.5 -138.5 -175 -221.5t-233.5 -99q-44 -6 -92 -6q-57 0 -137 12t-138.5 33.5t-58.5 48.5q0 9 4 13l2 3l4.5 5.5t17.5 5.5q9 0 22 -6q56 -28 130.5 -43t152.5 -15q97 0 168 21q92 27 171.5 107t127 199t47.5 258l-2 118q-48 -110 -133.5 -192.5
t-198.5 -127.5t-243 -45q-165 0 -310.5 77.5t-234.5 219.5t-89 324q0 165 87.5 309t233.5 229.5t313 85.5q120 0 233 -48t202 -133t139 -194v331q0 15 7.5 23.5t21.5 8.5q28 0 28 -32v-955q0 -176 -66.5 -314.5zM1236.5 923.5q-82.5 118.5 -208 189t-266.5 70.5
q-162 0 -294 -77.5t-208 -208.5t-76 -283q0 -175 81.5 -303.5t214 -196t282.5 -67.5q153 0 279 68.5t204 186t92 257.5v109q-18 137 -100.5 255.5z" />
    <glyph glyph-name="h" unicode="h" horiz-adv-x="1306" 
d="M1085 938q-52 103 -149.5 170.5t-227.5 67.5q-110 0 -221.5 -58t-184 -155.5t-72.5 -209.5v-720q0 -15 -6.5 -24t-20.5 -9h-1q-14 0 -20.5 9t-6.5 24v1516q0 15 6.5 24.5t20.5 9.5h1q14 0 20.5 -9.5t6.5 -24.5v-604q46 82 121.5 147.5t170 102.5t195.5 37
q140 0 248.5 -72t167.5 -187t59 -238v-702q0 -15 -6.5 -24t-20.5 -9h-1q-14 0 -20.5 9t-6.5 24v699q0 103 -52 206z" />
    <glyph glyph-name="i" unicode="i" 
d="M171 1563h49q19 0 19 -22v-44q0 -22 -19 -22h-48q-12 0 -16.5 5t-4.5 17v46q0 20 20 20zM197 1226h1q27 0 27 -31v-1163q0 -32 -27 -32h-1q-14 0 -21 8.5t-7 23.5v1163q0 31 28 31z" />
    <glyph glyph-name="j" unicode="j" 
d="M195 1563h49q19 0 19 -22v-44q0 -22 -19 -22h-48q-12 0 -16.5 5t-4.5 17v46q0 20 20 20zM224 1226h1q26 0 26 -31v-1213q0 -91 -39.5 -178.5t-122 -145.5t-203.5 -58q-21 0 -27 9.5t-6 17.5v2q0 7 7.5 16t29.5 9q103 0 171.5 46.5t101.5 121.5t33 161v1212q0 31 28 31z
" />
    <glyph glyph-name="k" unicode="k" horiz-adv-x="1223" 
d="M1103 46q8 -10 8 -19q0 -11 -8 -18.5t-18 -8.5q-9 0 -15.5 2.5t-16.5 14.5l-566 738l-274 -250v-471q0 -34 -26 -34h-1q-14 0 -20.5 9.5t-6.5 24.5v1518q0 31 27 31h1q26 0 26 -31v-973l692 633q10 9 15.5 11t12.5 2q10 0 19 -8t9 -21q0 -10 -9 -19l-425 -385z" />
    <glyph glyph-name="l" unicode="l" horiz-adv-x="419" 
d="M160.5 1573.5q6.5 9.5 20.5 9.5h1q14 0 20.5 -9.5t6.5 -24.5v-1516q0 -15 -6.5 -24t-20.5 -9h-1q-14 0 -20.5 9t-6.5 24v1516q0 15 6.5 24.5z" />
    <glyph glyph-name="m" unicode="m" horiz-adv-x="2014" 
d="M184 0h-1q-26 0 -26 31v1163q0 32 26 32h1q26 0 26 -32l1 -185q39 74 103 123t136.5 72.5t140.5 23.5q163 0 260 -85.5t140 -210.5q28 82 82.5 149t135.5 107t184 40q138 0 235 -70t145.5 -175.5t48.5 -208.5v-742q0 -32 -25 -32h-1q-14 0 -21.5 8.5t-7.5 23.5v742
q0 87 -39.5 179t-124 155t-211.5 63q-123 0 -207.5 -63t-125.5 -155t-41 -178v-744q0 -31 -26 -31h-1q-28 0 -28 31v760q0 83 -40 171.5t-124.5 149.5t-209.5 61q-76 0 -163.5 -37.5t-150.5 -123t-63 -220.5v-761q0 -31 -28 -31z" />
    <glyph glyph-name="n" unicode="n" horiz-adv-x="1306" 
d="M200 0h-1q-26 0 -26 31v1163q0 32 26 32h1q26 0 26 -32l2 -229q45 86 119.5 149t161 96t168.5 33q154 0 270 -74t178 -193t62 -250v-695q0 -31 -26 -31h-1q-28 0 -28 31v695q0 113 -56.5 220t-160.5 174.5t-240 67.5q-96 0 -200.5 -54t-175.5 -156t-71 -239v-708
q0 -31 -28 -31z" />
    <glyph glyph-name="o" unicode="o" horiz-adv-x="1438" 
d="M179.5 925q83.5 145 226.5 229.5t313 84.5q172 0 319.5 -85t234.5 -229.5t87 -315.5q0 -170 -87 -316.5t-234 -233t-318 -86.5q-169 0 -313 86.5t-228 233t-84 316.5q0 171 83.5 316zM227.5 320q76.5 -134 207.5 -213t286 -79q162 0 296 79t211 212.5t77 289.5t-79.5 288
t-214 209.5t-292.5 77.5q-155 0 -285.5 -77t-206.5 -209t-76 -289q0 -155 76.5 -289z" />
    <glyph glyph-name="p" unicode="p" horiz-adv-x="1505" 
d="M164 1217.5q7 8.5 21 8.5h1q26 0 26 -32v-329q49 110 137 194t202.5 130.5t239.5 46.5q162 0 308 -84t234.5 -227t88.5 -311q0 -172 -83.5 -319t-228.5 -234.5t-319 -87.5q-128 0 -242 48.5t-200.5 135t-136.5 197.5v-726q0 -32 -26 -32h-1q-14 0 -21 8.5t-7 23.5v1566
q0 15 7 23.5zM286.5 320.5q74.5 -134.5 207 -213.5t298.5 -79q155 0 287.5 79.5t210 214.5t77.5 292q0 153 -80.5 284t-213.5 208t-281 77q-157 0 -290.5 -76.5t-211.5 -207t-78 -285.5q0 -159 74.5 -293.5z" />
    <glyph glyph-name="q" unicode="q" horiz-adv-x="1494" 
d="M1341 -389.5q-7 -8.5 -21 -8.5h-1q-26 0 -26 32v720q-50 -111 -136.5 -197.5t-200.5 -135t-242 -48.5q-174 0 -319 87.5t-228.5 234.5t-83.5 319q0 168 88.5 311t234.5 227t308 84q125 0 238.5 -46.5t201.5 -130.5t139 -194v329q0 32 26 32h1q14 0 21 -8.5t7 -23.5v-1560
q0 -15 -7 -23.5zM1215 899.5q-78 130.5 -211.5 207t-290.5 76.5q-148 0 -281 -77t-213.5 -208t-80.5 -284q0 -157 77.5 -292t210 -214.5t287.5 -79.5q166 0 298.5 79t207 213.5t74.5 293.5q0 155 -78 285.5z" />
    <glyph glyph-name="r" unicode="r" horiz-adv-x="1041" 
d="M183 1226h1q26 0 26 -31v-255q36 89 110 150t162 90.5t170 29.5q69 0 146 -27.5t130.5 -64.5t53.5 -61q0 -8 -4 -12l-1 -1q-9 -11 -22 -11q-11 0 -21 9q-136 113 -279 113q-103 0 -205 -48.5t-170.5 -156t-68.5 -272.5v-646q0 -32 -27 -32h-1q-27 0 -27 32v1163
q0 31 27 31z" />
    <glyph glyph-name="s" unicode="s" horiz-adv-x="1008" 
d="M258 16q-91 47 -136 119.5t-45 146.5q0 24 16 30l3 1q6 2 10 2q12 0 20 -11t9 -27q5 -78 51 -135.5t122 -87.5t171 -30q77 0 155 25.5t132.5 87.5t54.5 164q0 130 -93.5 198.5t-251.5 107.5q-114 27 -193.5 64t-126.5 99.5t-47 157.5q0 84 41.5 155t124 113.5t197.5 42.5
q93 0 176.5 -41.5t137 -110.5t61.5 -148v-8q0 -20 -10 -24q-5 -3 -12 -3q-10 0 -18.5 6t-10.5 18q-9 72 -57 131t-119.5 92t-147.5 33q-89 0 -159 -32.5t-109.5 -90.5t-39.5 -133q0 -119 93.5 -178.5t223.5 -86.5q395 -87 395 -362q0 -115 -61 -189.5t-152 -108.5t-184 -34
q-130 0 -221 47z" />
    <glyph glyph-name="t" unicode="t" horiz-adv-x="597" 
d="M500 1117q25 0 25 -25v-1q0 -9 -7 -16.5t-18 -7.5h-233v-860q0 -61 32.5 -107.5t105.5 -46.5h39q37 0 37 -23v-2q0 -7 -5.5 -17.5t-25.5 -10.5q-58 0 -82 4q-76 12 -116 67t-40 132v864h-163q-28 0 -28 25t28 25h163v323q0 31 26 31h1q28 0 28 -31v-323h233z" />
    <glyph glyph-name="u" unicode="u" horiz-adv-x="1300" 
d="M1163 1226h1q26 0 26 -31v-1163q0 -32 -26 -32h-1q-26 0 -26 32l-2 200q-46 -80 -121 -140.5t-163 -92.5t-171 -32q-156 0 -278 76.5t-189 202t-67 266.5v683q0 31 26 31h1q28 0 28 -31v-683q0 -142 65 -254t174.5 -174t236.5 -62q106 0 212.5 54t176 152.5t69.5 225.5
v741q0 31 28 31z" />
    <glyph glyph-name="v" unicode="v" horiz-adv-x="1129" 
d="M582.5 3.5q-7.5 -4.5 -12.5 -4.5h-4q-6 0 -13 4.5t-12 15.5l-500 1168q-3 8 -3 13q0 11 9.5 18t19.5 7q17 0 24 -18l477 -1119l472 1118q7 18 24 18q10 0 19.5 -7t9.5 -19q0 -6 -3 -12l-495 -1167q-5 -11 -12.5 -15.5z" />
    <glyph glyph-name="w" unicode="w" horiz-adv-x="1826" 
d="M1253.5 3.5q-7.5 -4.5 -12.5 -4.5h-5q-16 2 -24 20l-305 744l-315 -744q-5 -11 -12.5 -15.5t-12.5 -4.5h-5q-16 2 -24 20l-500 1169q-3 8 -3 13q0 11 9.5 18t19.5 7q17 0 24 -18l477 -1120l472 1120q7 18 24 18q10 0 19.5 -7t9.5 -19q0 -6 -3 -12l-153 -360l305 -739
l472 1119q7 18 24 18q10 0 19.5 -7t9.5 -19q0 -6 -3 -12l-495 -1169q-5 -11 -12.5 -15.5z" />
    <glyph glyph-name="y" unicode="y" horiz-adv-x="1129" 
d="M406.5 -397.5q-7.5 -4.5 -12.5 -4.5q-11 0 -19 6.5t-8 19.5q0 9 4 17l157 382l-489 1164q-3 6 -3 12q0 12 9.5 19.5t19.5 7.5q16 0 24 -19l467 -1117l467 1114q9 22 24 22q12 0 20.5 -7t8.5 -19q0 -7 -3 -16l-654 -1565q-5 -12 -12.5 -16.5z" />
    <glyph glyph-name="z" unicode="z" horiz-adv-x="1137" 
d="M938.5 1217.5q9.5 -8.5 9.5 -19.5q0 -9 -6 -18l-756 -1125h730q33 0 33 -26q0 -18 -11.5 -23.5t-21.5 -5.5h-780q-11 0 -19.5 8t-8.5 19q0 9 10 25l749 1119h-688q-15 0 -24 6.5t-9 20.5q0 18 11 23t22 5h740q10 0 19.5 -8.5z" />
    <glyph glyph-name="c" unicode="c" horiz-adv-x="1213" 
d="M1125 184q11 0 17.5 -8t6.5 -18q0 -15 -13 -25q-195 -160 -421 -160q-171 0 -318 86t-233.5 232t-86.5 316q0 176 89 321t234.5 227.5t306.5 82.5q106 0 222 -42.5t199 -117.5q12 -10 12 -23q0 -12 -7 -20t-20 -8q-10 0 -19 9q-79 73 -179.5 110t-196.5 37
q-152 0 -287 -75t-217 -207t-82 -294q0 -156 79 -289t213 -211.5t290 -78.5q122 0 215 39t173 108q11 9 23 9z" />
    <glyph glyph-name="Obreve" unicode="&#x14e;" horiz-adv-x="1657" 
d="M723 1594q-41 23 -64.5 61t-23.5 80q0 37 26 37h2q13 -1 18.5 -10.5t5.5 -26.5q0 -25 16 -52t45.5 -44.5t67.5 -17.5q34 0 64 18.5t47.5 46t17.5 51.5q0 35 25 35h3q25 -1 25 -36q0 -43 -24.5 -81t-67 -61t-92.5 -23t-91 23zM183 1079.5q99 167.5 267.5 265.5t367.5 98
q200 0 366 -98t262.5 -265.5t96.5 -367.5q0 -199 -96.5 -366t-262.5 -264t-366 -97t-368.5 97t-267 264t-98.5 366q0 200 99 367.5zM233 374.5q90 -153.5 245 -242.5t340 -89t338 89t241 242t88 338q0 186 -88 340t-241 243t-338 89t-340 -89.5t-245 -243.5t-90 -339
q0 -184 90 -337.5z" />
    <glyph glyph-name="Ocircumflex" unicode="&#xd4;" horiz-adv-x="1657" 
d="M817 1843q10 0 20 -10l210 -210q11 -11 11 -23q0 -10 -8.5 -19t-18.5 -9q-12 0 -24 12l-190 190l-193 -192q-11 -11 -23 -11q-10 0 -17 7l-1 1q-8 8 -8 18q0 12 10 22l213 214q9 10 19 10zM183 1079.5q99 167.5 267.5 265.5t367.5 98q200 0 366 -98t262.5 -265.5
t96.5 -367.5q0 -199 -96.5 -366t-262.5 -264t-366 -97t-368.5 97t-267 264t-98.5 366q0 200 99 367.5zM233 374.5q90 -153.5 245 -242.5t340 -89t338 89t241 242t88 338q0 186 -88 340t-241 243t-338 89t-340 -89.5t-245 -243.5t-90 -339q0 -184 90 -337.5z" />
    <glyph glyph-name="Odieresis" unicode="&#xd6;" horiz-adv-x="1657" 
d="M617 1689h61q24 0 24 -28v-54q0 -28 -24 -28h-60q-15 0 -20.5 6.5t-5.5 21.5v57q0 25 25 25zM927 1689h61q24 0 24 -28v-54q0 -28 -24 -28h-60q-15 0 -20.5 6.5t-5.5 21.5v57q0 25 25 25zM183 1079.5q99 167.5 267.5 265.5t367.5 98q200 0 366 -98t262.5 -265.5
t96.5 -367.5q0 -199 -96.5 -366t-262.5 -264t-366 -97t-368.5 97t-267 264t-98.5 366q0 200 99 367.5zM233 374.5q90 -153.5 245 -242.5t340 -89t338 89t241 242t88 338q0 186 -88 340t-241 243t-338 89t-340 -89.5t-245 -243.5t-90 -339q0 -184 90 -337.5z" />
    <glyph glyph-name="Ohungarumlaut" unicode="&#x150;" horiz-adv-x="1657" 
d="M675 1572h-2q-10 1 -18.5 7.5t-8.5 17.5q0 8 5 18l128 229q7 13 12.5 16.5t12.5 3.5h2q10 -1 18.5 -8.5t8.5 -18.5q0 -9 -5 -17l-127 -228q-12 -20 -26 -20zM1004 1572h-2q-10 1 -18.5 7.5t-8.5 17.5q0 8 5 18l128 229q7 13 12.5 16.5t12.5 3.5h2q11 -1 19 -8.5t8 -18.5
q0 -5 -5 -17l-127 -228q-12 -20 -26 -20zM183 1079.5q99 167.5 267.5 265.5t367.5 98q200 0 366 -98t262.5 -265.5t96.5 -367.5q0 -199 -96.5 -366t-262.5 -264t-366 -97t-368.5 97t-267 264t-98.5 366q0 200 99 367.5zM233 374.5q90 -153.5 245 -242.5t340 -89t338 89
t241 242t88 338q0 186 -88 340t-241 243t-338 89t-340 -89.5t-245 -243.5t-90 -339q0 -184 90 -337.5z" />
    <glyph glyph-name="aring" unicode="&#xe5;" horiz-adv-x="1503" 
d="M815.5 1659.5q35.5 -20.5 56.5 -56t21 -77.5t-21 -77t-56.5 -55.5t-77.5 -20.5t-77 20.5t-55.5 55.5t-20.5 77t20.5 77.5t55.5 56t77 20.5t77.5 -20.5zM663.5 1602.5q-29.5 -30.5 -29.5 -76.5t29.5 -75t74.5 -29q47 0 77.5 29t30.5 75t-30.5 76.5t-77.5 30.5
q-45 0 -74.5 -30.5zM1351 0h-1q-27 0 -27 33v318q-50 -110 -139 -196t-203 -134t-238 -48q-162 0 -307.5 85.5t-234 230.5t-88.5 314t88.5 315.5t234 233t307.5 86.5q123 0 237 -48.5t203.5 -135.5t139.5 -198v338q0 15 6.5 24t20.5 9h1q27 0 27 -33v-1161q0 -33 -27 -33z
M1239.5 891.5q-83.5 133.5 -218 212.5t-279.5 79q-148 0 -280.5 -78.5t-213 -212t-80.5 -289.5q0 -154 80.5 -286t213 -210.5t280.5 -78.5q155 0 289 78t213 210t79 287t-83.5 288.5z" />
    <glyph glyph-name="aogonek" unicode="&#x105;" horiz-adv-x="1503" 
d="M1380.5 -247.5q7.5 -8.5 7.5 -23.5q0 -40 -19.5 -74t-54 -54.5t-77.5 -20.5q-42 0 -77 19.5t-55 54t-20 76.5q0 34 12 61t30 47.5t51 51.5l16 15l129 127v1v318q-50 -110 -139 -196t-203 -134t-238 -48q-162 0 -307.5 85.5t-234 230.5t-88.5 314t88.5 315.5t234 233
t307.5 86.5q123 0 237 -48.5t203.5 -135.5t139.5 -198v338q0 15 6.5 24t20.5 9h1q27 0 27 -33v-1161v-7v-4q0 -10 -11 -21l-135 -132l-19 -18q-36 -34 -56.5 -61.5t-20.5 -58.5q0 -37 24.5 -68.5t73.5 -31.5q31 0 54 14.5t35 36.5t12 44q0 35 26 35q12 0 19.5 -8.5z
M1031 106q134 78 213 210t79 287t-83.5 288.5t-218 212.5t-279.5 79q-148 0 -280.5 -78.5t-213 -212t-80.5 -289.5q0 -154 80.5 -286t213 -210.5t280.5 -78.5q155 0 289 78z" />
    <glyph glyph-name="atilde" unicode="&#xe3;" horiz-adv-x="1503" 
d="M519 1414q-6 -4 -14 -4q-6 0 -17 8l-2 2q-8 8 -8 16q0 10 11 21q38 44 71 64t75 20q25 0 48 -10.5t59 -31.5q35 -21 58.5 -31.5t48.5 -10.5q23 0 41 13t40 37q14 15 23.5 22.5t18.5 7.5q11 0 17.5 -8t6.5 -16q0 -13 -11 -26q-33 -43 -68.5 -64t-77.5 -21
q-26 0 -50.5 11.5t-56.5 32.5q-33 20 -53.5 30t-43.5 10q-33 0 -53 -13.5t-48 -45.5q-9 -9 -15 -13zM1351 0h-1q-27 0 -27 33v318q-50 -110 -139 -196t-203 -134t-238 -48q-162 0 -307.5 85.5t-234 230.5t-88.5 314t88.5 315.5t234 233t307.5 86.5q123 0 237 -48.5
t203.5 -135.5t139.5 -198v338q0 15 6.5 24t20.5 9h1q27 0 27 -33v-1161q0 -33 -27 -33zM1239.5 891.5q-83.5 133.5 -218 212.5t-279.5 79q-148 0 -280.5 -78.5t-213 -212t-80.5 -289.5q0 -154 80.5 -286t213 -210.5t280.5 -78.5q155 0 289 78t213 210t79 287t-83.5 288.5z
" />
    <glyph glyph-name="yacute" unicode="&#xfd;" horiz-adv-x="1129" 
d="M625 1329h-2q-10 1 -18.5 7.5t-8.5 17.5q0 8 5 18l128 229q7 13 12.5 16.5t12.5 3.5h2q10 -1 18.5 -8.5t8.5 -18.5q0 -9 -5 -17l-127 -228q-12 -20 -26 -20zM406.5 -397.5q-7.5 -4.5 -12.5 -4.5q-11 0 -19 6.5t-8 19.5q0 9 4 17l157 382l-489 1164q-3 6 -3 12
q0 12 9.5 19.5t19.5 7.5q16 0 24 -19l467 -1117l467 1114q9 22 24 22q12 0 20.5 -7t8.5 -19q0 -7 -3 -16l-654 -1565q-5 -12 -12.5 -16.5z" />
    <glyph glyph-name="ygrave" unicode="&#x1ef3;" horiz-adv-x="1129" 
d="M411 1617q0 11 8 18.5t19 8.5h2q7 0 12.5 -3.5t12.5 -16.5l128 -229q5 -13 5 -18q0 -11 -8.5 -17.5t-18.5 -7.5h-2q-14 0 -26 20l-127 228q-5 8 -5 17zM406.5 -397.5q-7.5 -4.5 -12.5 -4.5q-11 0 -19 6.5t-8 19.5q0 9 4 17l157 382l-489 1164q-3 6 -3 12q0 12 9.5 19.5
t19.5 7.5q16 0 24 -19l467 -1117l467 1114q9 22 24 22q12 0 20.5 -7t8.5 -19q0 -7 -3 -16l-654 -1565q-5 -12 -12.5 -16.5z" />
    <glyph glyph-name="zacute" unicode="&#x17a;" horiz-adv-x="1137" 
d="M609 1353h-2q-10 1 -18.5 7.5t-8.5 17.5q0 8 5 18l128 229q7 13 12.5 16.5t12.5 3.5h2q10 -1 18.5 -8.5t8.5 -18.5q0 -9 -5 -17l-127 -228q-12 -20 -26 -20zM938.5 1217.5q9.5 -8.5 9.5 -19.5q0 -9 -6 -18l-756 -1125h730q33 0 33 -26q0 -18 -11.5 -23.5t-21.5 -5.5h-780
q-11 0 -19.5 8t-8.5 19q0 9 10 25l749 1119h-688q-15 0 -24 6.5t-9 20.5q0 18 11 23t22 5h740q10 0 19.5 -8.5z" />
    <glyph glyph-name="sacute" unicode="&#x15b;" horiz-adv-x="1008" 
d="M535 1372h-2q-10 1 -18.5 7.5t-8.5 17.5q0 8 5 18l128 229q7 13 12.5 16.5t12.5 3.5h2q10 -1 18.5 -8.5t8.5 -18.5q0 -9 -5 -17l-127 -228q-12 -20 -26 -20zM258 16q-91 47 -136 119.5t-45 146.5q0 24 16 30l3 1q6 2 10 2q12 0 20 -11t9 -27q5 -78 51 -135.5t122 -87.5
t171 -30q77 0 155 25.5t132.5 87.5t54.5 164q0 130 -93.5 198.5t-251.5 107.5q-114 27 -193.5 64t-126.5 99.5t-47 157.5q0 84 41.5 155t124 113.5t197.5 42.5q93 0 176.5 -41.5t137 -110.5t61.5 -148v-8q0 -20 -10 -24q-5 -3 -12 -3q-10 0 -18.5 6t-10.5 18q-9 72 -57 131
t-119.5 92t-147.5 33q-89 0 -159 -32.5t-109.5 -90.5t-39.5 -133q0 -119 93.5 -178.5t223.5 -86.5q395 -87 395 -362q0 -115 -61 -189.5t-152 -108.5t-184 -34q-130 0 -221 47z" />
    <glyph glyph-name="dcaron" unicode="&#x10f;" horiz-adv-x="1503" 
d="M1371 8.5q-7 -8.5 -21 -8.5h-1q-26 0 -26 32v321q-49 -111 -136 -197t-198 -134.5t-229 -48.5q-180 0 -327.5 85t-232.5 229.5t-85 315.5t85.5 317t232 232t318.5 86q125 0 238 -48t199.5 -134.5t134.5 -198.5v694q0 32 26 32h1q14 0 21 -8.5t7 -23.5v-1519
q0 -15 -7 -23.5zM1431 1576.5q5 5.5 15 5.5h61q17 0 17 -19v-73q0 -34 -10.5 -61t-24 -42t-21.5 -15q-6 0 -12 6l-13 12q-4 3 -4 9q0 5 4 9q13 14 20 31.5t7 31.5v11q0 8 -8 8h-16q-12 0 -16 4.5t-4 16.5v52q0 8 5 13.5zM1246 893.5q-77 133.5 -208.5 211.5t-287.5 78
q-154 0 -287.5 -78.5t-213 -211.5t-79.5 -290q0 -156 78 -288t213 -209.5t298 -77.5q147 0 277 78t208.5 210.5t78.5 286.5q0 157 -77 290.5z" />
    <glyph glyph-name="dcroat" unicode="&#x111;" horiz-adv-x="1503" 
d="M1514.5 1386q7.5 -7 7.5 -21v-1q0 -10 -8 -18t-19 -8h-117v-1306q0 -15 -7 -23.5t-21 -8.5h-1q-26 0 -26 32v321q-49 -111 -136 -197t-198 -134.5t-229 -48.5q-180 0 -327.5 85t-232.5 229.5t-85 315.5t85.5 317t232 232t318.5 86q125 0 238 -48t199.5 -134.5
t134.5 -198.5v481h-240q-31 0 -31 27v1q0 27 31 27h240v158q0 32 26 32h1q14 0 21 -8.5t7 -23.5v-158h117q12 0 19.5 -7zM1036 106q130 78 208.5 210.5t78.5 286.5q0 157 -77 290.5t-208.5 211.5t-287.5 78q-154 0 -287.5 -78.5t-213 -211.5t-79.5 -290q0 -156 78 -288
t213 -209.5t298 -77.5q147 0 277 78z" />
    <glyph glyph-name="hbar" unicode="&#x127;" horiz-adv-x="1306" 
d="M965.5 1160q108.5 -72 167.5 -187t59 -238v-702q0 -15 -6.5 -24t-20.5 -9h-1q-14 0 -20.5 9t-6.5 24v699q0 103 -52 206t-149.5 170.5t-227.5 67.5q-110 0 -221.5 -58t-184 -155.5t-72.5 -209.5v-720q0 -15 -6.5 -24t-20.5 -9h-1q-14 0 -20.5 9t-6.5 24v1342h-104
q-28 0 -28 24t28 24h104v126q0 15 6.5 24.5t20.5 9.5h1q14 0 20.5 -9.5t6.5 -24.5v-126h240q10 0 17.5 -6.5t7.5 -17.5v-1q0 -9 -7 -16t-18 -7h-240v-430q46 82 121.5 147.5t170 102.5t195.5 37q140 0 248.5 -72z" />
    <glyph glyph-name="hcircumflex" unicode="&#x125;" horiz-adv-x="1306" 
d="M675 1664q10 0 20 -10l210 -210q11 -11 11 -23q0 -10 -8.5 -19t-18.5 -9q-12 0 -24 12l-190 190l-193 -192q-11 -11 -23 -11q-10 0 -17 7l-1 1q-8 8 -8 18q0 12 10 22l213 214q9 10 19 10zM1085 938q-52 103 -149.5 170.5t-227.5 67.5q-110 0 -221.5 -58t-184 -155.5
t-72.5 -209.5v-720q0 -15 -6.5 -24t-20.5 -9h-1q-14 0 -20.5 9t-6.5 24v1516q0 15 6.5 24.5t20.5 9.5h1q14 0 20.5 -9.5t6.5 -24.5v-604q46 82 121.5 147.5t170 102.5t195.5 37q140 0 248.5 -72t167.5 -187t59 -238v-702q0 -15 -6.5 -24t-20.5 -9h-1q-14 0 -20.5 9t-6.5 24
v699q0 103 -52 206z" />
    <glyph glyph-name="uacute" unicode="&#xfa;" horiz-adv-x="1300" 
d="M714 1325h-2q-10 1 -18.5 7.5t-8.5 17.5q0 8 5 18l128 229q7 13 12.5 16.5t12.5 3.5h2q10 -1 18.5 -8.5t8.5 -18.5q0 -9 -5 -17l-127 -228q-12 -20 -26 -20zM1163 1226h1q26 0 26 -31v-1163q0 -32 -26 -32h-1q-26 0 -26 32l-2 200q-46 -80 -121 -140.5t-163 -92.5
t-171 -32q-156 0 -278 76.5t-189 202t-67 266.5v683q0 31 26 31h1q28 0 28 -31v-683q0 -142 65 -254t174.5 -174t236.5 -62q106 0 212.5 54t176 152.5t69.5 225.5v741q0 31 28 31z" />
    <glyph glyph-name="ugrave" unicode="&#xf9;" horiz-adv-x="1300" 
d="M539 1597q0 11 8 18.5t19 8.5h2q7 0 12.5 -3.5t12.5 -16.5l128 -229q5 -13 5 -18q0 -11 -8.5 -17.5t-18.5 -7.5h-2q-14 0 -26 20l-127 228q-5 8 -5 17zM1163 1226h1q26 0 26 -31v-1163q0 -32 -26 -32h-1q-26 0 -26 32l-2 200q-46 -80 -121 -140.5t-163 -92.5t-171 -32
q-156 0 -278 76.5t-189 202t-67 266.5v683q0 31 26 31h1q28 0 28 -31v-683q0 -142 65 -254t174.5 -174t236.5 -62q106 0 212.5 54t176 152.5t69.5 225.5v741q0 31 28 31z" />
    <glyph glyph-name="uogonek" unicode="&#x173;" horiz-adv-x="1300" 
d="M1191.5 -246.5q7.5 -8.5 7.5 -23.5q0 -40 -19.5 -74t-54 -54.5t-77.5 -20.5q-42 0 -77 19.5t-55 54t-20 76.5q0 34 12 61t30 47.5t51 51.5l16 15l132 130l-2 196q-46 -80 -121 -140.5t-163 -92.5t-171 -32q-156 0 -278 76.5t-189 202t-67 266.5v683q0 31 26 31h1
q28 0 28 -31v-683q0 -142 65 -254t174.5 -174t236.5 -62q106 0 212.5 54t176 152.5t69.5 225.5v741q0 31 28 31h1q26 0 26 -31v-1163q0 -18 -8 -26l-4 -4l-135 -132l-19 -18q-36 -34 -56.5 -61.5t-20.5 -58.5q0 -37 24.5 -68.5t73.5 -31.5q31 0 54 14.5t35 36.5t12 44
q0 35 26 35q12 0 19.5 -8.5z" />
    <glyph glyph-name="wacute" unicode="&#x1e83;" horiz-adv-x="1826" 
d="M1016 1355h-2q-10 1 -18.5 7.5t-8.5 17.5q0 8 5 18l128 229q7 13 12.5 16.5t12.5 3.5h2q10 -1 18.5 -8.5t8.5 -18.5q0 -9 -5 -17l-127 -228q-12 -20 -26 -20zM1253.5 3.5q-7.5 -4.5 -12.5 -4.5h-5q-16 2 -24 20l-305 744l-315 -744q-5 -11 -12.5 -15.5t-12.5 -4.5h-5
q-16 2 -24 20l-500 1169q-3 8 -3 13q0 11 9.5 18t19.5 7q17 0 24 -18l477 -1120l472 1120q7 18 24 18q10 0 19.5 -7t9.5 -19q0 -6 -3 -12l-153 -360l305 -739l472 1119q7 18 24 18q10 0 19.5 -7t9.5 -19q0 -6 -3 -12l-495 -1169q-5 -11 -12.5 -15.5z" />
    <glyph glyph-name="wgrave" unicode="&#x1e81;" horiz-adv-x="1826" 
d="M806 1620q0 11 8 18.5t19 8.5h2q7 0 12.5 -3.5t12.5 -16.5l128 -229q5 -13 5 -18q0 -11 -8.5 -17.5t-18.5 -7.5h-2q-14 0 -26 20l-127 228q-5 8 -5 17zM1253.5 3.5q-7.5 -4.5 -12.5 -4.5h-5q-16 2 -24 20l-305 744l-315 -744q-5 -11 -12.5 -15.5t-12.5 -4.5h-5
q-16 2 -24 20l-500 1169q-3 8 -3 13q0 11 9.5 18t19.5 7q17 0 24 -18l477 -1120l472 1120q7 18 24 18q10 0 19.5 -7t9.5 -19q0 -6 -3 -12l-153 -360l305 -739l472 1119q7 18 24 18q10 0 19.5 -7t9.5 -19q0 -6 -3 -12l-495 -1169q-5 -11 -12.5 -15.5z" />
    <glyph glyph-name="oacute" unicode="&#xf3;" horiz-adv-x="1438" 
d="M773 1371h-2q-10 1 -18.5 7.5t-8.5 17.5q0 8 5 18l128 229q7 13 12.5 16.5t12.5 3.5h2q10 -1 18.5 -8.5t8.5 -18.5q0 -9 -5 -17l-127 -228q-12 -20 -26 -20zM179.5 925q83.5 145 226.5 229.5t313 84.5q172 0 319.5 -85t234.5 -229.5t87 -315.5q0 -170 -87 -316.5
t-234 -233t-318 -86.5q-169 0 -313 86.5t-228 233t-84 316.5q0 171 83.5 316zM227.5 320q76.5 -134 207.5 -213t286 -79q162 0 296 79t211 212.5t77 289.5t-79.5 288t-214 209.5t-292.5 77.5q-155 0 -285.5 -77t-206.5 -209t-76 -289q0 -155 76.5 -289z" />
    <glyph glyph-name="obreve" unicode="&#x14f;" horiz-adv-x="1438" 
d="M646 1420q-41 23 -64.5 61t-23.5 80q0 37 26 37h2q13 -1 18.5 -10.5t5.5 -26.5q0 -25 16 -52t45.5 -44.5t67.5 -17.5q34 0 64 18.5t47.5 46t17.5 51.5q0 35 25 35h3q25 -1 25 -36q0 -43 -24.5 -81t-67 -61t-92.5 -23t-91 23zM179.5 925q83.5 145 226.5 229.5t313 84.5
q172 0 319.5 -85t234.5 -229.5t87 -315.5q0 -170 -87 -316.5t-234 -233t-318 -86.5q-169 0 -313 86.5t-228 233t-84 316.5q0 171 83.5 316zM227.5 320q76.5 -134 207.5 -213t286 -79q162 0 296 79t211 212.5t77 289.5t-79.5 288t-214 209.5t-292.5 77.5q-155 0 -285.5 -77
t-206.5 -209t-76 -289q0 -155 76.5 -289z" />
    <glyph glyph-name="ocircumflex" unicode="&#xf4;" horiz-adv-x="1438" 
d="M731 1642q10 0 20 -10l210 -210q11 -11 11 -23q0 -10 -8.5 -19t-18.5 -9q-12 0 -24 12l-190 190l-193 -192q-11 -11 -23 -11q-10 0 -17 7l-1 1q-8 8 -8 18q0 12 10 22l213 214q9 10 19 10zM179.5 925q83.5 145 226.5 229.5t313 84.5q172 0 319.5 -85t234.5 -229.5
t87 -315.5q0 -170 -87 -316.5t-234 -233t-318 -86.5q-169 0 -313 86.5t-228 233t-84 316.5q0 171 83.5 316zM227.5 320q76.5 -134 207.5 -213t286 -79q162 0 296 79t211 212.5t77 289.5t-79.5 288t-214 209.5t-292.5 77.5q-155 0 -285.5 -77t-206.5 -209t-76 -289
q0 -155 76.5 -289z" />
    <glyph glyph-name="ograve" unicode="&#xf2;" horiz-adv-x="1438" 
d="M556 1658q0 11 8 18.5t19 8.5h2q7 0 12.5 -3.5t12.5 -16.5l128 -229q5 -13 5 -18q0 -11 -8.5 -17.5t-18.5 -7.5h-2q-14 0 -26 20l-127 228q-5 8 -5 17zM179.5 925q83.5 145 226.5 229.5t313 84.5q172 0 319.5 -85t234.5 -229.5t87 -315.5q0 -170 -87 -316.5t-234 -233
t-318 -86.5q-169 0 -313 86.5t-228 233t-84 316.5q0 171 83.5 316zM227.5 320q76.5 -134 207.5 -213t286 -79q162 0 296 79t211 212.5t77 289.5t-79.5 288t-214 209.5t-292.5 77.5q-155 0 -285.5 -77t-206.5 -209t-76 -289q0 -155 76.5 -289z" />
    <glyph glyph-name="oslash" unicode="&#xf8;" horiz-adv-x="1438" 
d="M180.5 925q83.5 145 226.5 229.5t313 84.5q102 0 201 -32l46 113q7 19 22 19h2q9 0 18.5 -7.5t9.5 -19.5q0 -6 -2 -12l-44 -113q114 -48 202 -135t137 -201.5t49 -241.5q0 -170 -87 -316.5t-234 -233t-318 -86.5q-116 0 -223 42l-44 -110q-7 -18 -22 -18h-2
q-11 0 -20.5 6t-9.5 19q0 5 3 13l45 112q-104 52 -184 139.5t-124 199t-44 233.5q0 171 83.5 316zM228.5 320q76.5 -134 207.5 -213t286 -79q162 0 296 79t211 212.5t77 289.5t-79.5 288t-214 209.5t-292.5 77.5q-155 0 -285.5 -77t-206.5 -209t-76 -289q0 -155 76.5 -289z
" />
    <glyph glyph-name="otilde" unicode="&#xf5;" horiz-adv-x="1438" 
d="M513 1401q-6 -4 -14 -4q-6 0 -17 8l-2 2q-8 8 -8 16q0 10 11 21q38 44 71 64t75 20q25 0 48 -10.5t59 -31.5q35 -21 58.5 -31.5t48.5 -10.5q23 0 41 13t40 37q14 15 23.5 22.5t18.5 7.5q11 0 17.5 -8t6.5 -16q0 -13 -11 -26q-33 -43 -68.5 -64t-77.5 -21
q-26 0 -50.5 11.5t-56.5 32.5q-33 20 -53.5 30t-43.5 10q-33 0 -53 -13.5t-48 -45.5q-9 -9 -15 -13zM179.5 925q83.5 145 226.5 229.5t313 84.5q172 0 319.5 -85t234.5 -229.5t87 -315.5q0 -170 -87 -316.5t-234 -233t-318 -86.5q-169 0 -313 86.5t-228 233t-84 316.5
q0 171 83.5 316zM227.5 320q76.5 -134 207.5 -213t286 -79q162 0 296 79t211 212.5t77 289.5t-79.5 288t-214 209.5t-292.5 77.5q-155 0 -285.5 -77t-206.5 -209t-76 -289q0 -155 76.5 -289z" />
    <glyph glyph-name="oe" unicode="&#x153;" horiz-adv-x="2515" 
d="M2196 1148.5q146 -89.5 230 -228.5t84 -279v-4q0 -27 -28 -27h-1177v-1q0 -25 -1 -38q8 -148 87 -273t207.5 -198.5t278.5 -73.5q95 0 168 22t121.5 52t105.5 75q11 9 24 9q9 0 15 -6l2 -2q6 -6 6 -15q0 -14 -12 -25q-88 -75 -193.5 -119t-236.5 -44q-138 0 -261.5 57.5
t-212.5 159.5t-128 230q-41 -128 -131 -230t-214.5 -159.5t-263.5 -57.5q-169 0 -313 86.5t-228 233t-84 316.5q0 171 83.5 316t226.5 229.5t313 84.5q140 0 265.5 -57.5t216.5 -159t131 -230.5q40 128 128.5 229.5t210.5 159t259 57.5q175 0 321 -89.5zM951.5 101
q129.5 73 208.5 197.5t89 272.5q-1 10 -1 31q0 25 1 38q-8 150 -89 274.5t-212.5 197t-283.5 72.5q-155 0 -285.5 -77t-206.5 -209t-76 -289q0 -155 76.5 -289t207.5 -213t286 -79q156 0 285.5 73zM2455 664q-8 118 -85 239t-207 200.5t-288 79.5q-143 0 -268 -70t-205 -189
t-96 -260h1149z" />
    <glyph glyph-name="nacute" unicode="&#x144;" horiz-adv-x="1306" 
d="M744 1371h-2q-10 1 -18.5 7.5t-8.5 17.5q0 8 5 18l128 229q7 13 12.5 16.5t12.5 3.5h2q10 -1 18.5 -8.5t8.5 -18.5q0 -9 -5 -17l-127 -228q-12 -20 -26 -20zM200 0h-1q-26 0 -26 31v1163q0 32 26 32h1q26 0 26 -32l2 -229q45 86 119.5 149t161 96t168.5 33q154 0 270 -74
t178 -193t62 -250v-695q0 -31 -26 -31h-1q-28 0 -28 31v695q0 113 -56.5 220t-160.5 174.5t-240 67.5q-96 0 -200.5 -54t-175.5 -156t-71 -239v-708q0 -31 -28 -31z" />
    <glyph glyph-name="ntilde" unicode="&#xf1;" horiz-adv-x="1306" 
d="M431 1408q-6 -4 -14 -4q-6 0 -17 8l-2 2q-8 8 -8 16q0 10 11 21q38 44 71 64t75 20q25 0 48 -10.5t59 -31.5q35 -21 58.5 -31.5t48.5 -10.5q23 0 41 13t40 37q14 15 23.5 22.5t18.5 7.5q11 0 17.5 -8t6.5 -16q0 -13 -11 -26q-33 -43 -68.5 -64t-77.5 -21
q-26 0 -50.5 11.5t-56.5 32.5q-33 20 -53.5 30t-43.5 10q-33 0 -53 -13.5t-48 -45.5q-9 -9 -15 -13zM200 0h-1q-26 0 -26 31v1163q0 32 26 32h1q26 0 26 -32l2 -229q45 86 119.5 149t161 96t168.5 33q154 0 270 -74t178 -193t62 -250v-695q0 -31 -26 -31h-1q-28 0 -28 31
v695q0 113 -56.5 220t-160.5 174.5t-240 67.5q-96 0 -200.5 -54t-175.5 -156t-71 -239v-708q0 -31 -28 -31z" />
    <glyph glyph-name="gbreve" unicode="&#x11f;" horiz-adv-x="1521" 
d="M696 1400q-41 23 -64.5 61t-23.5 80q0 37 26 37h2q13 -1 18.5 -10.5t5.5 -26.5q0 -25 16 -52t45.5 -44.5t67.5 -17.5q34 0 64 18.5t47.5 46t17.5 51.5q0 35 25 35h3q25 -1 25 -36q0 -43 -24.5 -81t-67 -61t-92.5 -23t-91 23zM1327.5 -75.5q-66.5 -138.5 -175 -221.5
t-233.5 -99q-44 -6 -92 -6q-57 0 -137 12t-138.5 33.5t-58.5 48.5q0 9 4 13l2 3l4.5 5.5t17.5 5.5q9 0 22 -6q56 -28 130.5 -43t152.5 -15q97 0 168 21q92 27 171.5 107t127 199t47.5 258l-2 118q-48 -110 -133.5 -192.5t-198.5 -127.5t-243 -45q-165 0 -310.5 77.5
t-234.5 219.5t-89 324q0 165 87.5 309t233.5 229.5t313 85.5q120 0 233 -48t202 -133t139 -194v331q0 15 7.5 23.5t21.5 8.5q28 0 28 -32v-955q0 -176 -66.5 -314.5zM1236.5 923.5q-82.5 118.5 -208 189t-266.5 70.5q-162 0 -294 -77.5t-208 -208.5t-76 -283
q0 -175 81.5 -303.5t214 -196t282.5 -67.5q153 0 279 68.5t204 186t92 257.5v109q-18 137 -100.5 255.5z" />
    <glyph glyph-name="gcircumflex" unicode="&#x11d;" horiz-adv-x="1521" 
d="M799 1657q10 0 20 -10l210 -210q11 -11 11 -23q0 -10 -8.5 -19t-18.5 -9q-12 0 -24 12l-190 190l-193 -192q-11 -11 -23 -11q-10 0 -17 7l-1 1q-8 8 -8 18q0 12 10 22l213 214q9 10 19 10zM1327.5 -75.5q-66.5 -138.5 -175 -221.5t-233.5 -99q-44 -6 -92 -6
q-57 0 -137 12t-138.5 33.5t-58.5 48.5q0 9 4 13l2 3l4.5 5.5t17.5 5.5q9 0 22 -6q56 -28 130.5 -43t152.5 -15q97 0 168 21q92 27 171.5 107t127 199t47.5 258l-2 118q-48 -110 -133.5 -192.5t-198.5 -127.5t-243 -45q-165 0 -310.5 77.5t-234.5 219.5t-89 324
q0 165 87.5 309t233.5 229.5t313 85.5q120 0 233 -48t202 -133t139 -194v331q0 15 7.5 23.5t21.5 8.5q28 0 28 -32v-955q0 -176 -66.5 -314.5zM1236.5 923.5q-82.5 118.5 -208 189t-266.5 70.5q-162 0 -294 -77.5t-208 -208.5t-76 -283q0 -175 81.5 -303.5t214 -196
t282.5 -67.5q153 0 279 68.5t204 186t92 257.5v109q-18 137 -100.5 255.5z" />
    <glyph glyph-name="gcommaaccent" unicode="&#x123;" horiz-adv-x="1521" 
d="M822 1377.5q-5 -5.5 -15 -5.5h-61q-17 0 -17 19v73q0 34 10.5 61t24 42t21.5 15q6 0 12 -6l13 -12q4 -3 4 -9q0 -5 -4 -9q-13 -14 -20 -31.5t-7 -31.5v-11q0 -8 8 -8h16q12 0 16 -4.5t4 -16.5v-52q0 -8 -5 -13.5zM1327.5 -75.5q-66.5 -138.5 -175 -221.5t-233.5 -99
q-44 -6 -92 -6q-57 0 -137 12t-138.5 33.5t-58.5 48.5q0 9 4 13l2 3l4.5 5.5t17.5 5.5q9 0 22 -6q56 -28 130.5 -43t152.5 -15q97 0 168 21q92 27 171.5 107t127 199t47.5 258l-2 118q-48 -110 -133.5 -192.5t-198.5 -127.5t-243 -45q-165 0 -310.5 77.5t-234.5 219.5
t-89 324q0 165 87.5 309t233.5 229.5t313 85.5q120 0 233 -48t202 -133t139 -194v331q0 15 7.5 23.5t21.5 8.5q28 0 28 -32v-955q0 -176 -66.5 -314.5zM1236.5 923.5q-82.5 118.5 -208 189t-266.5 70.5q-162 0 -294 -77.5t-208 -208.5t-76 -283q0 -175 81.5 -303.5t214 -196
t282.5 -67.5q153 0 279 68.5t204 186t92 257.5v109q-18 137 -100.5 255.5z" />
    <glyph glyph-name="ccedilla" unicode="&#xe7;" horiz-adv-x="1213" 
d="M1142.5 176q6.5 -8 6.5 -18q0 -15 -13 -25q-185 -152 -401 -160v-142q61 -10 102 -58.5t41 -109.5q0 -46 -22.5 -85t-61 -62t-84.5 -23q-12 0 -20 8t-8 20q0 11 8 18.5t19 7.5q49 0 82 34t33 82q0 43 -26.5 71.5t-70.5 40.5q-3 1 -15 3.5t-19.5 8t-7.5 12.5v175
q-165 8 -304.5 95t-221.5 229.5t-82 308.5q0 176 89 321t234.5 227.5t306.5 82.5q106 0 222 -42.5t199 -117.5q12 -10 12 -23q0 -12 -7 -20t-20 -8q-10 0 -19 9q-79 73 -179.5 110t-196.5 37q-152 0 -287 -75t-217 -207t-82 -294q0 -156 79 -289t213 -211.5t290 -78.5
q122 0 215 39t173 108q11 9 23 9q11 0 17.5 -8z" />
    <glyph glyph-name="ccircumflex" unicode="&#x109;" horiz-adv-x="1213" 
d="M732 1636q10 0 20 -10l210 -210q11 -11 11 -23q0 -10 -8.5 -19t-18.5 -9q-12 0 -24 12l-190 190l-193 -192q-11 -11 -23 -11q-10 0 -17 7l-1 1q-8 8 -8 18q0 12 10 22l213 214q9 10 19 10zM1125 184q11 0 17.5 -8t6.5 -18q0 -15 -13 -25q-195 -160 -421 -160
q-171 0 -318 86t-233.5 232t-86.5 316q0 176 89 321t234.5 227.5t306.5 82.5q106 0 222 -42.5t199 -117.5q12 -10 12 -23q0 -12 -7 -20t-20 -8q-10 0 -19 9q-79 73 -179.5 110t-196.5 37q-152 0 -287 -75t-217 -207t-82 -294q0 -156 79 -289t213 -211.5t290 -78.5
q122 0 215 39t173 108q11 9 23 9z" />
    <glyph glyph-name="cdotaccent" unicode="&#x10b;" horiz-adv-x="1213" 
d="M680 1492h61q24 0 24 -28v-54q0 -28 -24 -28h-60q-15 0 -20.5 6.5t-5.5 21.5v57q0 25 25 25zM1125 184q11 0 17.5 -8t6.5 -18q0 -15 -13 -25q-195 -160 -421 -160q-171 0 -318 86t-233.5 232t-86.5 316q0 176 89 321t234.5 227.5t306.5 82.5q106 0 222 -42.5t199 -117.5
q12 -10 12 -23q0 -12 -7 -20t-20 -8q-10 0 -19 9q-79 73 -179.5 110t-196.5 37q-152 0 -287 -75t-217 -207t-82 -294q0 -156 79 -289t213 -211.5t290 -78.5q122 0 215 39t173 108q11 9 23 9z" />
    <glyph glyph-name="ibreve" unicode="&#x12d;" 
d="M98 1408q-41 23 -64.5 61t-23.5 80q0 37 26 37h2q13 -1 18.5 -10.5t5.5 -26.5q0 -25 16 -52t45.5 -44.5t67.5 -17.5q34 0 64 18.5t47.5 46t17.5 51.5q0 35 25 35h3q25 -1 25 -36q0 -43 -24.5 -81t-67 -61t-92.5 -23t-91 23zM197 1226h1q27 0 27 -31v-1163q0 -32 -27 -32
h-1q-14 0 -21 8.5t-7 23.5v1163q0 31 28 31z" />
    <glyph glyph-name="lslash" unicode="&#x142;" horiz-adv-x="419" 
d="M423 823q0 -19 -18 -25l-196 -75v-690q0 -15 -6.5 -24t-20.5 -9h-1q-14 0 -20.5 9t-6.5 24v668l-152 -58q-7 -4 -18 -4q-16 0 -22 17v1q-2 6 -2 11q0 19 21 26l173 66v789q0 15 6.5 24.5t20.5 9.5h1q14 0 20.5 -9.5t6.5 -24.5v-768l176 68l13 2q18 0 23 -15l1 -3
q1 -2 1 -10z" />
    <glyph glyph-name="kcommaaccent" unicode="&#x137;" horiz-adv-x="1223" 
d="M1103 46q8 -10 8 -19q0 -11 -8 -18.5t-18 -8.5q-9 0 -15.5 2.5t-16.5 14.5l-566 738l-274 -250v-471q0 -34 -26 -34h-1q-14 0 -20.5 9.5t-6.5 24.5v1518q0 31 27 31h1q26 0 26 -31v-973l692 633q10 9 15.5 11t12.5 2q10 0 19 -8t9 -21q0 -10 -9 -19l-425 -385z
M506 -124.5q5 5.5 15 5.5h61q17 0 17 -19v-73q0 -34 -10.5 -61t-24 -42t-21.5 -15q-6 0 -12 6l-13 12q-4 3 -4 9q0 5 4 9q13 14 20 31.5t7 31.5v11q0 8 -8 8h-16q-12 0 -16 4.5t-4 16.5v52q0 8 5 13.5z" />
    <glyph glyph-name="kgreenlandic" unicode="&#x138;" horiz-adv-x="1223" 
d="M1083 46q8 -10 8 -19q0 -11 -8 -18.5t-18 -8.5q-9 0 -15.5 2.5t-16.5 14.5l-546 738l-274 -250v-471q0 -34 -26 -34h-1q-14 0 -20.5 9.5t-6.5 24.5v1161q0 31 27 31h1q26 0 26 -31v-621l672 622q10 9 15.5 11t12.5 2q10 0 19 -8t9 -21q0 -10 -9 -19l-405 -369z" />
    <glyph glyph-name="jcircumflex" unicode="&#x135;" 
d="M213 1655q10 0 20 -10l210 -210q11 -11 11 -23q0 -10 -8.5 -19t-18.5 -9q-12 0 -24 12l-190 190l-193 -192q-11 -11 -23 -11q-10 0 -17 7l-1 1q-8 8 -8 18q0 12 10 22l213 214q9 10 19 10zM224 1226h1q26 0 26 -31v-1218q-2 -90 -41.5 -176.5t-121.5 -143.5t-202 -57
q-21 0 -27 9.5t-6 17.5v2q0 7 7.5 16t29.5 9q101 0 169.5 45.5t101.5 119.5t35 159v1217q0 31 28 31z" />
    <glyph glyph-name="itilde" unicode="&#x129;" 
d="M-23 1379q-6 -4 -14 -4q-6 0 -17 8l-2 2q-8 8 -8 16q0 10 11 21q38 44 71 64t75 20q25 0 48 -10.5t59 -31.5q35 -21 58.5 -31.5t48.5 -10.5q23 0 41 13t40 37q14 15 23.5 22.5t18.5 7.5q11 0 17.5 -8t6.5 -16q0 -13 -11 -26q-33 -43 -68.5 -64t-77.5 -21
q-26 0 -50.5 11.5t-56.5 32.5q-33 20 -53.5 30t-43.5 10q-33 0 -53 -13.5t-48 -45.5q-9 -9 -15 -13zM197 1226h1q27 0 27 -31v-1163q0 -32 -27 -32h-1q-14 0 -21 8.5t-7 23.5v1163q0 31 28 31z" />
    <glyph glyph-name="iogonek" unicode="&#x12f;" 
d="M239 1541v-44q0 -22 -19 -22h-48q-12 0 -16.5 5t-4.5 17v46q0 20 20 20h49q19 0 19 -22zM228.5 -245.5q7.5 -8.5 7.5 -23.5q0 -40 -19.5 -74t-54 -54.5t-77.5 -20.5q-42 0 -77 19.5t-55 54t-20 76.5q0 34 12 61t30 47.5t51 51.5l16 15l127 125v1163q0 31 28 31h1
q27 0 27 -31v-1163v-2q1 -2 1 -6q0 -10 -11 -21l-135 -132l-19 -18q-36 -34 -56.5 -61.5t-20.5 -58.5q0 -37 24.5 -68.5t73.5 -31.5q31 0 54 14.5t35 36.5t12 44q0 35 26 35q12 0 19.5 -8.5z" />
    <glyph glyph-name="ae" unicode="&#xe6;" horiz-adv-x="2663" 
d="M1514.5 1054.5q86.5 86.5 199 135t237.5 48.5q175 0 321 -89.5t230 -228.5t84 -279v-4q0 -27 -28 -27h-1179v-8q0 -154 77.5 -286.5t209.5 -211t287 -78.5q95 0 168 22t121.5 52t105.5 75q11 9 24 9q9 0 15 -6l2 -2q6 -6 6 -15q0 -14 -12 -25q-88 -75 -193.5 -119
t-236.5 -44q-126 0 -239 47.5t-199.5 132.5t-136.5 196v-316q0 -33 -27 -33h-1q-27 0 -27 33v318q-50 -110 -139 -196t-203 -134t-238 -48q-162 0 -307.5 85.5t-234 230.5t-88.5 314t88.5 315.5t234 233t307.5 86.5q123 0 237 -48.5t203.5 -135.5t139.5 -198v319
q0 15 6.5 24t20.5 9h1q27 0 27 -33v-318q50 111 136.5 197.5zM1239.5 891.5q-83.5 133.5 -218 212.5t-279.5 79q-148 0 -280.5 -78.5t-213 -212t-80.5 -289.5q0 -154 80.5 -286t213 -210.5t280.5 -78.5q155 0 289 78t213 210t79 287t-83.5 288.5zM1683 1113
q-125 -70 -205 -189t-96 -260h1149q-8 118 -85 239t-207 200.5t-288 79.5q-143 0 -268 -70z" />
    <glyph glyph-name="Gbreve" unicode="&#x11e;" horiz-adv-x="1425" 
d="M717 1602q-41 23 -64.5 61t-23.5 80q0 37 26 37h2q13 -1 18.5 -10.5t5.5 -26.5q0 -25 16 -52t45.5 -44.5t67.5 -17.5q34 0 64 18.5t47.5 46t17.5 51.5q0 35 25 35h3q25 -1 25 -36q0 -43 -24.5 -81t-67 -61t-92.5 -23t-91 23zM1050 78.5q107 39.5 198 106.5v419
q0 15 7 23.5t21 8.5q27 0 27 -32v-424q0 -20 -13 -32q-92 -76 -213 -120t-247 -44q-199 0 -368 97.5t-267.5 264.5t-98.5 366q0 200 98.5 367.5t267.5 265t368 97.5q128 0 243.5 -43.5t211.5 -122.5q15 -14 15 -26q0 -10 -5 -15l-1 -1q-9 -9 -21 -9q-11 0 -22 8
q-196 150 -421 150q-185 0 -340.5 -89t-246 -243t-90.5 -339q0 -184 90.5 -338.5t246 -244.5t340.5 -90q113 0 220 39.5z" />
    <glyph glyph-name="Gcircumflex" unicode="&#x11c;" horiz-adv-x="1425" 
d="M806 1841q10 0 20 -10l210 -210q11 -11 11 -23q0 -10 -8.5 -19t-18.5 -9q-12 0 -24 12l-190 190l-193 -192q-11 -11 -23 -11q-10 0 -17 7l-1 1q-8 8 -8 18q0 12 10 22l213 214q9 10 19 10zM1050 78.5q107 39.5 198 106.5v419q0 15 7 23.5t21 8.5q27 0 27 -32v-424
q0 -20 -13 -32q-92 -76 -213 -120t-247 -44q-199 0 -368 97.5t-267.5 264.5t-98.5 366q0 200 98.5 367.5t267.5 265t368 97.5q128 0 243.5 -43.5t211.5 -122.5q15 -14 15 -26q0 -10 -5 -15l-1 -1q-9 -9 -21 -9q-11 0 -22 8q-196 150 -421 150q-185 0 -340.5 -89t-246 -243
t-90.5 -339q0 -184 90.5 -338.5t246 -244.5t340.5 -90q113 0 220 39.5z" />
    <glyph glyph-name="Gdotaccent" unicode="&#x120;" horiz-adv-x="1425" 
d="M816 1691h61q24 0 24 -28v-54q0 -28 -24 -28h-60q-15 0 -20.5 6.5t-5.5 21.5v57q0 25 25 25zM1050 78.5q107 39.5 198 106.5v419q0 15 7 23.5t21 8.5q27 0 27 -32v-424q0 -20 -13 -32q-92 -76 -213 -120t-247 -44q-199 0 -368 97.5t-267.5 264.5t-98.5 366
q0 200 98.5 367.5t267.5 265t368 97.5q128 0 243.5 -43.5t211.5 -122.5q15 -14 15 -26q0 -10 -5 -15l-1 -1q-9 -9 -21 -9q-11 0 -22 8q-196 150 -421 150q-185 0 -340.5 -89t-246 -243t-90.5 -339q0 -184 90.5 -338.5t246 -244.5t340.5 -90q113 0 220 39.5z" />
    <glyph glyph-name="Otilde" unicode="&#xd5;" horiz-adv-x="1657" 
d="M610 1586q-6 -4 -14 -4q-6 0 -17 8l-2 2q-8 8 -8 16q0 10 11 21q38 44 71 64t75 20q25 0 48 -10.5t59 -31.5q35 -21 58.5 -31.5t48.5 -10.5q23 0 41 13t40 37q14 15 23.5 22.5t18.5 7.5q11 0 17.5 -8t6.5 -16q0 -13 -11 -26q-33 -43 -68.5 -64t-77.5 -21
q-26 0 -50.5 11.5t-56.5 32.5q-33 20 -53.5 30t-43.5 10q-33 0 -53 -13.5t-48 -45.5q-9 -9 -15 -13zM183 1079.5q99 167.5 267.5 265.5t367.5 98q200 0 366 -98t262.5 -265.5t96.5 -367.5q0 -199 -96.5 -366t-262.5 -264t-366 -97t-368.5 97t-267 264t-98.5 366
q0 200 99 367.5zM233 374.5q90 -153.5 245 -242.5t340 -89t338 89t241 242t88 338q0 186 -88 340t-241 243t-338 89t-340 -89.5t-245 -243.5t-90 -339q0 -184 90 -337.5z" />
    <glyph glyph-name="OE" unicode="&#x152;" horiz-adv-x="2512" 
d="M159.5 1080.5q98.5 168.5 267 267.5t368.5 99q152 0 287.5 -58.5t237 -163t156.5 -239.5v413q0 26 25 27h914q30 0 30 -27v-1q0 -28 -30 -28h-884v-603h722q31 0 31 -25v-1q0 -14 -8.5 -21.5t-22.5 -7.5h-722v-656h903q30 0 30 -27v-1q0 -28 -30 -28h-930q-28 0 -28 28
v410q-55 -135 -156.5 -239t-237 -162t-287.5 -58q-199 0 -367.5 98.5t-267.5 267t-99 367.5q0 200 98.5 368.5zM207 371.5q91 -155.5 247 -246.5t341 -91t341 91t247 246.5t91 340.5t-91 341t-247 247.5t-341 91.5t-341 -91.5t-247 -247.5t-91 -341t91 -340.5z" />
    <glyph glyph-name="Oslashacute" unicode="&#x1fe;" horiz-adv-x="1657" 
d="M883 1579h-2q-10 1 -18.5 7.5t-8.5 17.5q0 8 5 18l128 229q7 13 12.5 16.5t12.5 3.5h2q10 -1 18.5 -8.5t8.5 -18.5q0 -9 -5 -17l-127 -228q-12 -20 -26 -20zM183 1079.5q99 167.5 267.5 265.5t367.5 98q129 0 246 -43l43 108q7 19 22 19h2q10 0 19.5 -7.5t9.5 -19.5
q0 -6 -3 -12l-18 -45q-6 -13 -12 -28.5t-14 -33.5q127 -56 224.5 -156.5t151.5 -233t54 -279.5q0 -199 -96.5 -366t-262.5 -264t-366 -97q-132 0 -253 44l-53 -137q-7 -18 -22 -18h-2q-11 0 -20.5 6t-9.5 19q0 5 3 13l56 136q-128 56 -226 156t-152.5 231t-54.5 277
q0 200 99 367.5zM233 374.5q90 -153.5 245 -242.5t340 -89t338 89t241 242t88 338q0 186 -88 340t-241 243t-338 89t-340 -89.5t-245 -243.5t-90 -339q0 -184 90 -337.5z" />
    <glyph glyph-name="Ncommaaccent" unicode="&#x145;" horiz-adv-x="1493" 
d="M208 33q0 -33 -26 -33h-1q-14 0 -20.5 9t-6.5 24v1367q0 10 6.5 18t19.5 9h5q14 0 30 -19l1053 -1308v1300q0 27 28 27h1q26 0 26 -27v-1367q0 -33 -26 -33h-6q-13 0 -29 18l-1054 1311v-1296zM644 -152.5q5 5.5 15 5.5h61q17 0 17 -19v-73q0 -34 -10.5 -61t-24 -42
t-21.5 -15q-6 0 -12 6l-13 12q-4 3 -4 9q0 5 4 9q13 14 20 31.5t7 31.5v11q0 8 -8 8h-16q-12 0 -16 4.5t-4 16.5v52q0 8 5 13.5z" />
    <glyph glyph-name="Hbar" unicode="&#x126;" horiz-adv-x="1465" 
d="M208 683v-651q0 -32 -26 -32h-1q-27 0 -27 32v1359q0 32 27 32h1q26 0 26 -32v-325h1033v325q0 32 27 32h1q26 0 26 -32v-1359q0 -32 -26 -32h-1q-27 0 -27 32v651h-1033zM1241 737v274h-1033v-274h1033z" />
    <glyph glyph-name="AE" unicode="&#xc6;" horiz-adv-x="2075" 
d="M1120 1427h881q32 0 32 -27v-1q0 -14 -8.5 -21t-23.5 -7h-851v-604h688q15 0 24.5 -6.5t9.5 -20.5v-1q0 -14 -9.5 -20.5t-24.5 -6.5h-688v-656h871q32 0 32 -27v-1q0 -14 -8.5 -21t-23.5 -7h-898q-27 0 -27 28v377h-717l-306 -392q-8 -10 -13 -12t-12 -1h-1
q-11 2 -17 8.5t-6 16.5q0 11 9 23l1063 1366q10 13 24 13zM1096 1329l-675 -869h675v869z" />
    <glyph glyph-name="Iogonek" unicode="&#x12e;" 
d="M209.5 -248.5q7.5 -8.5 7.5 -23.5q0 -40 -19.5 -74t-54 -54.5t-77.5 -20.5q-42 0 -77 19.5t-55 54t-20 76.5q0 34 12 61t30 47.5t51 51.5l16 15l131 129v1362q0 14 7 23t20 9h1q26 0 26 -32v-1362q0 -8 -1 -11v-1q0 -10 -11 -21l-135 -132l-19 -18q-36 -34 -56.5 -61.5
t-20.5 -58.5q0 -37 24.5 -68.5t73.5 -31.5q31 0 54 14.5t35 36.5t12 44q0 35 26 35q12 0 19.5 -8.5z" />
    <glyph glyph-name="Eth" unicode="&#xd0;" horiz-adv-x="1482" 
d="M50 726h102v675q0 23 19 27h473q193 -4 356 -100.5t258.5 -259.5t95.5 -357q0 -195 -97.5 -358.5t-263.5 -258t-361 -94.5h-452q-28 0 -28 19v652h-102q-31 0 -31 27v1q0 27 31 27zM964.5 143q152.5 88 242.5 239t90 329q0 180 -90 332t-242.5 241t-332.5 89h-425v-647
h220q12 0 19.5 -7t7.5 -21v-1q0 -10 -8 -18t-19 -8h-220v-616h425q180 0 332.5 88z" />
    <glyph glyph-name="Oslash" unicode="&#xd8;" horiz-adv-x="1657" 
d="M183 1079.5q99 167.5 267.5 265.5t367.5 98q129 0 246 -43l43 108q7 19 22 19h2q10 0 19.5 -7.5t9.5 -19.5q0 -6 -3 -12l-18 -45q-6 -13 -12 -28.5t-14 -33.5q127 -56 224.5 -156.5t151.5 -233t54 -279.5q0 -199 -96.5 -366t-262.5 -264t-366 -97q-132 0 -253 44
l-53 -137q-7 -18 -22 -18h-2q-11 0 -20.5 6t-9.5 19q0 5 3 13l56 136q-128 56 -226 156t-152.5 231t-54.5 277q0 200 99 367.5zM233 374.5q90 -153.5 245 -242.5t340 -89t338 89t241 242t88 338q0 186 -88 340t-241 243t-338 89t-340 -89.5t-245 -243.5t-90 -339
q0 -184 90 -337.5z" />
    <glyph glyph-name="exclam" unicode="!" 
d="M187.5 1558.5q7.5 9.5 19.5 9.5h1q26 0 26 -32v-1163q0 -33 -24 -33h-3q-13 0 -20 8.5t-7 22.5v1165q0 13 7.5 22.5zM183 73h49q8 0 10.5 -3t2.5 -11v-47q0 -13 -13 -13h-49q-13 0 -13 13v47q0 14 13 14z" />
    <glyph glyph-name="quotedbl" unicode="&#x22;" horiz-adv-x="582" 
d="M184 1425q27 0 27 -31v-284q0 -15 -7.5 -22.5t-19.5 -7.5q-27 0 -27 30v284q0 31 27 31zM367 1425q27 0 27 -31v-284q0 -15 -7.5 -22.5t-19.5 -7.5q-27 0 -27 30v284q0 31 27 31z" />
    <glyph glyph-name="numbersign" unicode="#" horiz-adv-x="993" 
d="M270 454l-62 -424q-4 -30 -26 -30h-2q-16 0 -21.5 7t-5.5 20l1 10l61 417h-147q-32 0 -32 27v1q0 27 32 27h155l64 434h-149q-32 0 -32 27v1q0 27 32 27h157l59 399q5 30 26 30h1q27 0 27 -30v-7l-58 -392h353l59 399q5 30 26 30h1q27 0 27 -30v-7l-58 -392h169
q12 0 20.5 -7.5t8.5 -20.5v-1q0 -10 -8.5 -18t-20.5 -8h-177l-64 -434h171q12 0 20.5 -7.5t8.5 -20.5v-1q0 -10 -8.5 -18t-20.5 -8h-179l-62 -424q-4 -30 -26 -30h-2q-16 0 -21.5 7t-5.5 20l1 10l61 417h-353zM631 509l64 434h-353l-64 -434h353z" />
    <glyph glyph-name="dollar" unicode="$" horiz-adv-x="1235" 
d="M73 226q0 11 8 19l2 2q7 4 15 4q14 0 30 -19q78 -97 187.5 -146.5t268.5 -49.5q135 0 241.5 36t170 115.5t63.5 203.5q0 107 -73.5 170.5t-165.5 91.5t-234 56q-165 30 -270.5 76t-158.5 115.5t-53 169.5q0 167 119 263t332 108v122q0 27 27 27h1q26 0 26 -27v-120
q137 0 237.5 -37t192.5 -126q9 -9 9 -22q0 -10 -6 -18l-2 -2q-8 -5 -17 -5q-8 0 -16 5t-19 15q-60 51 -109 79t-112.5 41.5t-157.5 13.5q-117 0 -218.5 -31t-166.5 -101.5t-65 -184.5q0 -131 119.5 -201.5t320.5 -108.5q160 -32 261 -64.5t177.5 -106t76.5 -198.5
q0 -132 -65.5 -222.5t-179.5 -137t-260 -50.5v-133q0 -27 -27 -27h-1q-26 0 -26 27v134q-154 4 -268.5 54t-200.5 163q-13 13 -13 27z" />
    <glyph glyph-name="ampersand" unicode="&#x26;" horiz-adv-x="1615" 
d="M637 468q0 21 29 40t71 30.5t79 11.5q49 0 95 -15l87 -25q135 -37 180 -52q69 -23 128 -23q111 0 173.5 67t88.5 148q3 9 11 15t16 6q6 0 7 -1l3 -1q7 -2 11.5 -9.5t4.5 -16.5q0 -7 -1 -9q-94 -251 -314 -251q-48 0 -87 8.5t-141 38.5v-5q0 -121 -63 -223t-171.5 -162
t-236.5 -60q-121 0 -232.5 60.5t-180.5 163t-69 221.5q0 158 73.5 268t222.5 139q-92 44 -134 118t-42 169q0 100 48 171t128.5 106.5t178.5 35.5q106 0 188.5 -41.5t129 -119t46.5 -181.5q0 -11 -7 -18t-16 -7h-3q-9 0 -15.5 7t-6.5 18q0 82 -39.5 148t-111 103.5
t-165.5 37.5q-85 0 -153.5 -31t-107.5 -90t-39 -139q0 -114 74.5 -189.5t252.5 -97.5q12 -2 19 -9.5t5 -15.5l-2 -12q-3 -17 -25 -17q-25 0 -60 7q-38 6 -57 6q-90 0 -164 -40t-118 -122.5t-44 -203.5q0 -103 61.5 -192.5t160 -143t204.5 -53.5q112 0 208 53t153 142.5
t57 193.5v19l-90 27q-44 14 -67.5 19.5t-54.5 5.5q-38 0 -71 -11t-56 -32q-8 -8 -22 -8t-22 11l-2 3q-3 3 -3 9z" />
    <glyph glyph-name="quotesingle" unicode="'" horiz-adv-x="339" 
d="M167 1425q27 0 27 -31v-284q0 -15 -7.5 -22.5t-19.5 -7.5q-27 0 -27 30v284q0 31 27 31z" />
    <glyph glyph-name="parenleft" unicode="(" horiz-adv-x="544" 
d="M237.5 1236.5q80.5 238.5 195.5 422.5q9 13 22 13q10 0 16 -6l1 -1q9 -10 9 -20q0 -6 -4 -13q-109 -176 -187.5 -411t-78.5 -502t78.5 -503t187.5 -412q4 -5 4 -14q0 -10 -9 -19l-1 -1q-7 -7 -16 -7q-13 0 -22 14q-114 181 -195 421.5t-81 519.5q0 280 80.5 518.5z" />
    <glyph glyph-name="parenright" unicode=")" horiz-adv-x="553" 
d="M282 198.5q-81 -240.5 -195 -421.5q-9 -14 -22 -14q-9 0 -16 7l-1 1q-9 9 -9 19q0 9 4 14q109 176 187.5 412t78.5 503t-78.5 502t-187.5 411q-4 7 -4 13q0 10 9 20l1 1q6 6 16 6q13 0 22 -13q115 -184 195.5 -422.5t80.5 -518.5q0 -279 -81 -519.5z" />
    <glyph glyph-name="asterisk" unicode="*" horiz-adv-x="922" 
d="M145 648h261l-120 209q-6 9 -6 19q0 14 14 22h1q7 4 14 4q14 0 25 -18l112 -193l115 197q7 16 24 16q8 0 15 -4v-1q12 -6 12 -22q0 -9 -4 -16l-123 -212l255 -1q13 0 21 -7t9 -21h-1q0 -11 -8 -18.5t-21 -7.5l-238 -1l129 -230q5 -8 5 -16q0 -15 -14 -23h-1q-4 -3 -12 -3
q-18 0 -25 15l-138 244l-141 -246q-10 -18 -25 -18q-11 0 -20 8.5t-9 17.5q0 10 6 20l132 230h-244q-32 2 -32 29t32 27z" />
    <glyph glyph-name="plus" unicode="+" horiz-adv-x="864" 
d="M380 307v281h-279q-32 0 -32 27v1q0 27 32 27h279v280q0 12 7.5 20.5t20.5 8.5h1q10 0 18 -8.5t8 -20.5v-280h282q12 0 20.5 -7.5t8.5 -20.5v-1q0 -10 -8.5 -18t-20.5 -8h-282v-281q0 -32 -27 -32h-1q-27 0 -27 32z" />
    <glyph glyph-name="comma" unicode="," horiz-adv-x="438" 
d="M145.5 99.5q5.5 6.5 17.5 6.5h73q20 0 20 -22v-79q0 -31 -9.5 -59t-23.5 -45t-24 -17q-4 0 -8 4l-17 14q-3 3 -3 7q0 7 6 16l8 12q6 9 11.5 19t5.5 18q0 11 -2.5 14t-11.5 3h-25q-14 0 -18.5 6t-4.5 19v68q0 9 5.5 15.5z" />
    <glyph glyph-name="hyphen" unicode="-" horiz-adv-x="983" 
d="M183 553h621q12 0 19.5 -7t7.5 -21v-1q0 -10 -8 -18t-19 -8h-621q-31 0 -31 27v1q0 27 31 27z" />
    <glyph glyph-name="period" unicode="." horiz-adv-x="415" 
d="M145.5 108.5q5.5 6.5 16.5 6.5h72q13 0 17.5 -6.5t4.5 -18.5v-67q0 -23 -18 -23h-80q-18 0 -18 21v71q0 10 5.5 16.5z" />
    <glyph glyph-name="slash" unicode="/" horiz-adv-x="720" 
d="M92 0h-2q-11 0 -20.5 6t-9.5 19q0 6 3 13l541 1369q7 19 21 19h3q10 0 19.5 -7.5t9.5 -19.5q0 -6 -3 -12l-540 -1369q-7 -18 -22 -18z" />
    <glyph glyph-name="zero" unicode="0" horiz-adv-x="1688" 
d="M205.5 1073q96.5 166 262 263.5t361.5 97.5t362 -97.5t263.5 -263.5t97.5 -362t-97.5 -361.5t-263.5 -262t-362 -96.5t-361.5 96.5t-262 262t-96.5 361.5t96.5 362zM255.5 380q89.5 -152 242 -241.5t331.5 -89.5q180 0 333 89.5t243 241.5t90 331q0 180 -90 333t-243 243
t-333 90q-179 0 -331.5 -90t-242 -243.5t-89.5 -332.5t89.5 -331z" />
    <glyph glyph-name="one" unicode="1" horiz-adv-x="451" 
d="M244 1416q7 -6 7 -19v-1366q0 -31 -28 -31h-1q-12 0 -19 8.5t-7 22.5v1321l-151 -64q-7 -4 -18 -4q-18 0 -24 18l-1 3l-2 9q0 10 7 15.5t17 9.5l170 74q2 1 11 5t18 4h4q10 0 17 -6z" />
    <glyph glyph-name="two" unicode="2" horiz-adv-x="1158" 
d="M166.5 1132.5q-8.5 8.5 -8.5 19.5q0 5 3 11q62 131 172 199.5t250 68.5q132 0 239.5 -56t168.5 -154.5t61 -221.5q0 -65 -9.5 -115.5t-44.5 -111.5t-107 -130l-680 -587h873q13 0 22.5 -6t9.5 -17v-3q0 -15 -8.5 -22t-23.5 -7h-941q-14 0 -21 7.5t-7 20.5v1q0 16 12 26
l718 619q71 68 104.5 123t41 98.5t7.5 105.5q0 100 -53 186.5t-147 138t-210 51.5q-131 0 -219.5 -56.5t-155.5 -177.5q-7 -13 -13 -16t-12 -3h-1q-12 0 -20.5 8.5z" />
    <glyph glyph-name="seven" unicode="7" horiz-adv-x="1056" 
d="M1018 1415q8 -8 8 -21q0 -14 -7 -24l-813 -1355q-4 -7 -11 -11t-13 -4h-2q-12 0 -20 8.5t-8 20.5q0 9 5 17l799 1322h-850q-31 0 -31 29q0 26 31 26h890q14 0 22 -8z" />
    <glyph glyph-name="eight" unicode="8" horiz-adv-x="1058" 
d="M237.5 1271q44.5 75 120 119.5t164.5 44.5q88 0 163.5 -44.5t120 -120t44.5 -163.5q0 -98 -52.5 -178t-138.5 -121q83 -28 148.5 -87.5t102 -141t36.5 -172.5q0 -115 -57 -212.5t-154.5 -154.5t-212.5 -57t-212.5 57t-154.5 154.5t-57 212.5q0 91 36 172.5t101 141
t149 87.5q-85 39 -138 120t-53 179q0 89 44.5 164zM283.5 969q37.5 -63 101 -100t137.5 -37t137.5 37t101 100t37.5 138q0 74 -37.5 137.5t-101 101t-137.5 37.5t-137.5 -37.5t-101 -101t-37.5 -137.5q0 -75 37.5 -138zM200 220.5q50 -85.5 135.5 -135.5t186.5 -50
q100 0 185.5 50t136 135.5t50.5 186.5t-50.5 186t-136 135t-185.5 50q-101 0 -186.5 -50t-135.5 -135t-50 -186t50 -186.5z" />
    <glyph glyph-name="nine" unicode="9" horiz-adv-x="1064" 
d="M443 -3h-2q-10 0 -18 6.5t-8 17.5q0 8 6 17l339 486q-108 -57 -232 -57q-133 0 -245.5 66t-178.5 178.5t-66 245.5q0 132 66 244t178.5 178t245.5 66q132 0 244 -66t177.5 -178t65.5 -244q0 -151 -79 -266l-476 -685q-7 -9 -17 -9zM903.5 1175q-59.5 100 -160 159
t-218.5 59t-218.5 -59t-159.5 -159t-59 -218q0 -119 59 -219.5t159.5 -159.5t218.5 -59t218.5 59t160 159.5t59.5 219.5q0 118 -59.5 218z" />
    <glyph glyph-name="colon" unicode=":" horiz-adv-x="415" 
d="M145.5 1219.5q5.5 6.5 16.5 6.5h72q13 0 17.5 -6.5t4.5 -18.5v-67q0 -23 -18 -23h-80q-18 0 -18 21v71q0 10 5.5 16.5zM145.5 108.5q5.5 6.5 16.5 6.5h72q13 0 17.5 -6.5t4.5 -18.5v-67q0 -23 -18 -23h-80q-18 0 -18 21v71q0 10 5.5 16.5z" />
    <glyph glyph-name="semicolon" unicode=";" horiz-adv-x="419" 
d="M145.5 1219.5q5.5 6.5 16.5 6.5h72q13 0 17.5 -6.5t4.5 -18.5v-67q0 -23 -18 -23h-80q-18 0 -18 21v71q0 10 5.5 16.5zM145.5 99.5q5.5 6.5 17.5 6.5h73q20 0 20 -22v-79q0 -31 -9.5 -59t-23.5 -45t-24 -17q-4 0 -8 4l-17 14q-3 3 -3 7q0 7 6 16l8 12q6 9 11.5 19t5.5 18
q0 11 -2.5 14t-11.5 3h-25q-14 0 -18.5 6t-4.5 19v68q0 9 5.5 15.5z" />
    <glyph glyph-name="less" unicode="&#x3c;" horiz-adv-x="766" 
d="M109 549l501 495q11 11 25 11q9 0 14 -5l2 -2q9 -9 9 -20q0 -12 -10 -22l-475 -469l475 -469q10 -10 10 -22q0 -11 -9 -20l-2 -2q-5 -5 -14 -5q-14 0 -25 11l-501 495q-7 7 -7 12t7 12z" />
    <glyph glyph-name="equal" unicode="=" horiz-adv-x="966" 
d="M147 626.5q-7 7.5 -7 19.5v1q0 28 28 28h618q14 0 22 -7.5t8 -19.5v-2q0 -12 -8 -19.5t-22 -7.5h-618q-14 0 -21 7.5zM147 368.5q-7 7.5 -7 19.5v1q0 28 28 28h618q14 0 22 -7.5t8 -19.5v-2q0 -12 -8 -19.5t-22 -7.5h-618q-14 0 -21 7.5z" />
    <glyph glyph-name="greater" unicode="&#x3e;" horiz-adv-x="768" 
d="M691 525l-501 -495q-11 -11 -25 -11q-9 0 -14 5l-2 2q-9 9 -9 20q0 12 10 22l475 469l-475 469q-10 10 -10 22q0 11 9 20l2 2q5 5 14 5q14 0 25 -11l501 -495q7 -7 7 -12t-7 -12z" />
    <glyph glyph-name="question" unicode="?" horiz-adv-x="1091" 
d="M540 296.5q-9 -7.5 -18 -7.5h-3q-8 0 -16 7.5t-8 20.5v196q0 89 70.5 158.5t142.5 110.5q75 47 126.5 93.5t83.5 109t32 143.5q0 94 -58.5 170.5t-151.5 120.5t-190 44q-112 0 -206.5 -49t-150 -136.5t-55.5 -198.5q0 -10 -7 -18.5t-20 -8.5h-2q-9 0 -17 7t-8 18
q0 125 62 225.5t168.5 157.5t233.5 57q132 0 236.5 -56t162 -146.5t57.5 -188.5q0 -124 -60.5 -210t-184.5 -163q-65 -39 -108 -73t-72.5 -80.5t-29.5 -105.5v-177q0 -13 -9 -20.5zM497 92h57q9 0 12 -3.5t3 -13.5v-54q0 -15 -15 -15h-57q-15 0 -15 15v54q0 17 15 17z" />
    <glyph glyph-name="percent" unicode="%" horiz-adv-x="1855" 
d="M144 1299.5q54 93.5 145.5 148.5t200.5 55q110 0 204.5 -55t150 -148.5t55.5 -203.5q0 -109 -55.5 -201.5t-150 -147t-204.5 -54.5q-109 0 -200.5 54.5t-145.5 147t-54 201.5q0 110 54 203.5zM191.5 921q46.5 -80 125.5 -127t173 -47q96 0 177.5 47t129 127.5t47.5 174.5
t-48 175t-129 128.5t-177 47.5q-94 0 -173 -47.5t-125.5 -128t-46.5 -175.5t46.5 -175zM1256 1423h1q14 0 20.5 -7.5t6.5 -17.5q0 -7 -5 -15l-744 -1373q-9 -10 -21 -10h-1q-12 2 -18.5 9.5t-6.5 17.5t5 17l741 1366q10 13 22 13zM1049 558.5q54 93.5 145.5 148.5t200.5 55
q110 0 204.5 -55t150 -148.5t55.5 -203.5q0 -109 -55.5 -201.5t-150 -147t-204.5 -54.5q-109 0 -200.5 54.5t-145.5 147t-54 201.5q0 110 54 203.5zM1096.5 180q46.5 -80 125.5 -127t173 -47q96 0 177.5 47t129 127.5t47.5 174.5t-48 175t-129 128.5t-177 47.5
q-94 0 -173 -47.5t-125.5 -128t-46.5 -175.5t46.5 -175z" />
    <glyph glyph-name="section" unicode="&#xa7;" horiz-adv-x="1014" 
d="M433 1370q-63 0 -114 -24t-81 -69t-30 -105q0 -59 48 -101t107 -64.5t106 -31.5q150 -35 219.5 -102t69.5 -165q0 -97 -61 -162.5t-155 -91.5q85 -36 139.5 -97t54.5 -146t-47 -145.5t-121.5 -91.5t-155.5 -31q-60 0 -119.5 28.5t-105 75.5t-66.5 100q-2 4 -2 11
q0 16 13 22l2 1q6 3 13 3q16 0 23 -15q38 -84 105 -128t137 -44q55 0 117.5 22t107.5 69t45 119q0 62 -44 110t-108 77.5t-127 42.5q-65 13 -127 45.5t-102.5 84t-40.5 115.5q0 66 29.5 123t82.5 95t122 50q-90 29 -151.5 82.5t-61.5 135.5q0 78 34.5 135.5t98 89
t146.5 31.5q92 0 160 -36.5t126 -122.5q4 -5 4 -16q0 -14 -9 -20l-3 -2q-7 -4 -15 -4q-18 0 -25 15q-75 132 -238 132zM423.5 493h17.5q64 0 124.5 22t99.5 69.5t39 119.5q0 85 -55.5 132.5t-154.5 74.5l-25 1q-68 0 -132.5 -24t-107 -75t-42.5 -128q0 -72 65.5 -118.5
t148.5 -71.5q10 -2 22.5 -2z" />
    <glyph glyph-name="uni2074" unicode="&#x2074;" horiz-adv-x="699" 
d="M48 815q0 13 13 30l381 560q16 26 34 26h2q21 0 21 -26v-557h61q10 0 19.5 -6.5t9.5 -18.5v-2q0 -13 -8.5 -19.5t-20.5 -6.5h-61v-122q0 -13 -8 -21t-17 -8h-3q-9 0 -17.5 8t-8.5 21v122h-367q-30 0 -30 20zM445 1312l-316 -464h316v464z" />
    <glyph glyph-name="paragraph" unicode="&#xb6;" horiz-adv-x="1323" 
d="M1291 1401v-2q0 -13 -8.5 -19.5t-21.5 -6.5h-261v-1345q0 -28 -25 -28h-2q-12 0 -19.5 8t-7.5 20v1345h-291v-1345q0 -12 -7 -20t-20 -8h-2q-10 0 -18 8t-8 20v514q-149 0 -270 47.5t-193 147t-72 247.5q0 121 59 223t160 161.5t221 59.5h756q30 0 30 -27z" />
    <glyph glyph-name="eogonek" unicode="&#x119;" horiz-adv-x="1452" 
d="M1036 1148.5q146 -89.5 230 -228.5t84 -279v-4q0 -27 -28 -27h-1179v-8q0 -154 77.5 -286.5t209.5 -211t287 -78.5q95 0 168 22t121.5 52t105.5 75q11 9 24 9q9 0 15 -6l2 -2q6 -6 6 -15q0 -14 -12 -25l-4 -3v-1q0 -10 -11 -21l-135 -132l-19 -18q-36 -34 -56.5 -61.5
t-20.5 -58.5q0 -37 24.5 -68.5t73.5 -31.5q31 0 54 14.5t35 36.5t12 44q0 35 26 35q12 0 19.5 -8.5t7.5 -23.5q0 -40 -19.5 -74t-54 -54.5t-77.5 -20.5q-42 0 -77 19.5t-55 54t-20 76.5q0 34 12 61t30 47.5t51 51.5l16 15l8 8q-116 -50 -250 -50q-170 0 -314.5 85
t-229.5 229.5t-85 314.5t85 316.5t229 233t313 86.5q175 0 321 -89.5zM1295 664q-8 118 -85 239t-207 200.5t-288 79.5q-143 0 -268 -70t-205 -189t-96 -260h1149z" />
    <glyph glyph-name="emacron" unicode="&#x113;" horiz-adv-x="1452" 
d="M403 1442h618q12 0 20.5 -7.5t8.5 -20.5v-1q0 -10 -8.5 -18t-20.5 -8h-618q-32 0 -32 27v1q0 27 32 27zM143 602q0 -154 77.5 -286.5t209.5 -211t287 -78.5q95 0 168 22t121.5 52t105.5 75q11 9 24 9q9 0 15 -6l2 -2q6 -6 6 -15q0 -14 -12 -25q-88 -75 -193.5 -119
t-236.5 -44q-170 0 -314.5 85t-229.5 229.5t-85 314.5t85 316.5t229 233t313 86.5q175 0 321 -89.5t230 -228.5t84 -279v-4q0 -27 -28 -27h-1179v-8zM447 1113q-125 -70 -205 -189t-96 -260h1149q-8 118 -85 239t-207 200.5t-288 79.5q-143 0 -268 -70z" />
    <glyph glyph-name="Ldot" unicode="&#x13f;" horiz-adv-x="1112" 
d="M184 1427h1q26 0 26 -32v-1339h823q34 0 34 -26v-1q0 -14 -9.5 -21.5t-24.5 -7.5h-850q-27 0 -27 28v1367q0 32 27 32zM715 758h61q24 0 24 -28v-54q0 -28 -24 -28h-60q-15 0 -20.5 6.5t-5.5 21.5v57q0 25 25 25z" />
    <glyph glyph-name="scedilla" unicode="&#x15f;" horiz-adv-x="1008" 
d="M822 121q-54 -72 -136.5 -108.5t-172.5 -42.5v-134q61 -10 102 -58.5t41 -109.5q0 -46 -22.5 -85t-61 -62t-84.5 -23q-12 0 -20 8t-8 20q0 11 8 18.5t19 7.5q49 0 82 34t33 82q0 43 -26.5 71.5t-70.5 40.5q-3 1 -15 3.5t-19.5 8t-7.5 12.5v165q-125 3 -212.5 51
t-130.5 119t-43 143q0 24 16 30l3 1q6 2 10 2q12 0 20 -11t9 -27q5 -78 51 -135.5t122 -87.5t171 -30q77 0 155 25.5t132.5 87.5t54.5 164q0 130 -93.5 198.5t-251.5 107.5q-114 27 -193.5 64t-126.5 99.5t-47 157.5q0 84 41.5 155t124 113.5t197.5 42.5q93 0 176.5 -41.5
t137 -110.5t61.5 -148v-8q0 -20 -10 -24q-5 -3 -12 -3q-10 0 -18.5 6t-10.5 18q-9 72 -57 131t-119.5 92t-147.5 33q-89 0 -159 -32.5t-109.5 -90.5t-39.5 -133q0 -119 93.5 -178.5t223.5 -86.5q395 -87 395 -362q0 -108 -54 -180z" />
    <glyph glyph-name="Uhungarumlaut" unicode="&#x170;" horiz-adv-x="1442" 
d="M543 1546h-2q-10 1 -18.5 7.5t-8.5 17.5q0 8 5 18l128 229q7 13 12.5 16.5t12.5 3.5h2q10 -1 18.5 -8.5t8.5 -18.5q0 -9 -5 -17l-127 -228q-12 -20 -26 -20zM872 1546h-2q-10 1 -18.5 7.5t-8.5 17.5q0 8 5 18l128 229q7 13 12.5 16.5t12.5 3.5h2q11 -1 19 -8.5t8 -18.5
q0 -5 -5 -17l-127 -228q-12 -20 -26 -20zM261.5 294q70.5 -121 191.5 -191.5t266 -70.5t266 70.5t191.5 191.5t70.5 266v836q0 15 7 23.5t21 8.5h1q26 0 26 -32v-845q0 -157 -78.5 -288.5t-212 -208.5t-292.5 -77t-292.5 78t-212 212t-78.5 293v838q0 30 28 30h1
q26 0 26 -30v-838q0 -145 70.5 -266z" />
    <glyph glyph-name="Umacron" unicode="&#x16a;" horiz-adv-x="1442" 
d="M407 1625h618q12 0 20.5 -7.5t8.5 -20.5v-1q0 -10 -8.5 -18t-20.5 -8h-618q-32 0 -32 27v1q0 27 32 27zM261.5 294q70.5 -121 191.5 -191.5t266 -70.5t266 70.5t191.5 191.5t70.5 266v836q0 15 7 23.5t21 8.5h1q26 0 26 -32v-845q0 -157 -78.5 -288.5t-212 -208.5
t-292.5 -77t-292.5 78t-212 212t-78.5 293v838q0 30 28 30h1q26 0 26 -30v-838q0 -145 70.5 -266z" />
    <glyph glyph-name="Emacron" unicode="&#x112;" horiz-adv-x="1213" 
d="M334 1642h618q12 0 20.5 -7.5t8.5 -20.5v-1q0 -10 -8.5 -18t-20.5 -8h-618q-32 0 -32 27v1q0 27 32 27zM183 1427h928q32 0 32 -27v-1q0 -14 -8.5 -21t-23.5 -7h-901v-604h738q15 0 24.5 -6.5t9.5 -20.5v-1q0 -14 -9.5 -20.5t-24.5 -6.5h-738v-656h921q32 0 32 -27v-1
q0 -14 -8.5 -21t-23.5 -7h-948q-27 0 -27 28v1372q0 27 27 27z" />
    <glyph glyph-name="Imacron" unicode="&#x12a;" 
d="M-121 1634h618q12 0 20.5 -7.5t8.5 -20.5v-1q0 -10 -8.5 -18t-20.5 -8h-618q-32 0 -32 27v1q0 27 32 27zM161 1418q7 9 20 9h1q26 0 26 -32v-1362q0 -33 -26 -33h-1q-14 0 -20.5 9t-6.5 24v1362q0 14 7 23z" />
    <glyph glyph-name="Omacron" unicode="&#x14c;" horiz-adv-x="1657" 
d="M510 1636h618q12 0 20.5 -7.5t8.5 -20.5v-1q0 -10 -8.5 -18t-20.5 -8h-618q-32 0 -32 27v1q0 27 32 27zM183 1079.5q99 167.5 267.5 265.5t367.5 98q200 0 366 -98t262.5 -265.5t96.5 -367.5q0 -199 -96.5 -366t-262.5 -264t-366 -97t-368.5 97t-267 264t-98.5 366
q0 200 99 367.5zM233 374.5q90 -153.5 245 -242.5t340 -89t338 89t241 242t88 338q0 186 -88 340t-241 243t-338 89t-340 -89.5t-245 -243.5t-90 -339q0 -184 90 -337.5z" />
    <glyph glyph-name="omacron" unicode="&#x14d;" horiz-adv-x="1438" 
d="M425 1471h618q12 0 20.5 -7.5t8.5 -20.5v-1q0 -10 -8.5 -18t-20.5 -8h-618q-32 0 -32 27v1q0 27 32 27zM179.5 925q83.5 145 226.5 229.5t313 84.5q172 0 319.5 -85t234.5 -229.5t87 -315.5q0 -170 -87 -316.5t-234 -233t-318 -86.5q-169 0 -313 86.5t-228 233t-84 316.5
q0 171 83.5 316zM227.5 320q76.5 -134 207.5 -213t286 -79q162 0 296 79t211 212.5t77 289.5t-79.5 288t-214 209.5t-292.5 77.5q-155 0 -285.5 -77t-206.5 -209t-76 -289q0 -155 76.5 -289z" />
    <glyph glyph-name="umacron" unicode="&#x16b;" horiz-adv-x="1300" 
d="M380 1439h618q12 0 20.5 -7.5t8.5 -20.5v-1q0 -10 -8.5 -18t-20.5 -8h-618q-32 0 -32 27v1q0 27 32 27zM1163 1226h1q26 0 26 -31v-1163q0 -32 -26 -32h-1q-26 0 -26 32l-2 200q-46 -80 -121 -140.5t-163 -92.5t-171 -32q-156 0 -278 76.5t-189 202t-67 266.5v683
q0 31 26 31h1q28 0 28 -31v-683q0 -142 65 -254t174.5 -174t236.5 -62q106 0 212.5 54t176 152.5t69.5 225.5v741q0 31 28 31z" />
    <glyph glyph-name="amacron" unicode="&#x101;" horiz-adv-x="1503" 
d="M444 1457h618q12 0 20.5 -7.5t8.5 -20.5v-1q0 -10 -8.5 -18t-20.5 -8h-618q-32 0 -32 27v1q0 27 32 27zM1351 0h-1q-27 0 -27 33v318q-50 -110 -139 -196t-203 -134t-238 -48q-162 0 -307.5 85.5t-234 230.5t-88.5 314t88.5 315.5t234 233t307.5 86.5q123 0 237 -48.5
t203.5 -135.5t139.5 -198v338q0 15 6.5 24t20.5 9h1q27 0 27 -33v-1161q0 -33 -27 -33zM1239.5 891.5q-83.5 133.5 -218 212.5t-279.5 79q-148 0 -280.5 -78.5t-213 -212t-80.5 -289.5q0 -154 80.5 -286t213 -210.5t280.5 -78.5q155 0 289 78t213 210t79 287t-83.5 288.5z
" />
    <glyph glyph-name="thorn" unicode="&#xfe;" horiz-adv-x="1206" 
d="M184 1417q27 0 27 -28v-724q36 87 70 127h-2q69 79 163.5 123t201.5 44q133 0 246 -66t179 -179t66 -246q0 -132 -66 -244.5t-179 -178.5t-246 -66q-148 0 -259 74.5t-174 217.5v-629q0 -30 -27 -30t-27 30v1747q0 28 27 28zM281.5 245q61.5 -96 158.5 -153.5t206 -57.5
q117 0 217.5 59t159.5 158.5t59 216.5q0 118 -59 218t-159 159t-218 59q-116 0 -216 -59t-159.5 -159t-59.5 -218v-18q9 -109 70.5 -205z" />
    <glyph glyph-name="hyphen.cap" horiz-adv-x="983" 
d="M183 553h614q12 0 19.5 -7t7.5 -21v-1q0 -10 -8 -18t-19 -8h-614q-31 0 -31 27v1q0 27 31 27z" />
    <glyph glyph-name="lessequal" unicode="&#x2264;" horiz-adv-x="825" 
d="M109 708l501 495q11 11 25 11q9 0 14 -5l2 -2q9 -9 9 -20q0 -12 -10 -22l-475 -469l475 -469q10 -10 10 -22q0 -11 -9 -20l-2 -2q-5 -5 -14 -5q-14 0 -25 11l-501 495q-7 7 -7 12t7 12zM133 7.5q-7 7.5 -7 19.5v1q0 28 28 28h578q14 0 22 -7.5t8 -19.5v-2q0 -12 -8 -19.5
t-22 -7.5h-578q-14 0 -21 7.5z" />
    <glyph glyph-name="greaterequal" unicode="&#x2265;" horiz-adv-x="921" 
d="M816 684l-501 -495q-11 -11 -25 -11q-9 0 -14 5l-2 2q-9 9 -9 20q0 12 10 22l475 469l-475 469q-10 10 -10 22q0 11 9 20l2 2q5 5 14 5q14 0 25 -11l501 -495q7 -7 7 -12t-7 -12zM171 7.5q-8 7.5 -8 19.5v2q0 12 8 19.5t22 7.5h578q28 0 28 -28v-1q0 -12 -7 -19.5
t-21 -7.5h-578q-14 0 -22 7.5z" />
    <glyph glyph-name="uni2206" unicode="&#x2206;" horiz-adv-x="1434" 
d="M100 17q0 6 3 13l578 1380q8 18 26 18h1q18 0 27 -20l576 -1376q4 -9 4 -16q0 -16 -19 -16h-1176q-20 0 -20 17zM1244 55l-537 1279l-536 -1279h1073z" />
    <glyph glyph-name="product" unicode="&#x220f;" horiz-adv-x="1277" 
d="M211 1372v-1339q0 -33 -26 -33h-1q-14 0 -20.5 9t-6.5 24v1362q0 14 7 23t20 9h900q17 0 25 -10.5t8 -26.5v-1357q0 -33 -26 -33h-1q-14 0 -20.5 9t-6.5 24v1339h-852z" />
    <glyph glyph-name="summation" unicode="&#x2211;" horiz-adv-x="1200" 
d="M719 699l-3 -4l-543 -640h930q29 0 29 -26v-2q0 -14 -9 -20.5t-20 -6.5h-989q-11 0 -18 5.5t-7 13.5v3q0 12 12 27l554 659l-567 669q-2 2 -6.5 7.5t-4.5 16.5v2q3 25 27 25h962q32 0 32 -26v-2q0 -13 -9 -20t-23 -7h-902l550 -648q5 -5 7 -8.5t2 -8.5t-4 -9z" />
    <glyph glyph-name="uni2215" unicode="&#x2215;" horiz-adv-x="995" 
 />
    <glyph glyph-name="anoteleia" unicode="&#x387;" horiz-adv-x="436" 
d="M177 601.5q5 5.5 14 5.5h67q19 0 19 -23v-61q0 -7 -3.5 -13.5t-12.5 -6.5h-73q-16 0 -16 18v66q0 9 5 14.5z" />
    <glyph glyph-name="dieresistonos" unicode="&#x385;" horiz-adv-x="826" 
d="M412 1599q27 0 27 -31v-189q0 -15 -7.5 -22.5t-19.5 -7.5q-27 0 -27 30v189q0 31 27 31zM188 1450.5q5 5.5 14 5.5h67q19 0 19 -23v-61q0 -7 -3.5 -13.5t-12.5 -6.5h-73q-16 0 -16 18v66q0 9 5 14.5zM540 1450.5q5 5.5 14 5.5h67q19 0 19 -23v-61q0 -7 -3.5 -13.5
t-12.5 -6.5h-73q-16 0 -16 18v66q0 9 5 14.5z" />
    <glyph glyph-name="tonos" unicode="&#x384;" horiz-adv-x="330" 
d="M174 1599q27 0 27 -31v-189q0 -15 -7.5 -22.5t-19.5 -7.5q-27 0 -27 30v189q0 31 27 31z" />
    <glyph glyph-name="uni2113" unicode="&#x2113;" horiz-adv-x="808" 
d="M258 36.5q-68 40.5 -88 114t-20 202.5v600q0 178 70 261.5t207 83.5q73 0 131.5 -34.5t91.5 -97.5t33 -147q0 -60 -17.5 -111t-58.5 -97l-406 -453q0 -132 22.5 -197t77 -89t163.5 -24q11 0 18.5 -7t7.5 -18v-1q0 -15 -8.5 -20.5t-17.5 -5.5q-138 0 -206 40.5z
M256.5 1176.5q-55.5 -69.5 -55.5 -223.5v-510l366 401q34 38 49.5 83t15.5 87q0 63 -24 116t-70.5 84.5t-110.5 31.5q-115 0 -170.5 -69.5z" />
    <glyph glyph-name="uni037E" unicode="&#x37e;" horiz-adv-x="419" 
 />
    <glyph glyph-name="uni021B" unicode="&#x21b;" horiz-adv-x="597" 
d="M500 1117q25 0 25 -25v-1q0 -9 -7 -16.5t-18 -7.5h-233v-860q0 -61 32.5 -107.5t105.5 -46.5h39q37 0 37 -23v-2q0 -7 -5.5 -17.5t-25.5 -10.5q-58 0 -82 4q-76 12 -116 67t-40 132v864h-163q-28 0 -28 25t28 25h163v323q0 31 26 31h1q28 0 28 -31v-323h233zM254 -104.5
q5 5.5 15 5.5h61q17 0 17 -19v-73q0 -34 -10.5 -61t-24 -42t-21.5 -15q-6 0 -12 6l-13 12q-4 3 -4 9q0 5 4 9q13 14 20 31.5t7 31.5v11q0 8 -8 8h-16q-12 0 -16 4.5t-4 16.5v52q0 8 5 13.5z" />
    <glyph glyph-name="uni021A" unicode="&#x21a;" horiz-adv-x="1277" 
d="M89 1427h1024q26 0 26 -27v-1q0 -28 -26 -28h-483v-1343q0 -28 -26 -28h-1q-28 0 -28 28v1343h-486q-28 0 -28 28v1q0 27 28 27zM560 -119.5q5 5.5 15 5.5h61q17 0 17 -19v-73q0 -34 -10.5 -61t-24 -42t-21.5 -15q-6 0 -12 6l-13 12q-4 3 -4 9q0 5 4 9q13 14 20 31.5
t7 31.5v11q0 8 -8 8h-16q-12 0 -16 4.5t-4 16.5v52q0 8 5 13.5z" />
    <glyph glyph-name="alpha" unicode="&#x3b1;" horiz-adv-x="1503" 
d="M1351 0h-1q-27 0 -27 33v318q-50 -110 -139 -196t-203 -134t-238 -48q-162 0 -307.5 85.5t-234 230.5t-88.5 314t88.5 315.5t234 233t307.5 86.5q123 0 237 -48.5t203.5 -135.5t139.5 -198v338q0 15 6.5 24t20.5 9h1q27 0 27 -33v-1161q0 -33 -27 -33zM1239.5 891.5
q-83.5 133.5 -218 212.5t-279.5 79q-148 0 -280.5 -78.5t-213 -212t-80.5 -289.5q0 -154 80.5 -286t213 -210.5t280.5 -78.5q155 0 289 78t213 210t79 287t-83.5 288.5z" />
    <glyph glyph-name="alphatonos" unicode="&#x3ac;" horiz-adv-x="1503" 
d="M743 1619q27 0 27 -31v-189q0 -15 -7.5 -22.5t-19.5 -7.5q-27 0 -27 30v189q0 31 27 31zM1351 0h-1q-27 0 -27 33v318q-50 -110 -139 -196t-203 -134t-238 -48q-162 0 -307.5 85.5t-234 230.5t-88.5 314t88.5 315.5t234 233t307.5 86.5q123 0 237 -48.5t203.5 -135.5
t139.5 -198v338q0 15 6.5 24t20.5 9h1q27 0 27 -33v-1161q0 -33 -27 -33zM1239.5 891.5q-83.5 133.5 -218 212.5t-279.5 79q-148 0 -280.5 -78.5t-213 -212t-80.5 -289.5q0 -154 80.5 -286t213 -210.5t280.5 -78.5q155 0 289 78t213 210t79 287t-83.5 288.5z" />
    <glyph glyph-name="beta" unicode="&#x3b2;" horiz-adv-x="1106" 
d="M374 17q0 26 23 26l8 -1q52 -12 105 -12q107 0 201 46.5t151 131.5t57 195q0 113 -44 197.5t-134 131.5t-225 47q-17 0 -26 8.5t-9 18.5t8.5 18.5t27.5 8.5q122 0 190 42.5t91.5 100.5t23.5 117q0 85 -40.5 150t-111 101t-158.5 36t-158 -41.5t-109 -113.5t-39 -162
v-1391q0 -29 -29 -29q-15 0 -20 9.5t-5 19.5v1391q0 112 47.5 196t130 129t184.5 45q105 0 188 -46.5t128.5 -124t45.5 -167.5q0 -69 -24.5 -128t-65.5 -100t-91 -60q132 -37 205 -141t73 -261q0 -115 -60.5 -212t-164.5 -154t-230 -57q-70 0 -122 14q-22 4 -22 21z" />
    <glyph glyph-name="gamma" unicode="&#x3b3;" horiz-adv-x="1017" 
d="M37 1187q-3 8 -3 13q0 12 8 19t17 7h2q6 0 13.5 -4.5t12.5 -14.5l418 -1104l412 1098q5 14 13.5 19.5t15.5 5.5h3q10 0 17.5 -7.5t7.5 -19.5q0 -7 -3 -15l-437 -1155v-397q0 -28 -26 -28h-1q-27 0 -27 28v388z" />
    <glyph glyph-name="delta" unicode="&#x3b4;" horiz-adv-x="1438" 
d="M179 926q84 146 228 232t313 86q44 0 87 -6l-475 291q-8 0 -13 8.5t-5 15.5q0 16 10 22.5t24 6.5h883q12 0 20.5 -7.5t8.5 -20.5v-1q0 -10 -8.5 -18t-20.5 -8h-793l612 -373q142 -94 225.5 -235t83.5 -310q0 -170 -86.5 -314.5t-233.5 -229.5t-319 -85
q-170 0 -313.5 84.5t-227.5 229t-84 315.5t84 317zM226.5 322q76.5 -132 207.5 -209.5t286 -77.5q157 0 291 77.5t213.5 209.5t79.5 287q0 156 -79.5 289.5t-213.5 212t-291 78.5q-155 0 -286 -78.5t-207.5 -212t-76.5 -289.5q0 -155 76.5 -287z" />
    <glyph glyph-name="epsilon" unicode="&#x3b5;" horiz-adv-x="920" 
d="M869 182q0 -9 -5 -19q-41 -75 -126 -119t-177 -44h-105q-97 0 -178.5 44t-129.5 121.5t-48 173.5q0 100 56 179.5t153 126.5q-72 40 -116.5 113.5t-44.5 157.5t41.5 155.5t112 113t154.5 41.5h30q111 0 194 -34.5t131 -126.5q5 -8 5 -20q0 -14 -10 -18l-4 -2
q-6 -3 -13 -3q-17 0 -24 13q-32 63 -90 100t-134 37h-85q-64 0 -123 -36.5t-95.5 -95.5t-36.5 -124t34 -122t91 -91t122 -34h204q35 0 35 -25v-2q0 -27 -35 -27h-205q-77 0 -144.5 -37t-108 -100.5t-40.5 -138.5q0 -78 42.5 -143.5t112 -103.5t147.5 -38h111q70 0 139 33
t113 107q3 6 10 10t15 4q6 0 13 -4l3 -2q9 -7 9 -20z" />
    <glyph glyph-name="epsilontonos" unicode="&#x3ad;" horiz-adv-x="917" 
d="M493 1628q27 0 27 -31v-189q0 -15 -7.5 -22.5t-19.5 -7.5q-27 0 -27 30v189q0 31 27 31zM869 182q0 -9 -5 -19q-41 -75 -126 -119t-177 -44h-105q-97 0 -178.5 44t-129.5 121.5t-48 173.5q0 100 56 179.5t153 126.5q-72 40 -116.5 113.5t-44.5 157.5t41.5 155.5t112 113
t154.5 41.5h30q111 0 194 -34.5t131 -126.5q5 -8 5 -20q0 -14 -10 -18l-4 -2q-6 -3 -13 -3q-17 0 -24 13q-32 63 -90 100t-134 37h-85q-64 0 -123 -36.5t-95.5 -95.5t-36.5 -124t34 -122t91 -91t122 -34h204q35 0 35 -25v-2q0 -27 -35 -27h-205q-77 0 -144.5 -37
t-108 -100.5t-40.5 -138.5q0 -78 42.5 -143.5t112 -103.5t147.5 -38h111q70 0 139 33t113 107q3 6 10 10t15 4q6 0 13 -4l3 -2q9 -7 9 -20z" />
    <glyph glyph-name="zeta" unicode="&#x3b6;" horiz-adv-x="1054" 
d="M872.5 8q75.5 -44 120.5 -119.5t45 -163.5q0 -57 -20.5 -111t-58.5 -99q-12 -14 -25 -14q-10 0 -19 9l-2 2q-5 5 -5 12q0 12 9 21q33 37 50.5 82.5t17.5 94.5q0 77 -37.5 140.5t-103 100.5t-146.5 37h-173q-123 0 -227 62t-165 167t-61 229q0 84 29 161.5t85 138.5
l704 772h-735q-12 0 -20 7.5t-8 17.5v1q0 12 8 19.5t20 7.5h789q13 0 21.5 -8.5t8.5 -17.5v-2q0 -10 -9 -21l-737 -808q-60 -65 -82 -126.5t-22 -139.5q0 -109 55 -203t147.5 -149.5t201.5 -55.5h184q85 0 160.5 -44z" />
    <glyph glyph-name="eta" unicode="&#x3b7;" horiz-adv-x="1306" 
d="M200 0h-1q-26 0 -26 31v1163q0 32 26 32h1q26 0 26 -32l2 -229q45 86 119.5 149t161 96t168.5 33q154 0 270 -74t178 -193t62 -250v-1093q0 -31 -26 -31h-1q-28 0 -28 31v1093q0 113 -56.5 220t-160.5 174.5t-240 67.5q-96 0 -200.5 -54t-175.5 -156t-71 -239v-708
q0 -31 -28 -31z" />
    <glyph glyph-name="etatonos" unicode="&#x3ae;" horiz-adv-x="1306" 
d="M674 1629q27 0 27 -31v-189q0 -15 -7.5 -22.5t-19.5 -7.5q-27 0 -27 30v189q0 31 27 31zM200 0h-1q-26 0 -26 31v1163q0 32 26 32h1q26 0 26 -32l2 -229q45 86 119.5 149t161 96t168.5 33q154 0 270 -74t178 -193t62 -250v-1093q0 -31 -26 -31h-1q-28 0 -28 31v1093
q0 113 -56.5 220t-160.5 174.5t-240 67.5q-96 0 -200.5 -54t-175.5 -156t-71 -239v-708q0 -31 -28 -31z" />
    <glyph glyph-name="theta" unicode="&#x3b8;" horiz-adv-x="1333" 
d="M171 1182q79 184 213.5 292.5t293.5 108.5q158 0 293 -108.5t214 -293t79 -400.5t-79 -399t-214 -290.5t-293 -107.5q-159 0 -293.5 107t-213.5 290.5t-79 399.5q0 217 79 401zM412.5 1428.5q-119.5 -99.5 -190.5 -266t-77 -358.5h1066q-6 190 -77 356.5t-191 267
t-265 100.5q-146 0 -265.5 -99.5zM942.5 136.5q120.5 99.5 192.5 265t78 353.5h-1070q6 -189 77.5 -354.5t192 -264.5t265.5 -99q144 0 264.5 99.5z" />
    <glyph glyph-name="iota" unicode="&#x3b9;" 
d="M197 1226h1q27 0 27 -31v-1163q0 -32 -27 -32h-1q-14 0 -21 8.5t-7 23.5v1163q0 31 28 31z" />
    <glyph glyph-name="iotadieresis" unicode="&#x3ca;" 
d="M11 1491h61q24 0 24 -28v-54q0 -28 -24 -28h-60q-15 0 -20.5 6.5t-5.5 21.5v57q0 25 25 25zM321 1491h61q24 0 24 -28v-54q0 -28 -24 -28h-60q-15 0 -20.5 6.5t-5.5 21.5v57q0 25 25 25zM197 1226h1q27 0 27 -31v-1163q0 -32 -27 -32h-1q-14 0 -21 8.5t-7 23.5v1163
q0 31 28 31z" />
    <glyph glyph-name="iotatonos" unicode="&#x3af;" 
d="M206 1628q27 0 27 -31v-189q0 -15 -7.5 -22.5t-19.5 -7.5q-27 0 -27 30v189q0 31 27 31zM197 1226h1q27 0 27 -31v-1163q0 -32 -27 -32h-1q-14 0 -21 8.5t-7 23.5v1163q0 31 28 31z" />
    <glyph glyph-name="kappa" unicode="&#x3ba;" horiz-adv-x="1191" 
d="M181 1226h1q26 0 26 -31v-682l760 706q8 7 24 7h100q12 0 20.5 -7.5t8.5 -20.5v-1q0 -10 -8.5 -18t-20.5 -8h-92l-480 -440l608 -685q8 -10 8 -19q0 -11 -8 -18.5t-18 -8.5q-9 0 -15.5 2.5t-16.5 14.5l-598 677l-272 -250v-410q0 -34 -26 -34h-1q-14 0 -20.5 9.5
t-6.5 24.5v1161q0 31 27 31z" />
    <glyph glyph-name="lambda" unicode="&#x3bb;" horiz-adv-x="1017" 
d="M993 25q0 -12 -8 -19t-17 -7h-2q-6 0 -12.5 4t-11.5 15l-433 1094l-421 -1088q-5 -14 -12.5 -19.5t-14.5 -5.5h-3q-10 0 -17.5 7.5t-7.5 19.5q0 6 3 15l446 1140q-5 15 -10 27t-9 22q-41 107 -71.5 165t-83 94.5t-136.5 36.5q-20 0 -27.5 9.5t-7.5 16.5v2q0 1 1.5 14
t29.5 13q101 0 164 -42t97 -101.5t73 -157.5l18 -45l24 -62l446 -1135q3 -7 3 -13z" />
    <glyph glyph-name="uni03BC" unicode="&#x3bc;" horiz-adv-x="1230" 
d="M1058 0h-1q-26 0 -26 32l-2 210q-63 -110 -167.5 -185.5t-232.5 -75.5q-81 0 -166 29t-157.5 86.5t-115.5 139.5l-2 -569q0 -32 -26 -32h-1q-26 0 -26 32v1529q0 31 26 31h1q28 0 28 -31v-733q0 -130 68.5 -226.5t170.5 -146.5t198 -50q108 0 200.5 61t147 150t54.5 165
v780q0 31 28 31h1q26 0 26 -31v-1164q0 -32 -26 -32z" />
    <glyph glyph-name="xi" unicode="&#x3be;" horiz-adv-x="1079" 
d="M288 67.5q-103 67.5 -163 175.5t-60 222q0 94 41.5 186t111.5 161t151 98q-92 43 -147.5 128t-55.5 189q0 90 42.5 175.5t111.5 133.5h-223q-14 0 -22.5 4t-8.5 18v2q0 22 31 22h843q16 0 26 -5t10 -16v-2q0 -14 -9.5 -18.5t-26.5 -4.5h-455q-71 0 -131 -45t-95 -116.5
t-35 -147.5q0 -78 41.5 -146.5t110 -109.5t144.5 -41l228 2q35 0 35 -24v-3q0 -10 -9.5 -16.5t-25.5 -6.5h-228q-102 0 -194.5 -59t-149 -155.5t-56.5 -202.5q0 -104 54.5 -199.5t145.5 -154.5t194 -59h153q85 0 160.5 -44t120.5 -119.5t45 -163.5q0 -57 -20.5 -111
t-58.5 -99q-12 -14 -25 -14q-10 0 -19 9l-2 2q-5 5 -5 12q0 12 9 21q33 37 50.5 82.5t17.5 94.5q0 77 -37.5 140.5t-103 100.5t-146.5 37h-140q-122 0 -225 67.5z" />
    <glyph glyph-name="pi" unicode="&#x3c0;" horiz-adv-x="1126" 
d="M991.5 9q-5.5 -9 -22.5 -9h-1q-19 0 -22.5 11t-3.5 28v1133h-772v-1140q0 -32 -26 -32h-1q-27 0 -27 32v1168q0 26 31 26h818q32 0 32 -26v-1162q0 -20 -5.5 -29z" />
    <glyph glyph-name="rho" unicode="&#x3c1;" horiz-adv-x="1457" 
d="M192.5 930q85.5 144 229.5 229t311 85q172 0 319 -86t233.5 -231.5t86.5 -317.5q0 -170 -86.5 -314.5t-233.5 -229.5t-319 -85q-125 0 -237 47t-198 131t-135 193v-742q0 -29 -28 -29h-1q-26 0 -26 28l-1 1008q0 170 85.5 314zM239.5 322q76.5 -132 207.5 -209.5
t286 -77.5q157 0 291 77.5t213.5 209.5t79.5 287q0 156 -79.5 289.5t-213.5 212t-291 78.5q-155 0 -286 -78.5t-207.5 -212t-76.5 -289.5q0 -155 76.5 -287z" />
    <glyph glyph-name="uni03C2" unicode="&#x3c2;" horiz-adv-x="1154" 
d="M962.5 10q75.5 -45 120.5 -120.5t45 -164.5q0 -57 -20.5 -111t-58.5 -99q-12 -14 -25 -14q-10 0 -19 9l-2 2q-5 5 -5 12q0 12 9 21q33 37 50.5 82.5t17.5 94.5q0 77 -37.5 140.5t-103 100.5t-146.5 37h-72q-172 0 -316 79.5t-228 218.5t-84 309q0 176 89 321t234.5 227.5
t306.5 82.5q108 0 207.5 -34t183.5 -106q12 -10 12 -22q0 -13 -6.5 -20.5t-20.5 -7.5q-10 0 -20 7q-175 128 -346 128q-149 0 -284 -75.5t-218 -207.5t-83 -293q0 -156 76.5 -282t207.5 -198t288 -72h87q85 0 160.5 -45z" />
    <glyph glyph-name="sigma" unicode="&#x3c3;" horiz-adv-x="1438" 
d="M168 926q84 146 228 232t313 86q89 0 183 -27h485q32 0 32 -26v-1q0 -27 -32 -27h-358q98 -55 172.5 -139.5t115.5 -191t41 -223.5q0 -170 -86.5 -314.5t-233.5 -229.5t-319 -85q-170 0 -313.5 84.5t-227.5 229t-84 315.5t84 317zM215.5 322q76.5 -132 207.5 -209.5
t286 -77.5q157 0 291 77.5t213.5 209.5t79.5 287q0 156 -79.5 289.5t-213.5 212t-291 78.5q-155 0 -286 -78.5t-207.5 -212t-76.5 -289.5q0 -155 76.5 -287z" />
    <glyph glyph-name="tau" unicode="&#x3c4;" horiz-adv-x="1172" 
d="M69 1226h1024q26 0 26 -27v-1q0 -28 -26 -28h-483v-1142q0 -28 -26 -28h-1q-28 0 -28 28v1142h-486q-28 0 -28 28v1q0 27 28 27z" />
    <glyph glyph-name="phi" unicode="&#x3c6;" horiz-adv-x="1438" 
d="M165 920.5q81 143.5 220 230.5t304 92v308q0 30 27 30h1q26 0 26 -30v-308q165 -10 304 -97t220 -229t81 -308q0 -165 -81 -305.5t-220 -227t-304 -95.5v-308q0 -32 -26 -32h-1q-27 0 -27 32v308q-165 5 -304 91t-220 228t-81 309q0 168 81 311.5zM212.5 327.5
q73.5 -129.5 199.5 -208.5t277 -84v1153q-151 -6 -277 -85t-199.5 -210t-73.5 -284q0 -152 73.5 -281.5zM1219 888.5q-74 129.5 -200 210t-276 89.5v-1152q150 8 276 87.5t200 208t74 277.5q0 150 -74 279.5z" />
    <glyph glyph-name="chi" unicode="&#x3c7;" horiz-adv-x="1239" 
d="M150 -386q-8 -14 -23 -14h-2q-9 0 -17.5 8t-8.5 19q0 9 5 17l491 774l-485 764q-6 9 -6 17q0 11 8.5 19t16.5 8h2h2q14 0 23 -14l471 -743l472 743q8 14 26 14h2q8 0 16 -8t8 -19q0 -9 -5 -17l-486 -765l491 -773q5 -8 5 -17q0 -11 -7.5 -19t-16.5 -8h-2h-2q-13 0 -22 14
l-478 752z" />
    <glyph glyph-name="psi" unicode="&#x3c8;" horiz-adv-x="1281" 
d="M588 -15q-134 0 -248 67t-180.5 181t-66.5 250v719q0 12 6.5 19.5t18.5 7.5h1q13 0 20 -9t7 -22v-715q0 -121 59.5 -223t161 -161.5t221.5 -59.5h34v1158q0 30 27 30h1q26 0 26 -30v-1158h29q120 1 220 61t157.5 161.5t57.5 221.5v716q0 13 6 21.5t19 8.5h1
q13 0 20.5 -8.5t7.5 -20.5v-725q0 -132 -65 -244t-177 -178.5t-246 -67.5h-30v-335q0 -29 -26 -29h-1q-27 0 -27 29v335h-34z" />
    <glyph glyph-name="omega" unicode="&#x3c9;" horiz-adv-x="1584" 
d="M1458 159.5q-53 -78.5 -139.5 -125t-181.5 -46.5q-70 0 -138 25.5t-121 71.5t-81 105q-29 -59 -82.5 -105t-121 -71.5t-137.5 -25.5q-123 0 -207 56t-125 141.5t-41 174.5v337q0 120 33.5 263t116.5 240q14 15 29 15q7 0 11 -3l3 -2q11 -13 11 -23q0 -7 -2.5 -11t-2.5 -5
q-59 -70 -102 -196.5t-43 -268.5v-344q0 -83 42.5 -157t115.5 -118.5t161 -44.5q77 0 150 42.5t118.5 112.5t45.5 147v447q0 35 27 35h4q23 0 23 -35v-447q0 -77 45 -147t117.5 -112.5t150.5 -42.5q88 0 161 43t116 116.5t43 160.5v337q0 132 -37.5 250.5t-103.5 220.5
q-7 12 -7 18q0 9 11 20l2 1q11 6 18 6q6 0 12.5 -5.5t13.5 -13.5q65 -83 105 -209t40 -242v-416q0 -91 -53 -169.5z" />
    <glyph glyph-name="omegatonos" unicode="&#x3ce;" horiz-adv-x="1584" 
d="M801 1572q27 0 27 -31v-189q0 -15 -7.5 -22.5t-19.5 -7.5q-27 0 -27 30v189q0 31 27 31zM1458 159.5q-53 -78.5 -139.5 -125t-181.5 -46.5q-70 0 -138 25.5t-121 71.5t-81 105q-29 -59 -82.5 -105t-121 -71.5t-137.5 -25.5q-123 0 -207 56t-125 141.5t-41 174.5v337
q0 120 33.5 263t116.5 240q14 15 29 15q7 0 11 -3l3 -2q11 -13 11 -23q0 -7 -2.5 -11t-2.5 -5q-59 -70 -102 -196.5t-43 -268.5v-344q0 -83 42.5 -157t115.5 -118.5t161 -44.5q77 0 150 42.5t118.5 112.5t45.5 147v447q0 35 27 35h4q23 0 23 -35v-447q0 -77 45 -147
t117.5 -112.5t150.5 -42.5q88 0 161 43t116 116.5t43 160.5v337q0 132 -37.5 250.5t-103.5 220.5q-7 12 -7 18q0 9 11 20l2 1q11 6 18 6q6 0 12.5 -5.5t13.5 -13.5q65 -83 105 -209t40 -242v-416q0 -91 -53 -169.5z" />
    <glyph glyph-name="omicron" unicode="&#x3bf;" horiz-adv-x="1438" 
d="M179.5 925q83.5 145 226.5 229.5t313 84.5q172 0 319.5 -85t234.5 -229.5t87 -315.5q0 -170 -87 -316.5t-234 -233t-318 -86.5q-169 0 -313 86.5t-228 233t-84 316.5q0 171 83.5 316zM227.5 320q76.5 -134 207.5 -213t286 -79q162 0 296 79t211 212.5t77 289.5t-79.5 288
t-214 209.5t-292.5 77.5q-155 0 -285.5 -77t-206.5 -209t-76 -289q0 -155 76.5 -289z" />
    <glyph glyph-name="omicrontonos" unicode="&#x3cc;" horiz-adv-x="1438" 
d="M738 1599q27 0 27 -31v-189q0 -15 -7.5 -22.5t-19.5 -7.5q-27 0 -27 30v189q0 31 27 31zM179.5 925q83.5 145 226.5 229.5t313 84.5q172 0 319.5 -85t234.5 -229.5t87 -315.5q0 -170 -87 -316.5t-234 -233t-318 -86.5q-169 0 -313 86.5t-228 233t-84 316.5
q0 171 83.5 316zM227.5 320q76.5 -134 207.5 -213t286 -79q162 0 296 79t211 212.5t77 289.5t-79.5 288t-214 209.5t-292.5 77.5q-155 0 -285.5 -77t-206.5 -209t-76 -289q0 -155 76.5 -289z" />
    <glyph glyph-name="uni03D0" unicode="&#x3d0;" horiz-adv-x="1091" 
d="M344.5 18.5q-101.5 41.5 -163 131.5t-61.5 229v821q0 116 60.5 202.5t158.5 132.5t206 46q115 0 211 -50t152 -138t56 -196q0 -74 -28 -136t-77 -105.5t-111 -62.5q169 -46 247 -160.5t78 -282.5q0 -134 -69 -242.5t-185 -169.5t-251 -61q-122 0 -223.5 41.5zM791.5 86
q102.5 54 164.5 149t62 213q0 126 -49.5 218.5t-150.5 143.5t-251 51q-17 0 -27.5 8t-10.5 18l1 3l3 11q4 16 32 16q96 0 174 31t124 93.5t46 153.5q0 94 -50 169.5t-134 118.5t-182 43q-94 0 -178.5 -42.5t-136 -117t-51.5 -166.5v-821q0 -110 48.5 -188t138 -118.5
t208.5 -40.5q117 0 219.5 54z" />
    <glyph glyph-name="uni03D1" unicode="&#x3d1;" horiz-adv-x="1057" 
d="M87.5 406.5q7.5 8.5 18.5 8.5h2q25 0 25 -30q0 -116 55 -197.5t138.5 -121.5t167.5 -40q95 0 171.5 42t119.5 117t43 172v408h-349q-105 0 -197 55.5t-147.5 148.5t-55.5 199q0 110 55.5 205t150 151.5t205.5 56.5q106 0 196 -46t143.5 -132t53.5 -203l1 -377h110
q35 0 35 -23v-4q0 -28 -35 -28h-110v-415q0 -118 -53 -204.5t-142.5 -132t-197.5 -45.5q-113 0 -207 55.5t-149 150.5t-55 207q0 14 7.5 22.5zM784.5 1370q-43.5 74 -120.5 115t-172 41q-100 0 -182 -47.5t-129 -128t-47 -173.5q0 -99 50 -181t130 -129.5t166 -47.5h348v381
q0 96 -43.5 170z" />
    <glyph glyph-name="uni03F0" unicode="&#x3f0;" horiz-adv-x="939" 
d="M37 1181q-6 9 -6 17q0 12 8.5 19.5t18.5 7.5q16 0 26 -15l378 -562l378 562q7 10 11.5 13t12.5 3q12 0 20.5 -7t8.5 -19q0 -10 -6 -19l-390 -582l382 -554q6 -9 6 -20t-6.5 -18t-19.5 -7h-1q-15 0 -25 14l-371 534l-371 -534q-10 -14 -25 -14q-27 0 -27 25q0 11 6 20
l381 554z" />
    <glyph glyph-name="uni0411" unicode="&#x411;" horiz-adv-x="1219" 
d="M210 885h495q120 0 222 -59.5t161.5 -160.5t59.5 -221t-59.5 -222t-161.5 -162t-222 -60h-526q-23 0 -23 27v1373q0 17 6 22.5t21 5.5h825q13 0 21 -6t8 -18v-4q0 -27 -29 -27h-798v-488zM210 55h495q107 0 196 51.5t140 140.5t51 197q0 106 -51 194.5t-140 139.5
t-196 51h-495v-774z" />
    <glyph glyph-name="uni0413" unicode="&#x413;" horiz-adv-x="1094" 
d="M190 24q0 -11 -5 -18.5t-16 -7.5h-6q-27 0 -27 27v1374q0 17 6 22.5t21 5.5h854q13 0 21 -6.5t8 -18.5v-3q0 -27 -29 -27h-827v-1348z" />
    <glyph glyph-name="uni0414" unicode="&#x414;" horiz-adv-x="1409" 
d="M1354 48q8 -7 8 -18v-364q0 -12 -7.5 -19.5t-19.5 -7.5h-2q-9 0 -17 7t-8 19v336h-1210v-346q0 -11 -8 -19t-20 -8h-2q-10 0 -17 8t-7 19v374q0 11 7.5 18.5t18.5 7.5h66q7 13 23 39q69 117 113.5 222.5t76.5 294.5t32 476v314q0 12 8 20t19 8h747q11 0 19.5 -8t8.5 -20
v-1346h152q11 0 19 -7zM420 753q-15 -179 -66 -359.5t-152 -338.5h926v1320h-693v-211q0 -232 -15 -411z" />
    <glyph glyph-name="De.alt" horiz-adv-x="1389" 
d="M671 1412q7 19 26 19h5q17 0 24 -19l570 -1357h29q11 0 19 -7.5t8 -18.5v-336q0 -11 -6.5 -19t-19.5 -8h-2q-11 0 -18.5 8.5t-7.5 18.5v308h-1211v-346q0 -12 -7 -19.5t-19 -7.5h-3q-12 0 -18 8.5t-6 18.5v374q0 11 7.5 18.5t18.5 7.5h41zM1238 55l-539 1283l-541 -1283
h1080z" />
    <glyph glyph-name="uni0416" unicode="&#x416;" horiz-adv-x="1663" 
d="M736 664q-32 10 -66 33l-544 -681q-13 -16 -24 -16h-1q-11 0 -19.5 8t-8.5 19q0 7 6 16l548 687q-19 21 -84 117l-21 31l-268 385q-37 51 -78 84.5t-106 33.5q-12 0 -19 7t-7 18v2q0 11 8.5 18.5t19.5 7.5q62 0 120 -32.5t102 -97.5l273 -397q58 -85 95 -126.5t69.5 -58
t75.5 -16.5v700q0 11 8 18t20 7h1q10 0 17.5 -7.5t7.5 -17.5v-700q43 0 75.5 16.5t69.5 58t95 126.5l273 397q44 65 102 97.5t120 32.5q11 0 19.5 -7.5t8.5 -18.5v-2q0 -11 -7 -18t-19 -7q-65 0 -106 -33.5t-78 -84.5l-268 -385l-21 -31q-65 -96 -84 -117l548 -687
q6 -9 6 -16q0 -11 -8.5 -19t-19.5 -8h-1q-11 0 -24 16l-544 681q-34 -23 -66 -33t-71 -12v-624q0 -10 -7 -19t-18 -9h-1q-12 0 -20 8.5t-8 19.5v624q-39 2 -71 12z" />
    <glyph glyph-name="uni0417" unicode="&#x417;" horiz-adv-x="979" 
d="M788 689.5q59 -55.5 92 -131t33 -160.5q0 -108 -53.5 -199.5t-145 -145t-199.5 -53.5h-128q-101 0 -190.5 48.5t-141.5 131.5q-6 10 -6 18q0 12 11 20l3 2q5 3 11 3q15 0 26 -14q45 -70 122 -112.5t165 -42.5h128q93 0 172 46.5t125.5 125.5t46.5 172q0 90 -45 169.5
t-121 127.5t-166 48h-180q-12 0 -20.5 7.5t-8.5 18.5v3q0 9 6.5 17.5t21.5 8.5h180q71 0 135.5 39.5t103.5 106t39 143.5q0 78 -39 144.5t-105.5 105.5t-144.5 39h-155q-80 0 -148.5 -41t-104.5 -110q-9 -17 -28 -17q-10 0 -16 7l-2 2q-6 5 -6 17t4 17q50 83 128.5 130.5
t172.5 47.5h155q93 0 172 -46t125 -125t46 -171q0 -103 -57 -188.5t-148 -125.5q76 -28 135 -83.5z" />
    <glyph glyph-name="uni0418" unicode="&#x418;" horiz-adv-x="1493" 
d="M1262 1407q13 19 29 19h5q27 0 27 -27v-1371q0 -28 -27 -28h-1q-26 0 -26 28v1300l-1054 -1310q-16 -18 -29 -18h-8q-24 0 -24 28v1372q0 27 26 27h1q28 0 28 -27v-1300z" />
    <glyph glyph-name="uni0419" unicode="&#x419;" horiz-adv-x="1493" 
d="M866.5 1607q42.5 23 67 61t24.5 81q0 35 -25 36h-3q-25 0 -25 -35q0 -24 -17.5 -51.5t-47.5 -46t-64 -18.5q-38 0 -67.5 17.5t-45.5 44.5t-16 52q0 17 -5.5 26.5t-18.5 10.5h-2q-26 0 -26 -37q0 -42 23.5 -80t64.5 -61t91 -23t92.5 23zM186 0h-6q-26 0 -26 33v1367
q0 27 26 27h1q28 0 28 -27v-1300l1053 1308q16 19 30 19h5q13 -1 19.5 -9t6.5 -18v-1367q0 -15 -6.5 -24t-20.5 -9h-1q-26 0 -26 33v1296l-1054 -1311q-16 -18 -29 -18z" />
    <glyph glyph-name="uni041A" unicode="&#x41a;" horiz-adv-x="1198" 
d="M162 1423q8 7 20 7h1q10 0 17.5 -7.5t7.5 -17.5v-704q66 3 104.5 17.5t74 51t103.5 122.5l328 412q43 55 111 89.5t138 34.5q11 0 19.5 -7.5t8.5 -18.5v-2q0 -11 -7 -18t-19 -7q-58 0 -99 -18.5t-71 -48.5t-76 -88l-288 -357q-7 -8 -13 -16.5t-12 -14.5l-9 -12l653 -777
q6 -9 6 -16q0 -11 -8.5 -19t-19.5 -8h-1q-11 0 -24 16l-638 761q-41 -56 -90.5 -84t-88.5 -35.5t-82 -10.5v-619q0 -10 -7 -19t-18 -9h-1q-12 0 -20 8.5t-8 19.5v1377q0 11 8 18z" />
    <glyph glyph-name="uni041B" unicode="&#x41b;" horiz-adv-x="1386" 
d="M324.5 1420.5q6.5 6.5 18.5 6.5h857q15 0 21.5 -6t6.5 -22v-1369q0 -12 -7 -21t-18 -9h-1q-29 0 -29 30v1342h-799v-1081q0 -49 -23.5 -116t-87 -120t-172.5 -53q-15 0 -25 7t-10 23v2q0 14 11 19t24 5q68 0 119.5 30t79.5 83t28 119v1115q0 9 6.5 15.5z" />
    <glyph glyph-name="El.alt" horiz-adv-x="1286" 
d="M633 1426h5q6 0 13 -4.5t12 -16.5l573 -1365q3 -7 3 -13q0 -11 -9 -19t-19 -8h-3q-14 0 -22 19l-162 387h-778l-162 -386q-8 -20 -21 -20h-3q-12 0 -20 6.5t-8 18.5q0 8 3 15l574 1365q8 19 24 21zM1001 461l-365 874l-367 -874h732z" />
    <glyph glyph-name="uni041C" unicode="&#x41c;" horiz-adv-x="1699" 
d="M162 28q-3 -28 -29 -28h-1q-24 3 -24 27v6l116 1370q1 9 9 16.5t20 8.5h4q4 0 9.5 -3.5t8.5 -10.5l560 -1189l554 1185q5 10 11.5 14t11.5 4h1q12 0 20 -6.5t9 -18.5l117 -1373v-6q0 -21 -24 -24h-1q-14 0 -20.5 5.5t-8.5 20.5l-109 1270l-537 -1147q-7 -13 -22 -13h-3
q-16 0 -23 13l-541 1149z" />
    <glyph glyph-name="uni041E" unicode="&#x41e;" horiz-adv-x="1657" 
d="M183 1079.5q99 167.5 267.5 265.5t367.5 98q200 0 366 -98t262.5 -265.5t96.5 -367.5q0 -199 -96.5 -366t-262.5 -264t-366 -97t-368.5 97t-267 264t-98.5 366q0 200 99 367.5zM233 374.5q90 -153.5 245 -242.5t340 -89t338 89t241 242t88 338q0 186 -88 340t-241 243
t-338 89t-340 -89.5t-245 -243.5t-90 -339q0 -184 90 -337.5z" />
    <glyph glyph-name="uni041F" unicode="&#x41f;" horiz-adv-x="1293" 
d="M1132 9q-7 -9 -18 -9h-1q-29 0 -29 30v1342h-878v-1342q0 -12 -7 -21t-18 -9h-1q-14 0 -22 8t-8 22v1375q0 9 6.5 15.5t18.5 6.5h936q15 0 21.5 -6t6.5 -22v-1369q0 -12 -7 -21z" />
    <glyph glyph-name="uni0420" unicode="&#x420;" horiz-adv-x="1159" 
d="M179 1427h466q120 0 222 -60t162 -162t60 -223q0 -120 -59.5 -221.5t-161.5 -161t-223 -59.5h-439v-508q0 -32 -26 -32h-1q-27 0 -27 32v1368q0 27 27 27zM206 596h439q107 0 196 51.5t140 140t51 194.5q0 107 -51 196.5t-140 141.5t-196 52h-439v-776z" />
    <glyph glyph-name="uni0421" unicode="&#x421;" horiz-adv-x="1402" 
d="M1268 205q10 0 17 -7l2 -2q6 -6 6 -16q0 -16 -13 -26q-95 -81 -210 -125.5t-243 -44.5q-200 0 -369 97.5t-268.5 265t-99.5 366.5q0 200 99 367t268.5 264.5t369.5 97.5q128 0 242.5 -43.5t211.5 -123.5q16 -15 16 -27q0 -3 -1.5 -6t-1.5 -4l-2 -4l-1 -1q-9 -9 -22 -9
q-11 0 -22 8q-197 152 -420 152q-185 0 -341.5 -89t-247.5 -243t-91 -339t91.5 -338.5t247.5 -243t341 -89.5q223 0 419 154q11 9 22 9z" />
    <glyph glyph-name="uni0422" unicode="&#x422;" horiz-adv-x="1202" 
d="M97 1427h1024q26 0 26 -27v-1q0 -28 -26 -28h-483v-1343q0 -28 -26 -28h-1q-28 0 -28 28v1343h-486q-28 0 -28 28v1q0 27 28 27z" />
    <glyph glyph-name="uni0423" unicode="&#x423;" horiz-adv-x="899" 
d="M17 1402q0 12 10.5 19t21.5 7q15 0 25 -24l375 -872l363 873q9 22 25 22q11 0 20 -8.5t9 -19.5q0 -3 -2 -11l-393 -943l-78 -209q-40 -108 -121.5 -174t-212.5 -66q-14 0 -22 6.5t-8 14.5v2q0 28 33 28q108 3 175.5 54.5t105.5 152.5l77 204l-400 931q-3 6 -3 13z" />
    <glyph glyph-name="uni0424" unicode="&#x424;" horiz-adv-x="1450" 
d="M719 8q-7 8 -7 20v93q-169 5 -312 87.5t-226.5 218t-83.5 294.5t84 294.5t227 218t311 87.5v90q0 11 7.5 19.5t18.5 9.5h2q11 -1 18.5 -9.5t7.5 -19.5v-90q168 -5 311 -87.5t227 -218t84 -294.5t-83.5 -294.5t-226.5 -218t-312 -87.5v-93q0 -12 -7 -20t-19 -8h-2
q-12 0 -19 8zM220 453.5q76 -123.5 206 -198.5t286 -80v1092q-156 -5 -286 -79.5t-206 -198t-76 -268.5q0 -144 76 -267.5zM1258 989.5q-76 123.5 -206 198t-286 79.5v-1092q156 5 286 80t206 198.5t76 267.5q0 145 -76 268.5z" />
    <glyph glyph-name="uni0425" unicode="&#x425;" horiz-adv-x="1124" 
d="M1042 43q6 -10 6 -18q0 -11 -8.5 -18t-17.5 -7h-1q-16 0 -25 13l-443 652l-441 -651q-10 -14 -22 -14q-10 0 -19.5 6.5t-9.5 19.5q0 8 6 18l454 670l-452 669q-6 8 -6 18q0 11 8 18.5t17 7.5h1q14 0 24 -14l440 -651l443 653q11 14 23 14q10 0 19.5 -7.5t9.5 -19.5
q0 -8 -6 -17l-456 -671z" />
    <glyph glyph-name="uni0426" unicode="&#x426;" horiz-adv-x="1343" 
d="M1088 1398q0 30 28 30h1q12 0 18.5 -8.5t6.5 -21.5v-1343h116q16 0 23.5 -5.5t7.5 -21.5v-339q0 -31 -26 -31h-1q-27 0 -27 31v311h-1052q-15 0 -21 5.5t-6 22.5v1369q0 31 27 31h2q25 0 25 -31v-1342h878v1343z" />
    <glyph glyph-name="uni0427" unicode="&#x427;" horiz-adv-x="1074" 
d="M116 1421.5q9 -7.5 9 -23.5v-588q0 -99 52 -183.5t136.5 -134t177.5 -49.5q109 0 205 45.5t153.5 122.5t57.5 167v620q0 14 7.5 22.5t20.5 8.5h2q11 0 18.5 -9t7.5 -22v-1365q0 -15 -7 -24t-19 -9h-2q-14 0 -21 9t-7 24v572q-35 -60 -98.5 -110t-146 -79.5t-171.5 -29.5
q-107 0 -204.5 56.5t-157.5 150.5t-60 201v605q0 16 8.5 23t18.5 7h2q9 0 18 -7.5z" />
    <glyph glyph-name="uni0428" unicode="&#x428;" horiz-adv-x="1783" 
d="M888 1427h2q12 0 18.5 -9t6.5 -22v-1341h631v1341q0 31 27 31h2q26 0 26 -31v-1368q0 -28 -26 -28h-1374q-15 0 -21 5.5t-6 22.5v1369q0 14 7 22t20 8h2q12 0 18.5 -8.5t6.5 -21.5v-1342h632v1341q0 31 28 31z" />
    <glyph glyph-name="uni0429" unicode="&#x429;" horiz-adv-x="1779" 
d="M868 1428h1q11 0 18.5 -9t7.5 -22v-1342h631v1342q0 31 28 31h2q12 0 18.5 -8.5t6.5 -22.5v-1342h124q11 0 17 -4.5t6 -22.5v-339q0 -31 -25 -31h-3q-27 0 -27 31v311h-1492q-15 0 -21 5.5t-6 22.5v1373q0 13 7.5 20t18.5 7h2q15 0 20.5 -9t5.5 -18v-1346h632v1342
q0 31 28 31z" />
    <glyph glyph-name="uni042A" unicode="&#x42a;" horiz-adv-x="1135" 
d="M40 1427h184q9 0 17.5 -7.5t8.5 -19.5v-517h386q121 0 222.5 -59.5t161.5 -160.5t60 -221t-60 -222t-162 -162t-222 -60h-421q-12 0 -15.5 7t-3.5 20v1347h-156q-32 0 -32 27v1q0 27 32 27zM250 53h386q107 0 196 51.5t140 140.5t51 197q0 106 -51 194.5t-140 140
t-196 51.5h-386v-775z" />
    <glyph glyph-name="uni042B" unicode="&#x42b;" horiz-adv-x="1475" 
d="M1271 1418q7 9 20 9h1q26 0 26 -32v-1362q0 -33 -26 -33h-1q-14 0 -20.5 9t-6.5 24v1362q0 14 7 23zM1022 220q-60 -102 -162 -162t-222 -60h-472q-12 0 -15.5 7t-3.5 20v1372q0 12 8 20t19 8h1q11 0 18.5 -8t7.5 -19v-515h437q121 0 222.5 -59.5t161.5 -160.5t60 -221
t-60 -222zM201 53h437q107 0 196 51.5t140 140.5t51 197q0 106 -51 194.5t-140 140t-196 51.5h-437v-775z" />
    <glyph glyph-name="uni042C" unicode="&#x42c;" horiz-adv-x="1194" 
d="M1022 220q-60 -102 -162 -162t-222 -60h-472q-12 0 -15.5 7t-3.5 20v1373q0 12 8 20t19 8h1q11 0 18.5 -8t7.5 -19v-516h437q121 0 222.5 -59.5t161.5 -160.5t60 -221t-60 -222zM201 53h437q107 0 196 51.5t140 140.5t51 197q0 106 -51 194.5t-140 140t-196 51.5h-437
v-775z" />
    <glyph glyph-name="uni042D" unicode="&#x42d;" horiz-adv-x="1377" 
d="M1168 1053q-91 149 -245.5 239.5t-333.5 90.5q-110 0 -201 -31t-138.5 -61t-87.5 -61q-10 -9 -23 -9q-10 0 -18 8l-1 1q-7 4 -7 19q0 14 9 21q96 82 215.5 127t251.5 45q198 0 365 -98.5t264.5 -266.5t97.5 -366t-97.5 -365t-264 -264.5t-365.5 -97.5q-241 0 -464 167
q-16 10 -16 26q0 11 8.5 20t18.5 9q13 0 24 -10q90 -74 199 -114t230 -40q177 0 328 86t242.5 233t99.5 323h-737q-16 0 -23 8t-7 18v2q0 10 6 18t24 8h737q0 166 -91 315z" />
    <glyph glyph-name="uni042E" unicode="&#x42e;" horiz-adv-x="1993" 
d="M183 1440h1q26 0 26 -31v-654h238q10 188 110 346t263.5 250t354.5 92q197 0 364.5 -98.5t266.5 -266.5t99 -366q0 -197 -99 -364t-266.5 -265t-364.5 -98q-196 0 -362 96t-264.5 260t-102.5 359h-237v-669q0 -14 -6.5 -22.5t-19.5 -8.5h-1q-27 0 -27 31v1378q0 31 27 31
zM593 376.5q91 -154.5 246 -245.5t337 -91q181 0 336.5 91t247 245.5t91.5 335.5q0 182 -91.5 337.5t-247 247t-336.5 91.5q-182 0 -337 -91.5t-246 -247t-91 -337.5q0 -181 91 -335.5z" />
    <glyph glyph-name="uni0490" unicode="&#x490;" horiz-adv-x="1119" 
d="M208 28q0 -30 -26 -30h-1q-27 0 -27 30v1371q0 17 6 22.5t21 5.5h828v209q0 14 8 22t20 8h3q11 0 17.5 -8.5t6.5 -21.5v-237q0 -12 -7.5 -19.5t-21.5 -7.5h-827v-1344z" />
    <glyph glyph-name="uni0402" unicode="&#x402;" horiz-adv-x="1318" 
d="M1102.5 748.5q-53.5 77.5 -132 116.5t-153.5 39q-93 0 -170.5 -43t-123 -117.5t-45.5 -164.5v-554q0 -11 -7.5 -19t-20.5 -8h-1q-10 0 -18 7t-8 20v1347h-385q-11 0 -19 7.5t-8 19.5v2q0 10 8 18t19 8h824q11 0 19.5 -8t8.5 -18v-2q0 -11 -8.5 -19t-19.5 -8h-383v-601
q51 88 141 139t197 51t197.5 -53.5t143 -144t52.5 -197.5v-352q0 -72 -32.5 -136.5t-97.5 -105.5t-157 -41q-15 0 -22.5 8t-7.5 17v2q0 28 33 28q70 0 122.5 31t80 83t27.5 112v352q0 107 -53.5 184.5z" />
    <glyph glyph-name="uni0404" unicode="&#x404;" horiz-adv-x="1377" 
d="M922 730q6 -8 6 -18v-2q0 -10 -7 -18t-23 -8h-737q8 -176 99.5 -323t242.5 -233t328 -86q121 0 230 40t199 114q11 10 24 10q10 0 18.5 -9t8.5 -20q0 -16 -16 -26q-223 -167 -464 -167q-199 0 -365.5 97.5t-264 264.5t-97.5 365t97.5 366t264.5 266.5t365 98.5
q132 0 251.5 -45t215.5 -127q9 -7 9 -21q0 -15 -7 -19l-1 -1q-8 -8 -18 -8q-12 0 -23 9q-40 31 -87.5 61t-138.5 61t-201 31q-179 0 -333.5 -90.5t-245.5 -239.5t-91 -315h737q18 0 24 -8z" />
    <glyph glyph-name="uni0403" unicode="&#x403;" horiz-adv-x="1094" 
d="M637 1587h-2q-10 1 -18.5 7.5t-8.5 17.5q0 8 5 18l128 229q7 13 12.5 16.5t12.5 3.5h2q10 -1 18.5 -8.5t8.5 -18.5q0 -9 -5 -17l-127 -228q-12 -20 -26 -20zM190 24q0 -11 -5 -18.5t-16 -7.5h-6q-27 0 -27 27v1374q0 17 6 22.5t21 5.5h854q13 0 21 -6.5t8 -18.5v-3
q0 -27 -29 -27h-827v-1348z" />
    <glyph glyph-name="uni0408" unicode="&#x408;" 
d="M198.5 1419q6.5 9 20.5 9h2q12 0 18.5 -10t6.5 -23v-1475q0 -83 -43 -154.5t-117 -114t-163 -42.5q-69 0 -127 21t-99 62q-20 20 -20 33q0 9 8 17l2 2q5 5 13 5q12 0 23 -11q70 -74 197 -74q79 0 141 38t96.5 98t34.5 124v1471q0 15 6.5 24z" />
    <glyph glyph-name="uni0409" unicode="&#x409;" horiz-adv-x="2024" 
d="M294 1420.5q7 6.5 18 6.5h794q12 0 18 -6.5t6 -22.5v-514h389q120 0 222 -59.5t161.5 -160.5t59.5 -221t-59.5 -222t-161.5 -161.5t-222 -59.5h-425q-8 0 -13.5 9t-5.5 18v1345h-733v-1096q0 -72 -32.5 -136.5t-97.5 -105.5t-157 -41q-15 0 -22.5 8t-7.5 17v2q0 28 33 28
q70 0 122 31t79.5 83t27.5 112v1130q0 10 7 16.5zM1130 55h389q107 0 196 51.5t140 140.5t51 196t-51 195t-140 139t-196 51h-389v-773z" />
    <glyph glyph-name="uni040A" unicode="&#x40a;" horiz-adv-x="1896" 
d="M184 1427h1q10 0 17.5 -7.5t7.5 -23.5v-515h735v517q0 13 7.5 21t19.5 8h1q12 0 19 -8t7 -21v-515h389q121 0 222.5 -59.5t161.5 -160.5t60 -221q0 -121 -60 -223t-162 -161.5t-222 -59.5l-423 2q-10 0 -15 7.5t-5 17.5v802h-735v-796q0 -31 -26 -31h-1q-27 0 -27 31
v1366q0 30 28 30zM999 53h389q107 0 196 51.5t140 140.5t51 197q0 106 -51 194.5t-140 140t-196 51.5h-389v-775z" />
    <glyph glyph-name="uni040B" unicode="&#x40b;" horiz-adv-x="1413" 
d="M509.5 6q-7.5 -8 -20.5 -8h-1q-10 0 -18 7t-8 20v1348h-395q-11 0 -19 7.5t-8 19.5v2q0 10 8 18t19 8h844q11 0 19.5 -8t8.5 -18v-2q0 -11 -8.5 -19t-19.5 -8h-393v-602q51 88 141 139t197 51q106 0 196 -52t143 -141t53 -193l1 -550q0 -11 -7.5 -19t-20.5 -8h-1
q-10 0 -17.5 7t-7.5 20v539q0 107 -53.5 184.5t-132 116.5t-153.5 39q-93 0 -170.5 -43t-123 -117.5t-45.5 -164.5v-554q0 -11 -7.5 -19z" />
    <glyph glyph-name="uni040C" unicode="&#x40c;" horiz-adv-x="1197" 
d="M647 1588h-2q-10 1 -18.5 7.5t-8.5 17.5q0 8 5 18l128 229q7 13 12.5 16.5t12.5 3.5h2q10 -1 18.5 -8.5t8.5 -18.5q0 -9 -5 -17l-127 -228q-12 -20 -26 -20zM1162 21q0 -11 -6 -19t-18 -8h-2q-9 0 -14 3.5t-9 7.5t-5 6l-641 766q-57 -63 -119.5 -94.5t-140.5 -34.5v-620
q0 -12 -7.5 -20t-17.5 -8h-1q-12 0 -19.5 8t-7.5 20v1375q0 14 8 19.5t18 5.5h1q11 0 18.5 -7t7.5 -18v-701q57 0 115.5 26t96.5 75q35 45 71 89t71 89q153 188 260 326q44 56 108 88.5t135 32.5q11 0 18.5 -7t7.5 -18v-2q0 -18 -10 -22.5t-36 -7.5q-49 -4 -93 -23.5
t-93 -80.5l-357 -447l656 -783q5 -8 5 -16z" />
    <glyph glyph-name="uni040E" unicode="&#x40e;" horiz-adv-x="894" 
d="M375 1564q-41 23 -64.5 61t-23.5 80q0 37 26 37h2q13 -1 18.5 -10.5t5.5 -26.5q0 -25 16 -52t45.5 -44.5t67.5 -17.5q34 0 64 18.5t47.5 46t17.5 51.5q0 35 25 35h3q25 -1 25 -36q0 -43 -24.5 -81t-67 -61t-92.5 -23t-91 23zM17 1402q0 12 10.5 19t21.5 7q15 0 25 -24
l375 -872l363 873q9 22 25 22q11 0 20 -8.5t9 -19.5q0 -3 -2 -11l-393 -943l-78 -209q-40 -108 -121.5 -174t-212.5 -66q-14 0 -22 6.5t-8 14.5v2q0 28 33 28q108 3 175.5 54.5t105.5 152.5l77 204l-400 931q-3 6 -3 13z" />
    <glyph glyph-name="uni0431" unicode="&#x431;" horiz-adv-x="1319" 
d="M407 70.5q-135 76.5 -222 217t-87 322.5v352q0 206 70 341.5t184 199t251 63.5q30 0 53 -1t38 -2q43 -3 86 -3q91 0 150 25q15 7 26 7q9 0 16 -7t7 -17q0 -33 -69 -48t-133 -15q-31 0 -91 4q-15 1 -37.5 2t-52.5 1q-109 0 -209 -53t-166 -177.5t-66 -325.5v-98
q38 103 121.5 187.5t190.5 132.5t212 48q156 0 289.5 -85t212.5 -227t79 -304q0 -164 -78.5 -306t-212 -226t-290.5 -84q-137 0 -272 76.5zM415.5 1096.5q-120.5 -75.5 -191 -204.5t-70.5 -282t70.5 -281.5t191 -204t263.5 -75.5q142 0 262.5 75.5t191.5 204.5t71 281
t-71 281.5t-191.5 205t-262.5 75.5q-143 0 -263.5 -75.5z" />
    <glyph glyph-name="uni0432" unicode="&#x432;" horiz-adv-x="1168" 
d="M983 779q-39 -68 -110 -124q65 -24 116 -70.5t79 -108.5t28 -130q0 -89 -42.5 -169t-117 -128.5t-165.5 -48.5h-624q-12 0 -19 7.5t-7 18.5v1174q0 11 7 18.5t19 7.5h565q85 0 156 -39.5t112.5 -109t41.5 -153.5q0 -77 -39 -145zM937.5 1048.5q-31.5 57.5 -86.5 91
t-124 33.5h-552v-509h552q68 0 123.5 35t87 94t31.5 128q0 70 -31.5 127.5zM175 53h609q65 0 125 43t97 110.5t37 137.5t-35.5 131.5t-95 98t-129.5 36.5h-608v-557z" />
    <glyph glyph-name="uni0433" unicode="&#x433;" horiz-adv-x="1088" 
d="M211 35q0 -35 -25 -35q-17 0 -23 8.5t-6 26.5v1155q0 20 9 28t27 8h839q35 0 35 -26q0 -12 -9 -20t-26 -8h-821v-1137z" />
    <glyph glyph-name="uni0434" unicode="&#x434;" horiz-adv-x="1446" 
d="M54 -267v289q0 14 10.5 24t24.5 10h63q110 134 165 282.5t71 300t16 356.5l-1 195q0 15 9 25.5t23 10.5h759q15 0 24.5 -10.5t9.5 -25.5v-1134h128q14 0 24 -10t10 -24v-286q0 -32 -25 -32h-2q-14 0 -20 9t-6 27v260h-1230v-267q0 -29 -24 -29h-1q-28 0 -28 29zM457 1173
l1 -193q0 -195 -15.5 -346.5t-68.5 -302.5t-158 -278h959v1120h-718z" />
    <glyph glyph-name="uni0451" unicode="&#x451;" horiz-adv-x="1452" 
d="M543 1516h61q24 0 24 -28v-54q0 -28 -24 -28h-60q-15 0 -20.5 6.5t-5.5 21.5v57q0 25 25 25zM853 1516h61q24 0 24 -28v-54q0 -28 -24 -28h-60q-15 0 -20.5 6.5t-5.5 21.5v57q0 25 25 25zM143 602q0 -154 77.5 -286.5t209.5 -211t287 -78.5q95 0 168 22t121.5 52
t105.5 75q11 9 24 9q9 0 15 -6l2 -2q6 -6 6 -15q0 -14 -12 -25q-88 -75 -193.5 -119t-236.5 -44q-170 0 -314.5 85t-229.5 229.5t-85 314.5t85 316.5t229 233t313 86.5q175 0 321 -89.5t230 -228.5t84 -279v-4q0 -27 -28 -27h-1179v-8zM447 1113q-125 -70 -205 -189
t-96 -260h1149q-8 118 -85 239t-207 200.5t-288 79.5q-143 0 -268 -70z" />
    <glyph glyph-name="uni0437" unicode="&#x437;" horiz-adv-x="1038" 
d="M130 208q8 0 15 -4t10 -10q44 -74 113 -107t139 -33h111q78 0 147.5 38t112 103.5t42.5 143.5q0 75 -40.5 138.5t-108 100.5t-144.5 37h-205q-35 0 -35 27v2q0 25 35 25h204q65 0 122 34t91 91t34 122t-36.5 124t-95.5 95.5t-123 36.5h-85q-76 0 -134 -37t-90 -100
q-7 -13 -24 -13q-8 0 -13 3l-4 2q-11 5 -11 18q0 10 6 20q48 92 131 126.5t194 34.5h30q84 0 154.5 -41.5t112 -113t41.5 -155.5t-44.5 -157.5t-116.5 -113.5q97 -47 153 -126.5t56 -179.5q0 -96 -48 -173.5t-129.5 -121.5t-178.5 -44h-105q-92 0 -177 44t-126 119
q-6 11 -6 19q0 13 10 20l3 2q4 4 13 4z" />
    <glyph glyph-name="uni0438" unicode="&#x438;" horiz-adv-x="1275" 
d="M1097 1219q7 7 21 7h1q25 -1 27 -31v-1163q0 -32 -24 -32h-4q-27 2 -27 32l-1 1090l-879 -1107q-13 -15 -22 -15h-9q-21 5 -21 32l-1 1163q0 31 28 31h1q14 0 20.5 -9t6.5 -22v-1090z" />
    <glyph glyph-name="uni043A" unicode="&#x43a;" horiz-adv-x="1147" 
d="M555.5 856q155.5 200 184.5 241q53 70 101.5 91t98.5 21q24 0 34 -5.5t10 -19.5q0 -16 -10 -22t-28 -6q-50 0 -84 -18.5t-66 -59.5l-290 -372l580 -654q12 -15 12 -28q0 -10 -7.5 -17t-19.5 -7h-1q-11 0 -29 19l-568 642q2 2 -29 -35q-35 -43 -63.5 -71.5t-76 -53.5
t-115.5 -35v-436q0 -17 -8.5 -23.5t-19.5 -6.5q-26 0 -26 30v1162q0 17 8 25.5t19 8.5h1q26 0 26 -35v-668q58 7 103.5 35t74.5 59q33 39 188.5 239z" />
    <glyph glyph-name="uni043B" unicode="&#x43b;" horiz-adv-x="1353" 
d="M411 1171v-859q0 -86 -38 -159.5t-116 -118t-191 -44.5q-16 0 -23.5 6t-9 14t-0.5 8v2q0 7 7.5 17t29.5 10q89 0 153.5 34t98.5 95.5t34 142.5v875q0 31 28 31h819q14 -1 19.5 -8.5t5.5 -22.5v-1162q0 -32 -26 -32h-1q-27 0 -27 32v1139h-763z" />
    <glyph glyph-name="el.alt" horiz-adv-x="1091" 
d="M1080 25q0 -11 -9.5 -18t-19.5 -7q-17 0 -24 18l-472 1118l-477 -1119q-7 -18 -24 -18q-10 0 -19.5 7t-9.5 18q0 6 3 13l500 1168q5 11 12 15.5t13 4.5h4q5 0 12.5 -4.5t12.5 -15.5l495 -1167q3 -7 3 -13z" />
    <glyph glyph-name="uni043C" unicode="&#x43c;" horiz-adv-x="1502" 
d="M163 30q-3 -30 -29 -30h-1q-24 0 -24 28v6l92 1163q1 11 7 20t17 9h9q16 -2 24 -19l507 -1117l507 1117q5 11 11.5 15t15.5 4h5q11 0 17.5 -9t7.5 -20l92 -1163v-6q0 -28 -24 -28h-1q-27 0 -29 30l-85 1066l-489 -1074q-10 -22 -25 -22h-5q-17 0 -26 22l-489 1074z" />
    <glyph glyph-name="uni043D" unicode="&#x43d;" horiz-adv-x="1306" 
d="M209 591v-559q0 -32 -27 -32h-1q-27 0 -27 32v1163q0 31 27 31h1q27 0 27 -31v-549h870v549q0 31 27 31h1q27 0 27 -31v-1163q0 -32 -27 -32h-1q-27 0 -27 32v559h-870z" />
    <glyph glyph-name="uni043F" unicode="&#x43f;" horiz-adv-x="1157" 
d="M208 1171v-1139q0 -32 -26 -32h-1q-27 0 -27 32v1162q0 32 26 32h875q26 0 26 -32v-1162q0 -32 -26 -32h-1q-27 0 -27 32v1139h-819z" />
    <glyph glyph-name="uni0443" unicode="&#x443;" horiz-adv-x="1129" 
d="M406.5 -397.5q-7.5 -4.5 -12.5 -4.5q-11 0 -19 6.5t-8 19.5q0 9 4 17l157 382l-489 1164q-3 6 -3 12q0 12 9.5 19.5t19.5 7.5q16 0 24 -19l467 -1117l467 1114q9 22 24 22q12 0 20.5 -7t8.5 -19q0 -7 -3 -16l-654 -1565q-5 -12 -12.5 -16.5z" />
    <glyph glyph-name="uni0444" unicode="&#x444;" horiz-adv-x="1438" 
d="M388 72.5q-140 86.5 -222 228.5t-82 309q0 168 82 311t221.5 229.5t305.5 91.5v307q0 31 27 31h1q26 0 26 -31v-307q165 -8 303 -95t218 -229.5t80 -307.5t-80 -306.5t-218 -228t-303 -94.5v-306q0 -32 -26 -32h-1q-27 0 -27 32v306q-165 5 -305 91.5zM212.5 328.5
q74.5 -130.5 202 -209.5t278.5 -84v1154q-151 -5 -278.5 -84t-202 -210t-74.5 -284q0 -152 74.5 -282.5zM1218.5 891q-72.5 129 -197 208.5t-274.5 88.5v-1152q149 9 274 88.5t197.5 208.5t72.5 278q0 151 -72.5 280z" />
    <glyph glyph-name="uni0446" unicode="&#x446;" horiz-adv-x="1259" 
d="M181 0q-27 0 -27 31v1163q0 32 27 32h1q26 0 26 -32v-1140h819v1140q0 32 27 32h1q26 0 26 -32v-1140h121q11 0 17.5 -7.5t6.5 -19.5v-250q0 -31 -26 -31h-1q-27 0 -27 31v223h-991z" />
    <glyph glyph-name="uni0447" unicode="&#x447;" horiz-adv-x="1128" 
d="M167 606q39 -97 138 -171.5t266 -74.5q83 0 167.5 43.5t147 119.5t83.5 169v501q0 15 7.5 23.5t21.5 8.5h1q27 0 27 -32v-1163q0 -30 -27 -30h-1q-26 0 -26 30l-3 543q-29 -79 -96.5 -139.5t-150.5 -94t-159 -33.5q-177 0 -286.5 79t-156 188t-46.5 206v414q0 32 26 32h1
q27 0 27 -32v-414q0 -76 39 -173z" />
    <glyph glyph-name="uni0448" unicode="&#x448;" horiz-adv-x="1646" 
d="M181 1226h1q26 0 26 -32v-1140h594v1140q0 32 27 32h1q26 0 26 -32v-1140h590v1140q0 32 27 32h1q26 0 26 -32v-1163q0 -31 -26 -31h-1293q-27 0 -27 31v1163q0 32 27 32z" />
    <glyph glyph-name="uni0449" unicode="&#x449;" horiz-adv-x="1679" 
d="M161 1226h1q26 0 26 -32v-1140h594v1140q0 32 27 32h1q26 0 26 -32v-1140h590v1140q0 32 27 32h1q26 0 26 -32v-1140h126q26 0 26 -32v-245q0 -31 -26 -31h-1q-27 0 -27 31v223h-1417q-14 0 -20.5 7t-6.5 24v1163q0 32 27 32z" />
    <glyph glyph-name="uni044A" unicode="&#x44a;" horiz-adv-x="1109" 
d="M19 1199v1q0 26 31 26h215q26 0 26 -31v-393h395q107 0 195 -55t139 -147t51 -198q0 -107 -51.5 -199.5t-141 -147.5t-198.5 -55h-392q-27 0 -40 12t-13 39v1119h-185q-31 0 -31 29zM965 574.5q-47 76.5 -124 121t-162 44.5h-388v-681h388q86 0 163 46.5t123.5 126
t46.5 173.5q0 93 -47 169.5z" />
    <glyph glyph-name="uni044B" unicode="&#x44b;" horiz-adv-x="1260" 
d="M128 12q-13 12 -13 39v1146q0 31 29 31h1q26 0 26 -31v-395h395q107 0 195 -55t139 -147t51 -198q0 -107 -51.5 -199.5t-141 -147.5t-198.5 -55h-392q-27 0 -40 12zM1112 1226h1q27 0 27 -31v-1163q0 -32 -27 -32h-1q-14 0 -21 8.5t-7 23.5v1163q0 31 28 31zM845 574.5
q-47 76.5 -124 121t-162 44.5h-388v-681h388q86 0 163 46.5t123.5 126t46.5 173.5q0 93 -47 169.5z" />
    <glyph glyph-name="uni044C" unicode="&#x44c;" horiz-adv-x="1004" 
d="M128 12q-13 12 -13 39v1145q0 31 29 31h1q26 0 26 -31v-394h395q107 0 195 -55t139 -147t51 -198q0 -107 -51.5 -199.5t-141 -147.5t-198.5 -55h-392q-27 0 -40 12zM845 574.5q-47 76.5 -124 121t-162 44.5h-388v-681h388q86 0 163 46.5t123.5 126t46.5 173.5
q0 93 -47 169.5z" />
    <glyph glyph-name="uni044D" unicode="&#x44d;" horiz-adv-x="1154" 
d="M269 66q91 -31 195 -31q151 0 278.5 71t205.5 194.5t87 272.5h-604q-31 0 -31 27v1q0 26 31 26h604q-6 156 -89 282.5t-214.5 199t-277.5 74.5q-92 0 -180 -32.5t-169 -95.5q-10 -7 -20 -7q-27 0 -27 27q0 13 12 23q86 70 183.5 105t198.5 35q164 0 311.5 -82
t237.5 -226.5t90 -322.5q0 -171 -84.5 -315t-228.5 -228t-315 -84q-114 0 -213.5 34t-176.5 101q-13 10 -13 25q0 10 6.5 18t17.5 8q13 0 23 -9q71 -60 162 -91z" />
    <glyph glyph-name="uni044E" unicode="&#x44e;" horiz-adv-x="1702" 
d="M141 1225h1q27 0 27 -31v-556h224q8 165 93.5 304t226 220.5t305.5 81.5q172 0 319 -86t233.5 -231.5t86.5 -317.5q0 -170 -86.5 -314.5t-233.5 -229.5t-319 -85q-165 0 -306.5 81t-227 219.5t-91.5 303.5h-224v-552q0 -32 -27 -32h-1q-27 0 -27 32v1162q0 31 27 31z
M524.5 322q76.5 -132 207.5 -209.5t286 -77.5q157 0 291 77.5t213.5 209.5t79.5 287q0 156 -79.5 289.5t-213.5 212t-291 78.5q-155 0 -286 -78.5t-207.5 -212t-76.5 -289.5q0 -155 76.5 -287z" />
    <glyph glyph-name="uni0491" unicode="&#x491;" horiz-adv-x="1087" 
d="M181 35q0 -35 -25 -35q-17 0 -23 8.5t-6 26.5v1155q0 20 9 28t27 8h820v170q0 31 27 31h1q26 0 26 -31v-196q0 -12 -9 -20t-26 -8h-821v-1137z" />
    <glyph glyph-name="uni044F" unicode="&#x44f;" horiz-adv-x="1033" 
d="M182.5 556q-53.5 56 -83 130t-29.5 153q0 99 49.5 188.5t138 144t197.5 54.5h419q26 0 36 -12.5t10 -39.5v-1141q0 -33 -26 -33h-1q-10 0 -18.5 8t-8.5 24v410h-401q-50 0 -107 13l-214 -435q-9 -20 -24 -20h-2q-11 0 -18.5 7t-7.5 18q0 7 3 14l210 433q-69 28 -122.5 84
zM169.5 664.5q45.5 -78.5 121.5 -123.5t163 -45h412v676h-410q-88 0 -164.5 -46t-122 -123t-45.5 -166q0 -94 45.5 -172.5z" />
    <glyph glyph-name="uni0453" unicode="&#x453;" horiz-adv-x="1088" 
d="M702 1389h-2q-10 1 -18.5 7.5t-8.5 17.5q0 8 5 18l128 229q7 13 12.5 16.5t12.5 3.5h2q10 -1 18.5 -8.5t8.5 -18.5q0 -9 -5 -17l-127 -228q-12 -20 -26 -20zM211 35q0 -35 -25 -35q-17 0 -23 8.5t-6 26.5v1155q0 20 9 28t27 8h839q35 0 35 -26q0 -12 -9 -20t-26 -8h-821
v-1137z" />
    <glyph glyph-name="uni0452" unicode="&#x452;" horiz-adv-x="1301" 
d="M1068 918q-52 103 -149.5 170.5t-227.5 67.5q-110 0 -221.5 -58t-184 -155.5t-72.5 -209.5v-700q0 -15 -6.5 -24t-20.5 -9h-1q-14 0 -20.5 9t-6.5 24v1314h-92q-32 0 -32 27v1q0 27 32 27h92v144q0 15 6.5 24.5t20.5 9.5h1q14 0 20.5 -9.5t6.5 -24.5v-144h292
q12 0 20.5 -7.5t8.5 -20.5v-1q0 -10 -8.5 -18t-20.5 -8h-292v-422q46 82 121.5 147.5t170 102.5t195.5 37q140 0 248 -71t167 -184t59 -235l1 -689q0 -92 -12.5 -149.5t-53.5 -111t-127 -113.5q-11 -8 -21 -8q-13 0 -17.5 6.5l-4.5 6.5l-1 2q-3 3 -3 12q0 16 20 31
q72 52 107 95.5t46.5 93t11.5 129.5v685q0 103 -52 206z" />
    <glyph glyph-name="uni0454" unicode="&#x454;" horiz-adv-x="1131" 
d="M1055 166q11 0 17.5 -8t6.5 -18q0 -15 -13 -25q-77 -67 -176.5 -101t-213.5 -34q-171 0 -315 84t-228.5 228t-84.5 315q0 178 90 322.5t237.5 226.5t311.5 82q101 0 198.5 -35t183.5 -105q12 -10 12 -23q0 -27 -27 -27q-10 0 -20 7q-81 63 -169 95.5t-180 32.5
q-146 -2 -277.5 -74.5t-214.5 -199t-89 -282.5h604q31 0 31 -26v-1q0 -27 -31 -27h-604q9 -149 87 -272.5t205.5 -194.5t278.5 -71q104 0 195 31t162 91q11 9 23 9z" />
    <glyph glyph-name="uni0456" unicode="&#x456;" 
d="M171 1563h49q19 0 19 -22v-44q0 -22 -19 -22h-48q-12 0 -16.5 5t-4.5 17v46q0 20 20 20zM197 1226h1q27 0 27 -31v-1163q0 -32 -27 -32h-1q-14 0 -21 8.5t-7 23.5v1163q0 31 28 31z" />
    <glyph glyph-name="uni0458" unicode="&#x458;" 
d="M195 1563h49q19 0 19 -22v-44q0 -22 -19 -22h-48q-12 0 -16.5 5t-4.5 17v46q0 20 20 20zM224 1226h1q26 0 26 -31v-1213q0 -91 -39.5 -178.5t-122 -145.5t-203.5 -58q-21 0 -27 9.5t-6 17.5v2q0 7 7.5 16t29.5 9q103 0 171.5 46.5t101.5 121.5t33 161v1212q0 31 28 31z
" />
    <glyph glyph-name="uni0459" unicode="&#x459;" horiz-adv-x="2042" 
d="M401 318q0 -88 -37.5 -162.5t-115.5 -120t-192 -45.5q-16 0 -23.5 6t-9 14t-0.5 8v2q0 7 7.5 17t29.5 10q88 0 152.5 33.5t99 95t34.5 142.5v877q0 31 28 31h803q33 0 33 -40v-384h395q107 0 195 -55t139 -147t51 -198q0 -107 -51.5 -199.5t-141 -147.5t-198.5 -55h-392
q-27 0 -40 12t-13 39v1121h-753v-854zM1884 574.5q-47 76.5 -124 121t-162 44.5h-388v-681h388q86 0 163 46.5t123.5 126t46.5 173.5q0 93 -47 169.5z" />
    <glyph glyph-name="uni045A" unicode="&#x45a;" horiz-adv-x="1731" 
d="M188 32q0 -32 -26 -32h-1q-27 0 -27 32v1163q0 31 27 31h1q26 0 26 -31v-557h719v557q0 31 29 31h1q26 0 26 -31v-557h373q85 0 158 -44.5t116.5 -118.5t43.5 -157q0 -85 -43.5 -158t-118 -116.5t-160.5 -43.5h-372q-27 0 -40 12t-13 39v533h-719v-552zM1561.5 454.5
q-37.5 60.5 -98.5 95t-128 34.5h-372v-525h372q69 0 129.5 34t97.5 94t37 134q0 73 -37.5 133.5z" />
    <glyph glyph-name="uni045E" unicode="&#x45e;" horiz-adv-x="1129" 
d="M471 1401q-41 23 -64.5 61t-23.5 80q0 37 26 37h2q13 -1 18.5 -10.5t5.5 -26.5q0 -25 16 -52t45.5 -44.5t67.5 -17.5q34 0 64 18.5t47.5 46t17.5 51.5q0 35 25 35h3q25 -1 25 -36q0 -43 -24.5 -81t-67 -61t-92.5 -23t-91 23zM406.5 -397.5q-7.5 -4.5 -12.5 -4.5
q-11 0 -19 6.5t-8 19.5q0 9 4 17l157 382l-489 1164q-3 6 -3 12q0 12 9.5 19.5t19.5 7.5q16 0 24 -19l467 -1117l467 1114q9 22 24 22q12 0 20.5 -7t8.5 -19q0 -7 -3 -16l-654 -1565q-5 -12 -12.5 -16.5z" />
    <glyph glyph-name="uni045B" unicode="&#x45b;" horiz-adv-x="1231" 
d="M905.5 1160q108.5 -72 167.5 -187t59 -238v-702q0 -15 -6.5 -24t-20.5 -9h-1q-14 0 -20.5 9t-6.5 24v699q0 103 -52 206t-149.5 170.5t-227.5 67.5q-110 0 -221.5 -58t-184 -155.5t-72.5 -209.5v-720q0 -15 -6.5 -24t-20.5 -9h-1q-14 0 -20.5 9t-6.5 24v1364h-137
q-26 0 -26 26v1q0 26 26 26h137v99q0 15 6.5 24.5t20.5 9.5h1q14 0 20.5 -9.5t6.5 -24.5v-99h327q10 0 16 -6.5t6 -20.5v-1q0 -9 -6.5 -17t-15.5 -8h-327v-452q46 82 121.5 147.5t170 102.5t195.5 37q140 0 248.5 -72z" />
    <glyph glyph-name="uni040F" unicode="&#x40f;" horiz-adv-x="1190" 
d="M163.5 8.5q-8.5 7.5 -8.5 29.5v1360q0 14 7 22t19 8h3q11 0 18 -8.5t7 -21.5v-1342h784v1340q0 14 7 23t20 9h2q11 0 18 -9t7 -23v-1369q0 -15 -7.5 -20.5t-29.5 -5.5h-384v-270q0 -14 -5.5 -22.5t-16.5 -8.5h-4q-29 0 -29 31v270h-379q-20 0 -28.5 7.5z" />
    <glyph glyph-name="uni0472" unicode="&#x472;" horiz-adv-x="1638" 
d="M181 1077.5q98 168.5 265 267t364 98.5q200 0 368 -100t265.5 -268.5t97.5 -363.5q0 -201 -100 -367.5t-268 -262.5t-362 -96q-201 0 -368 99t-263.5 265.5t-96.5 360.5q0 199 98 367.5zM1391.5 1042.5q-90.5 155.5 -245.5 248.5t-336 93q-164 0 -308.5 -76t-239 -209
t-115.5 -297l1335 -118v26q0 177 -90.5 332.5zM230.5 384q88.5 -156 242 -248.5t339.5 -92.5q164 0 309 76t240 209t116 297l-1335 117v-21q0 -181 88.5 -337z" />
    <glyph glyph-name="uni0462" unicode="&#x462;" horiz-adv-x="1193" 
d="M1048 222q-60 -102 -162 -162t-222 -60l-435 6q-8 8 -8 21v1349h-201q-12 0 -20 5.5t-8 15.5v5q0 14 7.5 19.5t20.5 5.5h479q29 0 29 -25v-2q0 -12 -8 -18t-21 -6h-223v-491h388q121 0 222.5 -59.5t161.5 -160.5t60 -221t-60 -222zM276 55h388q107 0 196 51.5t140 140.5
t51 197q0 107 -51.5 195t-140 139t-195.5 51h-388v-774z" />
    <glyph glyph-name="uni045F" unicode="&#x45f;" horiz-adv-x="1223" 
d="M131 8.5q-9 7.5 -9 29.5v1156q0 16 8 24t18 8h2q11 0 18.5 -8t7.5 -25v-1137h868v1138q0 15 7 23.5t21 8.5h1q12 0 19 -9t7 -23v-1167q0 -17 -9 -21.5t-28 -4.5h-427v-269q0 -32 -23 -32h-4q-27 0 -27 32v269h-422q-19 0 -28 7.5z" />
    <glyph glyph-name="uni0463" unicode="&#x463;" horiz-adv-x="998" 
d="M784 624q74 -46 116.5 -122.5t42.5 -165.5q0 -90 -43 -167t-118 -123t-166 -46h-328q-27 0 -40 12t-13 39v1211h-170q-31 0 -31 27v1q0 27 31 27h170v218q0 31 29 31h1q26 0 26 -31v-218h173q12 0 19.5 -7t7.5 -21v-1q0 -10 -8 -18t-19 -8h-173v-592h330q89 0 163 -46z
M849 479q-38 63 -100.5 99t-133.5 36h-324v-558h324q72 0 134.5 37.5t100 102t37.5 142.5t-38 141z" />
    <glyph glyph-name="uni0475" unicode="&#x475;" horiz-adv-x="1091" 
d="M563.5 3.5q-7.5 -4.5 -12.5 -4.5h-4q-6 0 -13 4.5t-12 15.5l-500 1168q-3 8 -3 13q0 11 9.5 18t19.5 7q17 0 24 -18l477 -1119l472 1118q7 18 24 18q10 0 19.5 -7t9.5 -19q0 -6 -3 -12l-495 -1167q-5 -11 -12.5 -15.5z" />
    <glyph glyph-name="uni04D9" unicode="&#x4d9;" horiz-adv-x="1353" 
d="M1252 602q0 154 -77.5 286.5t-209.5 211t-287 78.5q-95 0 -168 -22t-121.5 -52t-105.5 -75q-10 -9 -24 -9q-9 0 -15 6l-2 2q-6 6 -6 15q0 15 12 25q88 75 193.5 119t236.5 44q170 0 314.5 -85t229.5 -229.5t85 -314.5t-85 -316t-229 -233t-313 -87q-175 0 -321 89.5
t-230 228.5t-84 279v4q0 27 28 27h1179v8zM948 91q125 70 205 189t96 260h-1149q8 -118 85 -239t207 -200.5t288 -79.5q143 0 268 70z" />
    <glyph glyph-name="Eng" unicode="&#x14a;" horiz-adv-x="1493" 
d="M180 1426h5q15 0 30 -19l1053 -1307v1299q0 27 28 27h1q26 0 26 -27v-1371v-162q0 -90 -40.5 -165.5t-114 -120.5t-168.5 -45q-71 0 -129.5 20t-96.5 63q-20 20 -20 33q0 9 8 17l2 2q5 5 13 5q12 0 23 -11q70 -74 197 -74q79 0 139.5 38t94.5 97.5t38 124.5v160
q-2 1 -7 8l-1054 1310v-1300q0 -28 -26 -28h-1q-27 0 -27 28v1371q0 25 26 27z" />
    <glyph glyph-name="eng" unicode="&#x14b;" horiz-adv-x="1306" 
d="M200 0h-1q-26 0 -26 31v1163q0 32 26 32h1q26 0 26 -32l1 -226q41 74 114 137.5t164 101t182 37.5q156 0 268.5 -79t169.5 -187.5t57 -191.5v-761q-2 -87 -39.5 -160.5t-114.5 -119t-191 -45.5q-16 0 -23.5 6t-9 14t-0.5 8v2q0 7 7.5 17t29.5 10q88 0 152.5 33.5t99 94.5
t34.5 142v759q0 80 -54 175t-155 161.5t-233 66.5q-96 0 -203.5 -56t-180.5 -160t-73 -241v-701q0 -31 -28 -31z" />
    <glyph glyph-name="afii10065.small" horiz-adv-x="1440" 
d="M1302 0h-1q-27 0 -27 33v318q-50 -110 -139 -196t-203 -134t-238 -48q-162 0 -307.5 85.5t-234 230.5t-88.5 314t88.5 315.5t234 233t307.5 86.5q123 0 237 -48.5t203.5 -135.5t139.5 -198v338q0 15 6.5 24t20.5 9h1q27 0 27 -33v-1161q0 -33 -27 -33zM1190.5 891.5
q-83.5 133.5 -218 212.5t-279.5 79q-148 0 -280.5 -78.5t-213 -212t-80.5 -289.5q0 -154 80.5 -286t213 -210.5t280.5 -78.5q155 0 289 78t213 210t79 287t-83.5 288.5z" />
    <glyph glyph-name="afii10070.small" horiz-adv-x="1370" 
d="M114 602q0 -154 77.5 -286.5t209.5 -211t287 -78.5q95 0 168 22t121.5 52t105.5 75q11 9 24 9q9 0 15 -6l2 -2q6 -6 6 -15q0 -14 -12 -25q-88 -75 -193.5 -119t-236.5 -44q-170 0 -314.5 85t-229.5 229.5t-85 314.5t85 316.5t229 233t313 86.5q175 0 321 -89.5
t230 -228.5t84 -279v-4q0 -27 -28 -27h-1179v-8zM418 1113q-125 -70 -205 -189t-96 -260h1149q-8 118 -85 239t-207 200.5t-288 79.5q-143 0 -268 -70z" />
    <glyph glyph-name="afii10082.small" horiz-adv-x="1440" 
d="M115 1217.5q7 8.5 21 8.5h1q26 0 26 -32v-329q49 110 137 194t202.5 130.5t239.5 46.5q162 0 308 -84t234.5 -227t88.5 -311q0 -172 -83.5 -319t-228.5 -234.5t-319 -87.5q-128 0 -242 48.5t-200.5 135t-136.5 197.5v-726q0 -32 -26 -32h-1q-14 0 -21 8.5t-7 23.5v1566
q0 15 7 23.5zM237.5 320.5q74.5 -134.5 207 -213.5t298.5 -79q155 0 287.5 79.5t210 214.5t77.5 292q0 153 -80.5 284t-213.5 208t-281 77q-157 0 -290.5 -76.5t-211.5 -207t-78 -285.5q0 -159 74.5 -293.5z" />
    <glyph glyph-name="afii10085.small" horiz-adv-x="1105" 
d="M406.5 -397.5q-7.5 -4.5 -12.5 -4.5q-11 0 -19 6.5t-8 19.5q0 9 4 17l157 382l-489 1164q-3 6 -3 12q0 12 9.5 19.5t19.5 7.5q16 0 24 -19l467 -1117l467 1114q9 22 24 22q12 0 20.5 -7t8.5 -19q0 -7 -3 -16l-654 -1565q-5 -12 -12.5 -16.5z" />
    <glyph glyph-name="uni041D" unicode="&#x41d;" horiz-adv-x="1465" 
d="M208 683v-651q0 -32 -26 -32h-1q-27 0 -27 32v1363q0 32 27 32h1q26 0 26 -32v-658h1033v658q0 32 27 32h1q26 0 26 -32v-1363q0 -32 -26 -32h-1q-27 0 -27 32v651h-1033z" />
    <glyph glyph-name="uni0435" unicode="&#x435;" horiz-adv-x="1452" 
d="M143 602q0 -154 77.5 -286.5t209.5 -211t287 -78.5q95 0 168 22t121.5 52t105.5 75q11 9 24 9q9 0 15 -6l2 -2q6 -6 6 -15q0 -14 -12 -25q-88 -75 -193.5 -119t-236.5 -44q-170 0 -314.5 85t-229.5 229.5t-85 314.5t85 316.5t229 233t313 86.5q175 0 321 -89.5
t230 -228.5t84 -279v-4q0 -27 -28 -27h-1179v-8zM447 1113q-125 -70 -205 -189t-96 -260h1149q-8 118 -85 239t-207 200.5t-288 79.5q-143 0 -268 -70z" />
    <glyph glyph-name="ebreve" unicode="&#x115;" horiz-adv-x="1452" 
d="M644 1424q-41 23 -64.5 61t-23.5 80q0 37 26 37h2q13 -1 18.5 -10.5t5.5 -26.5q0 -25 16 -52t45.5 -44.5t67.5 -17.5q34 0 64 18.5t47.5 46t17.5 51.5q0 35 25 35h3q25 -1 25 -36q0 -43 -24.5 -81t-67 -61t-92.5 -23t-91 23zM143 602q0 -154 77.5 -286.5t209.5 -211
t287 -78.5q95 0 168 22t121.5 52t105.5 75q11 9 24 9q9 0 15 -6l2 -2q6 -6 6 -15q0 -14 -12 -25q-88 -75 -193.5 -119t-236.5 -44q-170 0 -314.5 85t-229.5 229.5t-85 314.5t85 316.5t229 233t313 86.5q175 0 321 -89.5t230 -228.5t84 -279v-4q0 -27 -28 -27h-1179v-8z
M447 1113q-125 -70 -205 -189t-96 -260h1149q-8 118 -85 239t-207 200.5t-288 79.5q-143 0 -268 -70z" />
    <glyph glyph-name="ecaron" unicode="&#x11b;" horiz-adv-x="1452" 
d="M754 1383q-10 0 -19 9l-213 213q-10 10 -10 23q0 10 8 18l1 1q7 7 16 7q13 0 24 -11l193 -193l194 193q11 11 23 11q10 0 17 -7l1 -1q8 -8 8 -18q0 -13 -10 -23l-212 -212q-10 -10 -21 -10zM143 602q0 -154 77.5 -286.5t209.5 -211t287 -78.5q95 0 168 22t121.5 52
t105.5 75q11 9 24 9q9 0 15 -6l2 -2q6 -6 6 -15q0 -14 -12 -25q-88 -75 -193.5 -119t-236.5 -44q-170 0 -314.5 85t-229.5 229.5t-85 314.5t85 316.5t229 233t313 86.5q175 0 321 -89.5t230 -228.5t84 -279v-4q0 -27 -28 -27h-1179v-8zM447 1113q-125 -70 -205 -189
t-96 -260h1149q-8 118 -85 239t-207 200.5t-288 79.5q-143 0 -268 -70z" />
    <glyph glyph-name="ecircumflex" unicode="&#xea;" horiz-adv-x="1452" 
d="M722 1663q10 0 20 -10l210 -210q11 -11 11 -23q0 -10 -8.5 -19t-18.5 -9q-12 0 -24 12l-190 190l-193 -192q-11 -11 -23 -11q-10 0 -17 7l-1 1q-8 8 -8 18q0 12 10 22l213 214q9 10 19 10zM143 602q0 -154 77.5 -286.5t209.5 -211t287 -78.5q95 0 168 22t121.5 52
t105.5 75q11 9 24 9q9 0 15 -6l2 -2q6 -6 6 -15q0 -14 -12 -25q-88 -75 -193.5 -119t-236.5 -44q-170 0 -314.5 85t-229.5 229.5t-85 314.5t85 316.5t229 233t313 86.5q175 0 321 -89.5t230 -228.5t84 -279v-4q0 -27 -28 -27h-1179v-8zM447 1113q-125 -70 -205 -189
t-96 -260h1149q-8 118 -85 239t-207 200.5t-288 79.5q-143 0 -268 -70z" />
    <glyph glyph-name="ccaron" unicode="&#x10d;" horiz-adv-x="1213" 
d="M736 1357q-10 0 -19 9l-213 213q-10 10 -10 23q0 10 8 18l1 1q7 7 16 7q13 0 24 -11l193 -193l194 193q11 11 23 11q10 0 17 -7l1 -1q8 -8 8 -18q0 -13 -10 -23l-212 -212q-10 -10 -21 -10zM1125 184q11 0 17.5 -8t6.5 -18q0 -15 -13 -25q-195 -160 -421 -160
q-171 0 -318 86t-233.5 232t-86.5 316q0 176 89 321t234.5 227.5t306.5 82.5q106 0 222 -42.5t199 -117.5q12 -10 12 -23q0 -12 -7 -20t-20 -8q-10 0 -19 9q-79 73 -179.5 110t-196.5 37q-152 0 -287 -75t-217 -207t-82 -294q0 -156 79 -289t213 -211.5t290 -78.5
q122 0 215 39t173 108q11 9 23 9z" />
    <glyph glyph-name="edieresis" unicode="&#xeb;" horiz-adv-x="1452" 
d="M548 1498h61q24 0 24 -28v-54q0 -28 -24 -28h-60q-15 0 -20.5 6.5t-5.5 21.5v57q0 25 25 25zM858 1498h61q24 0 24 -28v-54q0 -28 -24 -28h-60q-15 0 -20.5 6.5t-5.5 21.5v57q0 25 25 25zM143 602q0 -154 77.5 -286.5t209.5 -211t287 -78.5q95 0 168 22t121.5 52
t105.5 75q11 9 24 9q9 0 15 -6l2 -2q6 -6 6 -15q0 -14 -12 -25q-88 -75 -193.5 -119t-236.5 -44q-170 0 -314.5 85t-229.5 229.5t-85 314.5t85 316.5t229 233t313 86.5q175 0 321 -89.5t230 -228.5t84 -279v-4q0 -27 -28 -27h-1179v-8zM447 1113q-125 -70 -205 -189
t-96 -260h1149q-8 118 -85 239t-207 200.5t-288 79.5q-143 0 -268 -70z" />
    <glyph glyph-name="edotaccent" unicode="&#x117;" horiz-adv-x="1452" 
d="M719 1512h61q24 0 24 -28v-54q0 -28 -24 -28h-60q-15 0 -20.5 6.5t-5.5 21.5v57q0 25 25 25zM143 602q0 -154 77.5 -286.5t209.5 -211t287 -78.5q95 0 168 22t121.5 52t105.5 75q11 9 24 9q9 0 15 -6l2 -2q6 -6 6 -15q0 -14 -12 -25q-88 -75 -193.5 -119t-236.5 -44
q-170 0 -314.5 85t-229.5 229.5t-85 314.5t85 316.5t229 233t313 86.5q175 0 321 -89.5t230 -228.5t84 -279v-4q0 -27 -28 -27h-1179v-8zM447 1113q-125 -70 -205 -189t-96 -260h1149q-8 118 -85 239t-207 200.5t-288 79.5q-143 0 -268 -70z" />
    <glyph glyph-name="abreve" unicode="&#x103;" horiz-adv-x="1503" 
d="M645 1429q-41 23 -64.5 61t-23.5 80q0 37 26 37h2q13 -1 18.5 -10.5t5.5 -26.5q0 -25 16 -52t45.5 -44.5t67.5 -17.5q34 0 64 18.5t47.5 46t17.5 51.5q0 35 25 35h3q25 -1 25 -36q0 -43 -24.5 -81t-67 -61t-92.5 -23t-91 23zM1351 0h-1q-27 0 -27 33v318
q-50 -110 -139 -196t-203 -134t-238 -48q-162 0 -307.5 85.5t-234 230.5t-88.5 314t88.5 315.5t234 233t307.5 86.5q123 0 237 -48.5t203.5 -135.5t139.5 -198v338q0 15 6.5 24t20.5 9h1q27 0 27 -33v-1161q0 -33 -27 -33zM1239.5 891.5q-83.5 133.5 -218 212.5t-279.5 79
q-148 0 -280.5 -78.5t-213 -212t-80.5 -289.5q0 -154 80.5 -286t213 -210.5t280.5 -78.5q155 0 289 78t213 210t79 287t-83.5 288.5z" />
    <glyph glyph-name="acircumflex" unicode="&#xe2;" horiz-adv-x="1503" 
d="M744 1684q10 0 20 -10l210 -210q11 -11 11 -23q0 -10 -8.5 -19t-18.5 -9q-12 0 -24 12l-190 190l-193 -192q-11 -11 -23 -11q-10 0 -17 7l-1 1q-8 8 -8 18q0 12 10 22l213 214q9 10 19 10zM1351 0h-1q-27 0 -27 33v318q-50 -110 -139 -196t-203 -134t-238 -48
q-162 0 -307.5 85.5t-234 230.5t-88.5 314t88.5 315.5t234 233t307.5 86.5q123 0 237 -48.5t203.5 -135.5t139.5 -198v338q0 15 6.5 24t20.5 9h1q27 0 27 -33v-1161q0 -33 -27 -33zM1239.5 891.5q-83.5 133.5 -218 212.5t-279.5 79q-148 0 -280.5 -78.5t-213 -212
t-80.5 -289.5q0 -154 80.5 -286t213 -210.5t280.5 -78.5q155 0 289 78t213 210t79 287t-83.5 288.5z" />
    <glyph glyph-name="adieresis" unicode="&#xe4;" horiz-adv-x="1503" 
d="M534 1526h61q24 0 24 -28v-54q0 -28 -24 -28h-60q-15 0 -20.5 6.5t-5.5 21.5v57q0 25 25 25zM844 1526h61q24 0 24 -28v-54q0 -28 -24 -28h-60q-15 0 -20.5 6.5t-5.5 21.5v57q0 25 25 25zM1351 0h-1q-27 0 -27 33v318q-50 -110 -139 -196t-203 -134t-238 -48
q-162 0 -307.5 85.5t-234 230.5t-88.5 314t88.5 315.5t234 233t307.5 86.5q123 0 237 -48.5t203.5 -135.5t139.5 -198v338q0 15 6.5 24t20.5 9h1q27 0 27 -33v-1161q0 -33 -27 -33zM1239.5 891.5q-83.5 133.5 -218 212.5t-279.5 79q-148 0 -280.5 -78.5t-213 -212
t-80.5 -289.5q0 -154 80.5 -286t213 -210.5t280.5 -78.5q155 0 289 78t213 210t79 287t-83.5 288.5z" />
    <glyph glyph-name="Nacute" unicode="&#x143;" horiz-adv-x="1493" 
d="M861 1543h-2q-10 1 -18.5 7.5t-8.5 17.5q0 8 5 18l128 229q7 13 12.5 16.5t12.5 3.5h2q10 -1 18.5 -8.5t8.5 -18.5q0 -9 -5 -17l-127 -228q-12 -20 -26 -20zM208 33q0 -33 -26 -33h-1q-14 0 -20.5 9t-6.5 24v1367q0 10 6.5 18t19.5 9h5q14 0 30 -19l1053 -1308v1300
q0 27 28 27h1q26 0 26 -27v-1367q0 -33 -26 -33h-6q-13 0 -29 18l-1054 1311v-1296z" />
    <glyph glyph-name="Sacute" unicode="&#x15a;" horiz-adv-x="1256" 
d="M662 1574h-2q-10 1 -18.5 7.5t-8.5 17.5q0 8 5 18l128 229q7 13 12.5 16.5t12.5 3.5h2q10 -1 18.5 -8.5t8.5 -18.5q0 -9 -5 -17l-127 -228q-12 -20 -26 -20zM92 226q0 11 8 19l2 2q7 4 15 4q14 0 30 -19q78 -97 187.5 -146.5t268.5 -49.5q135 0 241.5 36t170 115.5
t63.5 203.5q0 107 -73.5 170.5t-165.5 91.5t-234 56q-165 30 -270.5 76t-158.5 115.5t-53 169.5q0 118 61.5 202t175 127.5t268.5 43.5q137 0 237.5 -37t192.5 -126q9 -9 9 -22q0 -10 -6 -18l-2 -2q-8 -5 -17 -5q-8 0 -16 5t-19 15q-60 51 -109 79t-112.5 41.5t-157.5 13.5
q-117 0 -218.5 -31t-166.5 -101.5t-65 -184.5q0 -131 119.5 -201.5t320.5 -108.5q160 -32 261 -64.5t177.5 -106t76.5 -198.5q0 -136 -69 -228t-189 -137t-272 -45q-160 0 -280.5 50.5t-217.5 167.5q-13 15 -13 27z" />
    <glyph glyph-name="Racute" unicode="&#x154;" horiz-adv-x="1279" 
d="M604 1576h-2q-10 1 -18.5 7.5t-8.5 17.5q0 8 5 18l128 229q7 13 12.5 16.5t12.5 3.5h2q10 -1 18.5 -8.5t8.5 -18.5q0 -9 -5 -17l-127 -228q-12 -20 -26 -20zM722 540h-516v-512q0 -28 -26 -28h-1q-27 0 -27 28v1372q0 27 27 27h543q120 0 222 -60t161.5 -162.5
t59.5 -222.5q0 -133 -71.5 -241t-188.5 -162l224 -541q2 -8 2 -10q0 -11 -8.5 -19.5t-18.5 -8.5h-3q-7 0 -15 4.5t-13 15.5l-224 538q-60 -18 -127 -18zM206 596h516q107 0 196 51.5t140 140t51 194.5q0 107 -51 196.5t-140 141.5t-196 52h-516v-776z" />
    <glyph glyph-name="Wacute" unicode="&#x1e82;" horiz-adv-x="1985" 
d="M1195 1554h-2q-10 1 -18.5 7.5t-8.5 17.5q0 8 5 18l128 229q7 13 12.5 16.5t12.5 3.5h2q10 -1 18.5 -8.5t8.5 -18.5q0 -9 -5 -17l-127 -228q-12 -20 -26 -20zM663 20q-5 -11 -12 -15.5t-13 -4.5h-3q-17 0 -25 20l-574 1368q-3 8 -3 13q0 12 9 19t19 7h3q13 0 21 -19
l551 -1317l548 1317q7 19 22 19h2q10 0 19.5 -7t9.5 -19q0 -5 -3 -13l-225 -541l318 -758l551 1319q7 19 21 19h3q10 0 19.5 -7.5t9.5 -19.5q0 -6 -3 -12l-574 -1368q-5 -11 -12 -15.5t-12 -4.5h-5q-6 0 -13 4.5t-12 15.5l-320 757z" />
    <glyph glyph-name="Yacute" unicode="&#xdd;" horiz-adv-x="1126" 
d="M670 1560h-2q-10 1 -18.5 7.5t-8.5 17.5q0 8 5 18l128 229q7 13 12.5 16.5t12.5 3.5h2q10 -1 18.5 -8.5t8.5 -18.5q0 -9 -5 -17l-127 -228q-12 -20 -26 -20zM586 34q0 -34 -27 -34h-1q-14 0 -20.5 9.5t-6.5 24.5v616l-470 735q-5 8 -5 16q0 11 7.5 18.5t16.5 7.5h3h2
q10 0 21 -15l452 -706l453 705q7 11 12.5 13.5t10.5 2.5h3q9 0 16.5 -8t7.5 -19q0 -8 -5 -16l-470 -734v-616z" />
    <glyph glyph-name="Ygrave" unicode="&#x1ef2;" horiz-adv-x="1126" 
d="M410 1828q0 11 8 18.5t19 8.5h2q7 0 12.5 -3.5t12.5 -16.5l128 -229q5 -13 5 -18q0 -11 -8.5 -17.5t-18.5 -7.5h-2q-14 0 -26 20l-127 228q-5 8 -5 17zM586 34q0 -34 -27 -34h-1q-14 0 -20.5 9.5t-6.5 24.5v616l-470 735q-5 8 -5 16q0 11 7.5 18.5t16.5 7.5h3h2
q10 0 21 -15l452 -706l453 705q7 11 12.5 13.5t10.5 2.5h3q9 0 16.5 -8t7.5 -19q0 -8 -5 -16l-470 -734v-616z" />
    <glyph glyph-name="Zacute" unicode="&#x179;" horiz-adv-x="1254" 
d="M673 1568h-2q-10 1 -18.5 7.5t-8.5 17.5q0 8 5 18l128 229q7 13 12.5 16.5t12.5 3.5h2q10 -1 18.5 -8.5t8.5 -18.5q0 -9 -5 -17l-127 -228q-12 -20 -26 -20zM1156 1403v-5q-1 -6 -7 -16l-1024 -1328h979q31 0 31 -26v-1q0 -27 -31 -27h-1035q-27 0 -27 27v1q0 5 3 11
l1030 1335l-962 -1q-34 0 -34 26v1q0 14 9 20.5t24 6.5l1017 2q25 0 27 -26z" />
    <glyph glyph-name="Uacute" unicode="&#xda;" horiz-adv-x="1442" 
d="M750 1571h-2q-10 1 -18.5 7.5t-8.5 17.5q0 8 5 18l128 229q7 13 12.5 16.5t12.5 3.5h2q10 -1 18.5 -8.5t8.5 -18.5q0 -9 -5 -17l-127 -228q-12 -20 -26 -20zM261.5 294q70.5 -121 191.5 -191.5t266 -70.5t266 70.5t191.5 191.5t70.5 266v836q0 15 7 23.5t21 8.5h1
q26 0 26 -32v-845q0 -157 -78.5 -288.5t-212 -208.5t-292.5 -77t-292.5 78t-212 212t-78.5 293v838q0 30 28 30h1q26 0 26 -30v-838q0 -145 70.5 -266z" />
    <glyph glyph-name="Ugrave" unicode="&#xd9;" horiz-adv-x="1442" 
d="M563 1814q0 11 8 18.5t19 8.5h2q7 0 12.5 -3.5t12.5 -16.5l128 -229q5 -13 5 -18q0 -11 -8.5 -17.5t-18.5 -7.5h-2q-14 0 -26 20l-127 228q-5 8 -5 17zM261.5 294q70.5 -121 191.5 -191.5t266 -70.5t266 70.5t191.5 191.5t70.5 266v836q0 15 7 23.5t21 8.5h1q26 0 26 -32
v-845q0 -157 -78.5 -288.5t-212 -208.5t-292.5 -77t-292.5 78t-212 212t-78.5 293v838q0 30 28 30h1q26 0 26 -30v-838q0 -145 70.5 -266z" />
    <glyph glyph-name="Eacute" unicode="&#xc9;" horiz-adv-x="1213" 
d="M689 1545h-2q-10 1 -18.5 7.5t-8.5 17.5q0 8 5 18l128 229q7 13 12.5 16.5t12.5 3.5h2q10 -1 18.5 -8.5t8.5 -18.5q0 -9 -5 -17l-127 -228q-12 -20 -26 -20zM183 1427h928q32 0 32 -27v-1q0 -14 -8.5 -21t-23.5 -7h-901v-604h738q15 0 24.5 -6.5t9.5 -20.5v-1
q0 -14 -9.5 -20.5t-24.5 -6.5h-738v-656h921q32 0 32 -27v-1q0 -14 -8.5 -21t-23.5 -7h-948q-27 0 -27 28v1372q0 27 27 27z" />
    <glyph glyph-name="Oacute" unicode="&#xd3;" horiz-adv-x="1657" 
d="M898 1578h-2q-10 1 -18.5 7.5t-8.5 17.5q0 8 5 18l128 229q7 13 12.5 16.5t12.5 3.5h2q10 -1 18.5 -8.5t8.5 -18.5q0 -9 -5 -17l-127 -228q-12 -20 -26 -20zM183 1079.5q99 167.5 267.5 265.5t367.5 98q200 0 366 -98t262.5 -265.5t96.5 -367.5q0 -199 -96.5 -366
t-262.5 -264t-366 -97t-368.5 97t-267 264t-98.5 366q0 200 99 367.5zM233 374.5q90 -153.5 245 -242.5t340 -89t338 89t241 242t88 338q0 186 -88 340t-241 243t-338 89t-340 -89.5t-245 -243.5t-90 -339q0 -184 90 -337.5z" />
    <glyph glyph-name="Cacute" unicode="&#x106;" horiz-adv-x="1402" 
d="M857 1564h-2q-10 1 -18.5 7.5t-8.5 17.5q0 8 5 18l128 229q7 13 12.5 16.5t12.5 3.5h2q10 -1 18.5 -8.5t8.5 -18.5q0 -9 -5 -17l-127 -228q-12 -20 -26 -20zM1268 205q10 0 17 -7l2 -2q6 -6 6 -16q0 -16 -13 -26q-95 -81 -210 -125.5t-243 -44.5q-200 0 -369 97.5
t-268.5 265t-99.5 366.5q0 200 99 367t268.5 264.5t369.5 97.5q128 0 242.5 -43.5t211.5 -123.5q16 -15 16 -27q0 -3 -1.5 -6t-1.5 -4l-2 -4l-1 -1q-9 -9 -22 -9q-11 0 -22 8q-197 152 -420 152q-185 0 -341.5 -89t-247.5 -243t-91 -339t91.5 -338.5t247.5 -243t341 -89.5
q223 0 419 154q11 9 22 9z" />
    <glyph glyph-name="agrave" unicode="&#xe0;" horiz-adv-x="1503" 
d="M573 1669q0 11 8 18.5t19 8.5h2q7 0 12.5 -3.5t12.5 -16.5l128 -229q5 -13 5 -18q0 -11 -8.5 -17.5t-18.5 -7.5h-2q-14 0 -26 20l-127 228q-5 8 -5 17zM1351 0h-1q-27 0 -27 33v318q-50 -110 -139 -196t-203 -134t-238 -48q-162 0 -307.5 85.5t-234 230.5t-88.5 314
t88.5 315.5t234 233t307.5 86.5q123 0 237 -48.5t203.5 -135.5t139.5 -198v338q0 15 6.5 24t20.5 9h1q27 0 27 -33v-1161q0 -33 -27 -33zM1239.5 891.5q-83.5 133.5 -218 212.5t-279.5 79q-148 0 -280.5 -78.5t-213 -212t-80.5 -289.5q0 -154 80.5 -286t213 -210.5
t280.5 -78.5q155 0 289 78t213 210t79 287t-83.5 288.5z" />
    <glyph glyph-name="aacute" unicode="&#xe1;" horiz-adv-x="1503" 
d="M833 1429h-2q-10 1 -18.5 7.5t-8.5 17.5q0 8 5 18l128 229q7 13 12.5 16.5t12.5 3.5h2q10 -1 18.5 -8.5t8.5 -18.5q0 -9 -5 -17l-127 -228q-12 -20 -26 -20zM1351 0h-1q-27 0 -27 33v318q-50 -110 -139 -196t-203 -134t-238 -48q-162 0 -307.5 85.5t-234 230.5t-88.5 314
t88.5 315.5t234 233t307.5 86.5q123 0 237 -48.5t203.5 -135.5t139.5 -198v338q0 15 6.5 24t20.5 9h1q27 0 27 -33v-1161q0 -33 -27 -33zM1239.5 891.5q-83.5 133.5 -218 212.5t-279.5 79q-148 0 -280.5 -78.5t-213 -212t-80.5 -289.5q0 -154 80.5 -286t213 -210.5
t280.5 -78.5q155 0 289 78t213 210t79 287t-83.5 288.5z" />
    <glyph glyph-name="aeacute" unicode="&#x1fd;" horiz-adv-x="2624" 
d="M1363 1348h-2q-10 1 -18.5 7.5t-8.5 17.5q0 8 5 18l128 229q7 13 12.5 16.5t12.5 3.5h2q10 -1 18.5 -8.5t8.5 -18.5q0 -9 -5 -17l-127 -228q-12 -20 -26 -20zM1505.5 1054.5q86.5 86.5 199 135t237.5 48.5q175 0 321 -89.5t230 -228.5t84 -279v-4q0 -27 -28 -27h-1179v-8
q0 -154 77.5 -286.5t209.5 -211t287 -78.5q95 0 168 22t121.5 52t105.5 75q11 9 24 9q9 0 15 -6l2 -2q6 -6 6 -15q0 -14 -12 -25q-88 -75 -193.5 -119t-236.5 -44q-126 0 -239 47.5t-199.5 132.5t-136.5 196v-316q0 -33 -27 -33h-1q-27 0 -27 33v318q-50 -110 -139 -196
t-203 -134t-238 -48q-162 0 -307.5 85.5t-234 230.5t-88.5 314t88.5 315.5t234 233t307.5 86.5q123 0 237 -48.5t203.5 -135.5t139.5 -198v319q0 15 6.5 24t20.5 9h1q27 0 27 -33v-318q50 111 136.5 197.5zM1230.5 891.5q-83.5 133.5 -218 212.5t-279.5 79
q-148 0 -280.5 -78.5t-213 -212t-80.5 -289.5q0 -154 80.5 -286t213 -210.5t280.5 -78.5q155 0 289 78t213 210t79 287t-83.5 288.5zM1674 1113q-125 -70 -205 -189t-96 -260h1149q-8 118 -85 239t-207 200.5t-288 79.5q-143 0 -268 -70z" />
    <glyph glyph-name="cacute" unicode="&#x107;" horiz-adv-x="1213" 
d="M793 1364h-2q-10 1 -18.5 7.5t-8.5 17.5q0 8 5 18l128 229q7 13 12.5 16.5t12.5 3.5h2q10 -1 18.5 -8.5t8.5 -18.5q0 -9 -5 -17l-127 -228q-12 -20 -26 -20zM1125 184q11 0 17.5 -8t6.5 -18q0 -15 -13 -25q-195 -160 -421 -160q-171 0 -318 86t-233.5 232t-86.5 316
q0 176 89 321t234.5 227.5t306.5 82.5q106 0 222 -42.5t199 -117.5q12 -10 12 -23q0 -12 -7 -20t-20 -8q-10 0 -19 9q-79 73 -179.5 110t-196.5 37q-152 0 -287 -75t-217 -207t-82 -294q0 -156 79 -289t213 -211.5t290 -78.5q122 0 215 39t173 108q11 9 23 9z" />
    <glyph glyph-name="iacute" unicode="&#xed;" 
d="M225 1360h-2q-10 1 -18.5 7.5t-8.5 17.5q0 8 5 18l128 229q7 13 12.5 16.5t12.5 3.5h2q10 -1 18.5 -8.5t8.5 -18.5q0 -9 -5 -17l-127 -228q-12 -20 -26 -20zM197 1226h1q27 0 27 -31v-1163q0 -32 -27 -32h-1q-14 0 -21 8.5t-7 23.5v1163q0 31 28 31z" />
    <glyph glyph-name="igrave" unicode="&#xec;" 
d="M38 1655q0 11 8 18.5t19 8.5h2q7 0 12.5 -3.5t12.5 -16.5l128 -229q5 -13 5 -18q0 -11 -8.5 -17.5t-18.5 -7.5h-2q-14 0 -26 20l-127 228q-5 8 -5 17zM197 1226h1q27 0 27 -31v-1163q0 -32 -27 -32h-1q-14 0 -21 8.5t-7 23.5v1163q0 31 28 31z" />
    <glyph glyph-name="Ograve" unicode="&#xd2;" horiz-adv-x="1657" 
d="M642 1836q0 11 8 18.5t19 8.5h2q7 0 12.5 -3.5t12.5 -16.5l128 -229q5 -13 5 -18q0 -11 -8.5 -17.5t-18.5 -7.5h-2q-14 0 -26 20l-127 228q-5 8 -5 17zM183 1079.5q99 167.5 267.5 265.5t367.5 98q200 0 366 -98t262.5 -265.5t96.5 -367.5q0 -199 -96.5 -366t-262.5 -264
t-366 -97t-368.5 97t-267 264t-98.5 366q0 200 99 367.5zM233 374.5q90 -153.5 245 -242.5t340 -89t338 89t241 242t88 338q0 186 -88 340t-241 243t-338 89t-340 -89.5t-245 -243.5t-90 -339q0 -184 90 -337.5z" />
    <glyph glyph-name="ncaron" unicode="&#x148;" horiz-adv-x="1306" 
d="M668 1371q-10 0 -19 9l-213 213q-10 10 -10 23q0 10 8 18l1 1q7 7 16 7q13 0 24 -11l193 -193l194 193q11 11 23 11q10 0 17 -7l1 -1q8 -8 8 -18q0 -13 -10 -23l-212 -212q-10 -10 -21 -10zM200 0h-1q-26 0 -26 31v1163q0 32 26 32h1q26 0 26 -32l2 -229q45 86 119.5 149
t161 96t168.5 33q154 0 270 -74t178 -193t62 -250v-695q0 -31 -26 -31h-1q-28 0 -28 31v695q0 113 -56.5 220t-160.5 174.5t-240 67.5q-96 0 -200.5 -54t-175.5 -156t-71 -239v-708q0 -31 -28 -31z" />
    <glyph glyph-name="ubreve" unicode="&#x16d;" horiz-adv-x="1300" 
d="M593 1375q-41 23 -64.5 61t-23.5 80q0 37 26 37h2q13 -1 18.5 -10.5t5.5 -26.5q0 -25 16 -52t45.5 -44.5t67.5 -17.5q34 0 64 18.5t47.5 46t17.5 51.5q0 35 25 35h3q25 -1 25 -36q0 -43 -24.5 -81t-67 -61t-92.5 -23t-91 23zM1163 1226h1q26 0 26 -31v-1163
q0 -32 -26 -32h-1q-26 0 -26 32l-2 200q-46 -80 -121 -140.5t-163 -92.5t-171 -32q-156 0 -278 76.5t-189 202t-67 266.5v683q0 31 26 31h1q28 0 28 -31v-683q0 -142 65 -254t174.5 -174t236.5 -62q106 0 212.5 54t176 152.5t69.5 225.5v741q0 31 28 31z" />
    <glyph glyph-name="ucircumflex" unicode="&#xfb;" horiz-adv-x="1300" 
d="M682 1621q10 0 20 -10l210 -210q11 -11 11 -23q0 -10 -8.5 -19t-18.5 -9q-12 0 -24 12l-190 190l-193 -192q-11 -11 -23 -11q-10 0 -17 7l-1 1q-8 8 -8 18q0 12 10 22l213 214q9 10 19 10zM1163 1226h1q26 0 26 -31v-1163q0 -32 -26 -32h-1q-26 0 -26 32l-2 200
q-46 -80 -121 -140.5t-163 -92.5t-171 -32q-156 0 -278 76.5t-189 202t-67 266.5v683q0 31 26 31h1q28 0 28 -31v-683q0 -142 65 -254t174.5 -174t236.5 -62q106 0 212.5 54t176 152.5t69.5 225.5v741q0 31 28 31z" />
    <glyph glyph-name="udieresis" unicode="&#xfc;" horiz-adv-x="1300" 
d="M504 1493h61q24 0 24 -28v-54q0 -28 -24 -28h-60q-15 0 -20.5 6.5t-5.5 21.5v57q0 25 25 25zM814 1493h61q24 0 24 -28v-54q0 -28 -24 -28h-60q-15 0 -20.5 6.5t-5.5 21.5v57q0 25 25 25zM1163 1226h1q26 0 26 -31v-1163q0 -32 -26 -32h-1q-26 0 -26 32l-2 200
q-46 -80 -121 -140.5t-163 -92.5t-171 -32q-156 0 -278 76.5t-189 202t-67 266.5v683q0 31 26 31h1q28 0 28 -31v-683q0 -142 65 -254t174.5 -174t236.5 -62q106 0 212.5 54t176 152.5t69.5 225.5v741q0 31 28 31z" />
    <glyph glyph-name="uhungarumlaut" unicode="&#x171;" horiz-adv-x="1300" 
d="M501 1350h-2q-10 1 -18.5 7.5t-8.5 17.5q0 8 5 18l128 229q7 13 12.5 16.5t12.5 3.5h2q10 -1 18.5 -8.5t8.5 -18.5q0 -9 -5 -17l-127 -228q-12 -20 -26 -20zM830 1350h-2q-10 1 -18.5 7.5t-8.5 17.5q0 8 5 18l128 229q7 13 12.5 16.5t12.5 3.5h2q11 -1 19 -8.5t8 -18.5
q0 -5 -5 -17l-127 -228q-12 -20 -26 -20zM1163 1226h1q26 0 26 -31v-1163q0 -32 -26 -32h-1q-26 0 -26 32l-2 200q-46 -80 -121 -140.5t-163 -92.5t-171 -32q-156 0 -278 76.5t-189 202t-67 266.5v683q0 31 26 31h1q28 0 28 -31v-683q0 -142 65 -254t174.5 -174t236.5 -62
q106 0 212.5 54t176 152.5t69.5 225.5v741q0 31 28 31z" />
    <glyph glyph-name="rcaron" unicode="&#x159;" horiz-adv-x="1041" 
d="M618 1391q-10 0 -19 9l-213 213q-10 10 -10 23q0 10 8 18l1 1q7 7 16 7q13 0 24 -11l193 -193l194 193q11 11 23 11q10 0 17 -7l1 -1q8 -8 8 -18q0 -13 -10 -23l-212 -212q-10 -10 -21 -10zM183 1226h1q26 0 26 -31v-255q36 89 110 150t162 90.5t170 29.5q69 0 146 -27.5
t130.5 -64.5t53.5 -61q0 -8 -4 -12l-1 -1q-9 -11 -22 -11q-11 0 -21 9q-136 113 -279 113q-103 0 -205 -48.5t-170.5 -156t-68.5 -272.5v-646q0 -32 -27 -32h-1q-27 0 -27 32v1163q0 31 27 31z" />
    <glyph glyph-name="ycircumflex" unicode="&#x177;" horiz-adv-x="1129" 
d="M559 1620q10 0 20 -10l210 -210q11 -11 11 -23q0 -10 -8.5 -19t-18.5 -9q-12 0 -24 12l-190 190l-193 -192q-11 -11 -23 -11q-10 0 -17 7l-1 1q-8 8 -8 18q0 12 10 22l213 214q9 10 19 10zM406.5 -397.5q-7.5 -4.5 -12.5 -4.5q-11 0 -19 6.5t-8 19.5q0 9 4 17l157 382
l-489 1164q-3 6 -3 12q0 12 9.5 19.5t19.5 7.5q16 0 24 -19l467 -1117l467 1114q9 22 24 22q12 0 20.5 -7t8.5 -19q0 -7 -3 -16l-654 -1565q-5 -12 -12.5 -16.5z" />
    <glyph glyph-name="ydieresis" unicode="&#xff;" horiz-adv-x="1129" 
d="M366 1454h61q24 0 24 -28v-54q0 -28 -24 -28h-60q-15 0 -20.5 6.5t-5.5 21.5v57q0 25 25 25zM676 1454h61q24 0 24 -28v-54q0 -28 -24 -28h-60q-15 0 -20.5 6.5t-5.5 21.5v57q0 25 25 25zM406.5 -397.5q-7.5 -4.5 -12.5 -4.5q-11 0 -19 6.5t-8 19.5q0 9 4 17l157 382
l-489 1164q-3 6 -3 12q0 12 9.5 19.5t19.5 7.5q16 0 24 -19l467 -1117l467 1114q9 22 24 22q12 0 20.5 -7t8.5 -19q0 -7 -3 -16l-654 -1565q-5 -12 -12.5 -16.5z" />
    <glyph glyph-name="wcircumflex" unicode="&#x175;" horiz-adv-x="1826" 
d="M966 1644q10 0 20 -10l210 -210q11 -11 11 -23q0 -10 -8.5 -19t-18.5 -9q-12 0 -24 12l-190 190l-193 -192q-11 -11 -23 -11q-10 0 -17 7l-1 1q-8 8 -8 18q0 12 10 22l213 214q9 10 19 10zM1253.5 3.5q-7.5 -4.5 -12.5 -4.5h-5q-16 2 -24 20l-305 744l-315 -744
q-5 -11 -12.5 -15.5t-12.5 -4.5h-5q-16 2 -24 20l-500 1169q-3 8 -3 13q0 11 9.5 18t19.5 7q17 0 24 -18l477 -1120l472 1120q7 18 24 18q10 0 19.5 -7t9.5 -19q0 -6 -3 -12l-153 -360l305 -739l472 1119q7 18 24 18q10 0 19.5 -7t9.5 -19q0 -6 -3 -12l-495 -1169
q-5 -11 -12.5 -15.5z" />
    <glyph glyph-name="wdieresis" unicode="&#x1e85;" horiz-adv-x="1826" 
d="M773 1508h61q24 0 24 -28v-54q0 -28 -24 -28h-60q-15 0 -20.5 6.5t-5.5 21.5v57q0 25 25 25zM1083 1508h61q24 0 24 -28v-54q0 -28 -24 -28h-60q-15 0 -20.5 6.5t-5.5 21.5v57q0 25 25 25zM1253.5 3.5q-7.5 -4.5 -12.5 -4.5h-5q-16 2 -24 20l-305 744l-315 -744
q-5 -11 -12.5 -15.5t-12.5 -4.5h-5q-16 2 -24 20l-500 1169q-3 8 -3 13q0 11 9.5 18t19.5 7q17 0 24 -18l477 -1120l472 1120q7 18 24 18q10 0 19.5 -7t9.5 -19q0 -6 -3 -12l-153 -360l305 -739l472 1119q7 18 24 18q10 0 19.5 -7t9.5 -19q0 -6 -3 -12l-495 -1169
q-5 -11 -12.5 -15.5z" />
    <glyph glyph-name="zcaron" unicode="&#x17e;" horiz-adv-x="1137" 
d="M589 1346q-10 0 -19 9l-213 213q-10 10 -10 23q0 10 8 18l1 1q7 7 16 7q13 0 24 -11l193 -193l194 193q11 11 23 11q10 0 17 -7l1 -1q8 -8 8 -18q0 -13 -10 -23l-212 -212q-10 -10 -21 -10zM938.5 1217.5q9.5 -8.5 9.5 -19.5q0 -9 -6 -18l-756 -1125h730q33 0 33 -26
q0 -18 -11.5 -23.5t-21.5 -5.5h-780q-11 0 -19.5 8t-8.5 19q0 9 10 25l749 1119h-688q-15 0 -24 6.5t-9 20.5q0 18 11 23t22 5h740q10 0 19.5 -8.5z" />
    <glyph glyph-name="scircumflex" unicode="&#x15d;" horiz-adv-x="1008" 
d="M476 1658q10 0 20 -10l210 -210q11 -11 11 -23q0 -10 -8.5 -19t-18.5 -9q-12 0 -24 12l-190 190l-193 -192q-11 -11 -23 -11q-10 0 -17 7l-1 1q-8 8 -8 18q0 12 10 22l213 214q9 10 19 10zM258 16q-91 47 -136 119.5t-45 146.5q0 24 16 30l3 1q6 2 10 2q12 0 20 -11
t9 -27q5 -78 51 -135.5t122 -87.5t171 -30q77 0 155 25.5t132.5 87.5t54.5 164q0 130 -93.5 198.5t-251.5 107.5q-114 27 -193.5 64t-126.5 99.5t-47 157.5q0 84 41.5 155t124 113.5t197.5 42.5q93 0 176.5 -41.5t137 -110.5t61.5 -148v-8q0 -20 -10 -24q-5 -3 -12 -3
q-10 0 -18.5 6t-10.5 18q-9 72 -57 131t-119.5 92t-147.5 33q-89 0 -159 -32.5t-109.5 -90.5t-39.5 -133q0 -119 93.5 -178.5t223.5 -86.5q395 -87 395 -362q0 -115 -61 -189.5t-152 -108.5t-184 -34q-130 0 -221 47z" />
    <glyph glyph-name="ohungarumlaut" unicode="&#x151;" horiz-adv-x="1438" 
d="M576 1396h-2q-10 1 -18.5 7.5t-8.5 17.5q0 8 5 18l128 229q7 13 12.5 16.5t12.5 3.5h2q10 -1 18.5 -8.5t8.5 -18.5q0 -9 -5 -17l-127 -228q-12 -20 -26 -20zM905 1396h-2q-10 1 -18.5 7.5t-8.5 17.5q0 8 5 18l128 229q7 13 12.5 16.5t12.5 3.5h2q11 -1 19 -8.5t8 -18.5
q0 -5 -5 -17l-127 -228q-12 -20 -26 -20zM179.5 925q83.5 145 226.5 229.5t313 84.5q172 0 319.5 -85t234.5 -229.5t87 -315.5q0 -170 -87 -316.5t-234 -233t-318 -86.5q-169 0 -313 86.5t-228 233t-84 316.5q0 171 83.5 316zM227.5 320q76.5 -134 207.5 -213t286 -79
q162 0 296 79t211 212.5t77 289.5t-79.5 288t-214 209.5t-292.5 77.5q-155 0 -285.5 -77t-206.5 -209t-76 -289q0 -155 76.5 -289z" />
    <glyph glyph-name="odieresis" unicode="&#xf6;" horiz-adv-x="1438" 
d="M556 1514h61q24 0 24 -28v-54q0 -28 -24 -28h-60q-15 0 -20.5 6.5t-5.5 21.5v57q0 25 25 25zM866 1514h61q24 0 24 -28v-54q0 -28 -24 -28h-60q-15 0 -20.5 6.5t-5.5 21.5v57q0 25 25 25zM179.5 925q83.5 145 226.5 229.5t313 84.5q172 0 319.5 -85t234.5 -229.5
t87 -315.5q0 -170 -87 -316.5t-234 -233t-318 -86.5q-169 0 -313 86.5t-228 233t-84 316.5q0 171 83.5 316zM227.5 320q76.5 -134 207.5 -213t286 -79q162 0 296 79t211 212.5t77 289.5t-79.5 288t-214 209.5t-292.5 77.5q-155 0 -285.5 -77t-206.5 -209t-76 -289
q0 -155 76.5 -289z" />
    <glyph glyph-name="gdotaccent" unicode="&#x121;" horiz-adv-x="1521" 
d="M754 1499h61q24 0 24 -28v-54q0 -28 -24 -28h-60q-15 0 -20.5 6.5t-5.5 21.5v57q0 25 25 25zM1327.5 -75.5q-66.5 -138.5 -175 -221.5t-233.5 -99q-44 -6 -92 -6q-57 0 -137 12t-138.5 33.5t-58.5 48.5q0 9 4 13l2 3l4.5 5.5t17.5 5.5q9 0 22 -6q56 -28 130.5 -43
t152.5 -15q97 0 168 21q92 27 171.5 107t127 199t47.5 258l-2 118q-48 -110 -133.5 -192.5t-198.5 -127.5t-243 -45q-165 0 -310.5 77.5t-234.5 219.5t-89 324q0 165 87.5 309t233.5 229.5t313 85.5q120 0 233 -48t202 -133t139 -194v331q0 15 7.5 23.5t21.5 8.5
q28 0 28 -32v-955q0 -176 -66.5 -314.5zM1236.5 923.5q-82.5 118.5 -208 189t-266.5 70.5q-162 0 -294 -77.5t-208 -208.5t-76 -283q0 -175 81.5 -303.5t214 -196t282.5 -67.5q153 0 279 68.5t204 186t92 257.5v109q-18 137 -100.5 255.5z" />
    <glyph glyph-name="imacron" unicode="&#x12b;" 
d="M-38 1439h478q12 0 20.5 -7.5t8.5 -20.5v-1q0 -10 -8.5 -18t-20.5 -8h-478q-32 0 -32 27v1q0 27 32 27zM197 1226h1q27 0 27 -31v-1163q0 -32 -27 -32h-1q-14 0 -21 8.5t-7 23.5v1163q0 31 28 31z" />
    <glyph glyph-name="lcaron" unicode="&#x13e;" horiz-adv-x="419" 
d="M160.5 1573.5q6.5 9.5 20.5 9.5h1q14 0 20.5 -9.5t6.5 -24.5v-1516q0 -15 -6.5 -24t-20.5 -9h-1q-14 0 -20.5 9t-6.5 24v1516q0 15 6.5 24.5zM278 1573.5q5 5.5 15 5.5h61q17 0 17 -19v-73q0 -34 -10.5 -61t-24 -42t-21.5 -15q-6 0 -12 6l-13 12q-4 3 -4 9q0 5 4 9
q13 14 20 31.5t7 31.5v11q0 8 -8 8h-16q-12 0 -16 4.5t-4 16.5v52q0 8 5 13.5z" />
    <glyph glyph-name="lcommaaccent" unicode="&#x13c;" horiz-adv-x="419" 
d="M160.5 1573.5q6.5 9.5 20.5 9.5h1q14 0 20.5 -9.5t6.5 -24.5v-1516q0 -15 -6.5 -24t-20.5 -9h-1q-14 0 -20.5 9t-6.5 24v1516q0 15 6.5 24.5zM95 -151.5q5 5.5 15 5.5h61q17 0 17 -19v-73q0 -34 -10.5 -61t-24 -42t-21.5 -15q-6 0 -12 6l-13 12q-4 3 -4 9q0 5 4 9
q13 14 20 31.5t7 31.5v11q0 8 -8 8h-16q-12 0 -16 4.5t-4 16.5v52q0 8 5 13.5z" />
    <glyph glyph-name="ldot" unicode="&#x140;" horiz-adv-x="419" 
d="M160.5 1573.5q6.5 9.5 20.5 9.5h1q14 0 20.5 -9.5t6.5 -24.5v-1516q0 -15 -6.5 -24t-20.5 -9h-1q-14 0 -20.5 9t-6.5 24v1516q0 15 6.5 24.5zM349 745h61q24 0 24 -28v-54q0 -28 -24 -28h-60q-15 0 -20.5 6.5t-5.5 21.5v57q0 25 25 25z" />
    <glyph glyph-name="eacute" unicode="&#xe9;" horiz-adv-x="1452" 
d="M824 1369h-2q-10 1 -18.5 7.5t-8.5 17.5q0 8 5 18l128 229q7 13 12.5 16.5t12.5 3.5h2q10 -1 18.5 -8.5t8.5 -18.5q0 -9 -5 -17l-127 -228q-12 -20 -26 -20zM143 602q0 -154 77.5 -286.5t209.5 -211t287 -78.5q95 0 168 22t121.5 52t105.5 75q11 9 24 9q9 0 15 -6l2 -2
q6 -6 6 -15q0 -14 -12 -25q-88 -75 -193.5 -119t-236.5 -44q-170 0 -314.5 85t-229.5 229.5t-85 314.5t85 316.5t229 233t313 86.5q175 0 321 -89.5t230 -228.5t84 -279v-4q0 -27 -28 -27h-1179v-8zM447 1113q-125 -70 -205 -189t-96 -260h1149q-8 118 -85 239t-207 200.5
t-288 79.5q-143 0 -268 -70z" />
    <glyph glyph-name="egrave" unicode="&#xe8;" horiz-adv-x="1452" 
d="M566 1645q0 11 8 18.5t19 8.5h2q7 0 12.5 -3.5t12.5 -16.5l128 -229q5 -13 5 -18q0 -11 -8.5 -17.5t-18.5 -7.5h-2q-14 0 -26 20l-127 228q-5 8 -5 17zM143 602q0 -154 77.5 -286.5t209.5 -211t287 -78.5q95 0 168 22t121.5 52t105.5 75q11 9 24 9q9 0 15 -6l2 -2
q6 -6 6 -15q0 -14 -12 -25q-88 -75 -193.5 -119t-236.5 -44q-170 0 -314.5 85t-229.5 229.5t-85 314.5t85 316.5t229 233t313 86.5q175 0 321 -89.5t230 -228.5t84 -279v-4q0 -27 -28 -27h-1179v-8zM447 1113q-125 -70 -205 -189t-96 -260h1149q-8 118 -85 239t-207 200.5
t-288 79.5q-143 0 -268 -70z" />
    <glyph glyph-name="rcommaaccent" unicode="&#x157;" horiz-adv-x="1041" 
d="M183 1226h1q26 0 26 -31v-255q36 89 110 150t162 90.5t170 29.5q69 0 146 -27.5t130.5 -64.5t53.5 -61q0 -8 -4 -12l-1 -1q-9 -11 -22 -11q-11 0 -21 9q-136 113 -279 113q-103 0 -205 -48.5t-170.5 -156t-68.5 -272.5v-646q0 -32 -27 -32h-1q-27 0 -27 32v1163
q0 31 27 31zM143 -143.5q5 5.5 15 5.5h61q17 0 17 -19v-73q0 -34 -10.5 -61t-24 -42t-21.5 -15q-6 0 -12 6l-13 12q-4 3 -4 9q0 5 4 9q13 14 20 31.5t7 31.5v11q0 8 -8 8h-16q-12 0 -16 4.5t-4 16.5v52q0 8 5 13.5z" />
    </font>
</defs>
</svg>
